SeanSlab-CondensedLight.ufo
<glyph name="quotedbl" format="1">
  <advance width="368"/>
  <unicode hex="0022"/>
  <outline>
    <contour>
      <point x="137" y="561" type="line"/>
      <point x="142" y="757" type="line"/>
      <point x="80" y="757" type="line"/>
      <point x="85" y="561" type="line"/>
    </contour>
    <contour>
      <point x="284" y="561" type="line"/>
      <point x="289" y="757" type="line"/>
      <point x="227" y="757" type="line"/>
      <point x="232" y="561" type="line"/>
    </contour>
  </outline>
</glyph>
<glyph name="numbersign" format="1">
  <advance width="526"/>
  <unicode hex="0023"/>
  <outline>
    <contour>
      <point x="46" y="239" type="line"/>
      <point x="418" y="239" type="line"/>
      <point x="429" y="286" type="line"/>
      <point x="58" y="286" type="line"/>
    </contour>
    <contour>
      <point x="96" y="474" type="line"/>
      <point x="468" y="474" type="line"/>
      <point x="480" y="521" type="line"/>
      <point x="107" y="521" type="line"/>
    </contour>
    <contour>
      <point x="310" y="39" type="line"/>
      <point x="465" y="722" type="line"/>
      <point x="407" y="722" type="line"/>
      <point x="252" y="39" type="line"/>
    </contour>
    <contour>
      <point x="124" y="46" type="line"/>
      <point x="276" y="722" type="line"/>
      <point x="219" y="722" type="line"/>
      <point x="68" y="46" type="line"/>
    </contour>
  </outline>
</glyph>
<glyph name="percent" format="1">
  <advance width="783"/>
  <unicode hex="0025"/>
  <outline>
    <contour>
      <point x="271" y="-77" type="line"/>
      <point x="576" y="743" type="line"/>
      <point x="519" y="743" type="line"/>
      <point x="215" y="-77" type="line"/>
    </contour>
    <contour>
      <point x="89" y="539" type="curve"/>
      <point x="89" y="629"/>
      <point x="103" y="705"/>
      <point x="181" y="705" type="curve"/>
      <point x="260" y="706"/>
      <point x="274" y="630"/>
      <point x="274" y="539" type="curve"/>
      <point x="274" y="448"/>
      <point x="263" y="370"/>
      <point x="185" y="370" type="curve"/>
      <point x="105" y="370"/>
      <point x="89" y="447"/>
      <point x="89" y="539" type="curve"/>
      <point x="70" y="539"/>
      <point x="58" y="539"/>
      <point x="39" y="539" type="curve"/>
      <point x="39" y="420"/>
      <point x="76" y="327"/>
      <point x="182" y="327" type="curve"/>
      <point x="290" y="327"/>
      <point x="327" y="421"/>
      <point x="327" y="541" type="curve"/>
      <point x="327" y="658"/>
      <point x="290" y="749"/>
      <point x="184" y="749" type="curve"/>
      <point x="77" y="749"/>
      <point x="39" y="657"/>
      <point x="39" y="539" type="curve"/>
      <point x="58" y="539"/>
      <point x="70" y="539"/>
    </contour>
    <contour>
      <point x="506" y="131" type="curve"/>
      <point x="506" y="222"/>
      <point x="520" y="298"/>
      <point x="599" y="298" type="curve"/>
      <point x="677" y="299"/>
      <point x="691" y="222"/>
      <point x="691" y="131" type="curve"/>
      <point x="691" y="40"/>
      <point x="680" y="-38"/>
      <point x="602" y="-38" type="curve"/>
      <point x="522" y="-38"/>
      <point x="506" y="39"/>
      <point x="506" y="131" type="curve"/>
      <point x="487" y="131"/>
      <point x="475" y="131"/>
      <point x="456" y="131" type="curve"/>
      <point x="456" y="12"/>
      <point x="493" y="-81"/>
      <point x="600" y="-81" type="curve"/>
      <point x="707" y="-81"/>
      <point x="744" y="13"/>
      <point x="744" y="133" type="curve"/>
      <point x="744" y="251"/>
      <point x="707" y="342"/>
      <point x="601" y="341" type="curve"/>
      <point x="494" y="341"/>
      <point x="456" y="249"/>
      <point x="456" y="131" type="curve"/>
      <point x="475" y="131"/>
      <point x="487" y="131"/>
    </contour>
  </outline>
</glyph>
<glyph name="ampersand" format="1">
  <advance width="525"/>
  <unicode hex="0026"/>
  <outline>
    <contour>
      <point x="502" y="16" type="line"/>
      <point x="424" y="126"/>
      <point x="344" y="246"/>
      <point x="264" y="357" type="curve"/>
      <point x="218" y="426"/>
      <point x="163" y="485"/>
      <point x="163" y="569" type="curve"/>
      <point x="163" y="627"/>
      <point x="181" y="679"/>
      <point x="229" y="679" type="curve"/>
      <point x="280" y="679"/>
      <point x="301" y="630"/>
      <point x="301" y="571" type="curve"/>
      <point x="301" y="494"/>
      <point x="257" y="445"/>
      <point x="196" y="398" type="curve"/>
      <point x="118" y="337"/>
      <point x="59" y="280"/>
      <point x="59" y="184" type="curve"/>
      <point x="59" y="76"/>
      <point x="120" y="-5"/>
      <point x="223" y="-5" type="curve"/>
      <point x="386" y="-5"/>
      <point x="439" y="146"/>
      <point x="478" y="316" type="curve"/>
      <point x="428" y="328"/>
      <point x="478" y="316"/>
      <point x="428" y="328" type="curve"/>
      <point x="395" y="181"/>
      <point x="357" y="43"/>
      <point x="226" y="43" type="curve"/>
      <point x="155" y="43"/>
      <point x="117" y="105"/>
      <point x="117" y="184" type="curve"/>
      <point x="117" y="262"/>
      <point x="162" y="310"/>
      <point x="223" y="359" type="curve"/>
      <point x="299" y="419"/>
      <point x="359" y="476"/>
      <point x="359" y="572" type="curve"/>
      <point x="359" y="661"/>
      <point x="314" y="727"/>
      <point x="232" y="727" type="curve"/>
      <point x="149" y="727"/>
      <point x="107" y="658"/>
      <point x="107" y="569" type="curve"/>
      <point x="107" y="473"/>
      <point x="166" y="406"/>
      <point x="222" y="329" type="curve"/>
      <point x="299" y="219"/>
      <point x="382" y="96"/>
      <point x="459" y="-12" type="curve"/>
    </contour>
  </outline>
</glyph>
<glyph name="quotesingle" format="1">
  <advance width="222"/>
  <unicode hex="0027"/>
  <outline>
    <contour>
      <point x="137" y="561" type="line"/>
      <point x="142" y="757" type="line"/>
      <point x="80" y="757" type="line"/>
      <point x="85" y="561" type="line"/>
    </contour>
  </outline>
</glyph>
<glyph name="parenright" format="1">
  <advance width="291"/>
  <unicode hex="0029"/>
  <outline>
    <contour>
      <point x="45" y="-275" type="curve"/>
      <point x="183" y="-78"/>
      <point x="240" y="86"/>
      <point x="240" y="328" type="curve"/>
      <point x="240" y="562"/>
      <point x="190" y="725"/>
      <point x="48" y="912" type="curve"/>
      <point x="12" y="880"/>
      <point x="48" y="912"/>
      <point x="12" y="880" type="curve"/>
      <point x="143" y="701"/>
      <point x="181" y="545"/>
      <point x="181" y="325" type="curve"/>
      <point x="181" y="100"/>
      <point x="135" y="-57"/>
      <point x="8" y="-244" type="curve"/>
      <point x="45" y="-275"/>
      <point x="8" y="-244"/>
    </contour>
  </outline>
</glyph>
<glyph name="asterisk" format="1">
  <advance width="535"/>
  <unicode hex="002A"/>
  <outline>
    <contour>
      <point x="289" y="532" type="line"/>
      <point x="293" y="728" type="line"/>
      <point x="243" y="728" type="line"/>
      <point x="247" y="532" type="line"/>
    </contour>
    <contour>
      <point x="275" y="512" type="line"/>
      <point x="463" y="571" type="line"/>
      <point x="446" y="618" type="line"/>
      <point x="261" y="551" type="line"/>
    </contour>
    <contour>
      <point x="252" y="519" type="line"/>
      <point x="368" y="360" type="line"/>
      <point x="407" y="391" type="line"/>
      <point x="285" y="544" type="line"/>
    </contour>
    <contour>
      <point x="252" y="545" type="line"/>
      <point x="129" y="391" type="line"/>
      <point x="168" y="360" type="line"/>
      <point x="284" y="519" type="line"/>
    </contour>
    <contour>
      <point x="274" y="551" type="line"/>
      <point x="90" y="618" type="line"/>
      <point x="73" y="571" type="line"/>
      <point x="261" y="512" type="line"/>
    </contour>
  </outline>
</glyph>
<glyph name="plus" format="1">
  <advance width="594"/>
  <unicode hex="002B"/>
  <outline>
    <contour>
      <point x="51" y="285" type="curve"/>
      <point x="544" y="285" type="line"/>
      <point x="544" y="337"/>
      <point x="544" y="285"/>
      <point x="544" y="337" type="curve"/>
      <point x="51" y="337" type="line"/>
      <point x="51" y="285"/>
      <point x="51" y="337"/>
    </contour>
    <contour>
      <point x="325" y="29" type="curve"/>
      <point x="325" y="585" type="line"/>
      <point x="267" y="585"/>
      <point x="327" y="585"/>
      <point x="270" y="585" type="curve"/>
      <point x="270" y="29" type="line"/>
      <point x="327" y="29"/>
      <point x="267" y="29"/>
    </contour>
  </outline>
</glyph>
<glyph name="comma" format="1">
  <advance width="210"/>
  <unicode hex="002C"/>
  <outline>
    <contour>
      <point x="39" y="-112" type="line"/>
      <point x="100" y="-112"/>
      <point x="129" y="-59"/>
      <point x="129" y="1" type="curve"/>
      <point x="129" y="47"/>
      <point x="116" y="78"/>
      <point x="89" y="78" type="curve"/>
      <point x="67" y="78"/>
      <point x="54" y="67"/>
      <point x="54" y="45" type="curve"/>
      <point x="54" y="27"/>
      <point x="62" y="14"/>
      <point x="81" y="11" type="curve"/>
      <point x="81" y="-12"/>
      <point x="82" y="-69"/>
      <point x="39" y="-73" type="curve"/>
    </contour>
  </outline>
</glyph>
<glyph name="hyphen" format="1">
  <advance width="367"/>
  <unicode hex="002D"/>
  <outline>
    <contour>
      <point x="80" y="250" type="curve"/>
      <point x="149" y="250"/>
      <point x="219" y="250"/>
      <point x="287" y="250" type="curve"/>
      <point x="287" y="301"/>
      <point x="287" y="250"/>
      <point x="287" y="301" type="curve"/>
      <point x="219" y="301"/>
      <point x="149" y="301"/>
      <point x="80" y="301" type="curve"/>
      <point x="80" y="250"/>
      <point x="80" y="301"/>
    </contour>
  </outline>
</glyph>
<glyph name="period" format="1">
  <advance width="219"/>
  <unicode hex="002E"/>
  <outline>
    <contour>
      <point x="143" y="26" type="curve"/>
      <point x="143" y="48"/>
      <point x="129" y="59"/>
      <point x="109" y="59" type="curve"/>
      <point x="89" y="59"/>
      <point x="76" y="46"/>
      <point x="76" y="26" type="curve"/>
      <point x="143" y="26"/>
      <point x="76" y="26"/>
      <point x="143" y="26" type="curve"/>
      <point x="143" y="4"/>
      <point x="129" y="-6"/>
      <point x="109" y="-6" type="curve"/>
      <point x="88" y="-6"/>
      <point x="76" y="5"/>
      <point x="76" y="26" type="curve"/>
      <point x="143" y="26"/>
      <point x="76" y="26"/>
    </contour>
  </outline>
</glyph>
<glyph name="slash" format="1">
  <advance width="430"/>
  <unicode hex="002F"/>
  <outline>
    <contour>
      <point x="92" y="-52" type="curve"/>
      <point x="193" y="241"/>
      <point x="295" y="533"/>
      <point x="396" y="826" type="curve"/>
      <point x="339" y="826"/>
      <point x="396" y="826"/>
      <point x="339" y="826" type="curve"/>
      <point x="237" y="533"/>
      <point x="136" y="241"/>
      <point x="34" y="-52" type="curve"/>
      <point x="92" y="-52"/>
      <point x="34" y="-52"/>
    </contour>
  </outline>
</glyph>
<glyph name="zero" format="1">
  <advance width="565"/>
  <unicode hex="0030"/>
  <outline>
    <contour>
      <point x="119" y="360" type="curve"/>
      <point x="119" y="532"/>
      <point x="137" y="678"/>
      <point x="280" y="678" type="curve"/>
      <point x="426" y="678"/>
      <point x="445" y="534"/>
      <point x="445" y="363" type="curve"/>
      <point x="445" y="192"/>
      <point x="426" y="44"/>
      <point x="286" y="44" type="curve"/>
      <point x="146" y="44"/>
      <point x="119" y="189"/>
      <point x="119" y="360" type="curve"/>
      <point x="64" y="360"/>
      <point x="118" y="360"/>
      <point x="63" y="360" type="curve"/>
      <point x="63" y="157"/>
      <point x="105" y="-5"/>
      <point x="283" y="-5" type="curve"/>
      <point x="462" y="-5"/>
      <point x="501" y="159"/>
      <point x="501" y="363" type="curve"/>
      <point x="501" y="565"/>
      <point x="462" y="727"/>
      <point x="286" y="727" type="curve"/>
      <point x="106" y="727"/>
      <point x="63" y="564"/>
      <point x="63" y="360" type="curve"/>
      <point x="118" y="360"/>
      <point x="64" y="360"/>
    </contour>
  </outline>
</glyph>
<glyph name="one" format="1">
  <advance width="363"/>
  <unicode hex="0031"/>
  <outline>
    <contour>
      <point x="213" y="0" type="curve"/>
      <point x="253" y="0"/>
      <point x="292" y="0"/>
      <point x="333" y="0" type="curve"/>
      <point x="333" y="47"/>
      <point x="333" y="0"/>
      <point x="333" y="47" type="curve"/>
      <point x="213" y="47"/>
      <point x="333" y="47"/>
      <point x="213" y="47" type="curve"/>
      <point x="213" y="0"/>
      <point x="213" y="47"/>
    </contour>
    <contour>
      <point x="213" y="47" type="curve"/>
      <point x="86" y="47"/>
      <point x="213" y="47"/>
      <point x="86" y="47" type="curve"/>
      <point x="86" y="0"/>
      <point x="86" y="47"/>
      <point x="86" y="0" type="curve"/>
      <point x="129" y="0"/>
      <point x="170" y="0"/>
      <point x="213" y="0" type="curve"/>
      <point x="213" y="47"/>
      <point x="213" y="0"/>
    </contour>
    <contour>
      <point x="74" y="523" type="curve"/>
      <point x="228" y="695"/>
      <point x="74" y="523"/>
      <point x="228" y="695" type="curve"/>
      <point x="183" y="722"/>
      <point x="228" y="695"/>
      <point x="183" y="722" type="curve"/>
      <point x="38" y="559"/>
      <point x="183" y="722"/>
      <point x="38" y="559" type="curve"/>
      <point x="74" y="523"/>
      <point x="38" y="559"/>
    </contour>
    <contour>
      <point x="240" y="0" type="curve"/>
      <point x="240" y="241"/>
      <point x="240" y="481"/>
      <point x="240" y="722" type="curve"/>
      <point x="183" y="722"/>
      <point x="240" y="722"/>
      <point x="183" y="722" type="curve"/>
      <point x="183" y="481"/>
      <point x="183" y="241"/>
      <point x="183" y="0" type="curve"/>
      <point x="240" y="0"/>
      <point x="183" y="0"/>
    </contour>
  </outline>
</glyph>
<glyph name="two" format="1">
  <advance width="456"/>
  <unicode hex="0032"/>
  <outline>
    <contour>
      <point x="389" y="47" type="curve"/>
      <point x="389" y="160"/>
      <point x="389" y="42"/>
      <point x="389" y="156" type="curve"/>
      <point x="342" y="156"/>
      <point x="389" y="156"/>
      <point x="342" y="156" type="curve"/>
      <point x="342" y="42"/>
      <point x="342" y="160"/>
      <point x="342" y="47" type="curve"/>
      <point x="389" y="47"/>
      <point x="342" y="47"/>
    </contour>
    <contour>
      <point x="49" y="0" type="curve"/>
      <point x="180" y="0"/>
      <point x="285" y="0"/>
      <point x="389" y="0" type="curve"/>
      <point x="389" y="47"/>
      <point x="389" y="0"/>
      <point x="389" y="47" type="curve"/>
      <point x="276" y="47"/>
      <point x="163" y="47"/>
      <point x="49" y="47" type="curve"/>
      <point x="49" y="0"/>
      <point x="49" y="47"/>
    </contour>
    <contour>
      <point x="100" y="550" type="curve"/>
      <point x="129" y="618"/>
      <point x="152" y="678"/>
      <point x="221" y="678" type="curve"/>
      <point x="298" y="678"/>
      <point x="322" y="609"/>
      <point x="322" y="519" type="curve"/>
      <point x="322" y="407"/>
      <point x="254" y="307"/>
      <point x="209" y="250" type="curve"/>
      <point x="156" y="181"/>
      <point x="104" y="115"/>
      <point x="49" y="47" type="curve"/>
      <point x="57" y="0"/>
      <point x="49" y="47"/>
      <point x="57" y="0" type="curve"/>
      <point x="132" y="68"/>
      <point x="189" y="142"/>
      <point x="245" y="215" type="curve"/>
      <point x="302" y="284"/>
      <point x="377" y="392"/>
      <point x="377" y="522" type="curve"/>
      <point x="377" y="642"/>
      <point x="332" y="727"/>
      <point x="224" y="727" type="curve"/>
      <point x="135" y="727"/>
      <point x="87" y="660"/>
      <point x="56" y="574" type="curve"/>
      <point x="100" y="550"/>
      <point x="56" y="574"/>
    </contour>
  </outline>
</glyph>
<glyph name="six" format="1">
  <advance width="468"/>
  <unicode hex="0036"/>
  <outline>
    <contour>
      <point x="105" y="224" type="curve"/>
      <point x="118" y="295"/>
      <point x="161" y="372"/>
      <point x="239" y="372" type="curve"/>
      <point x="322" y="372"/>
      <point x="350" y="302"/>
      <point x="350" y="209" type="curve"/>
      <point x="350" y="127"/>
      <point x="321" y="47"/>
      <point x="243" y="47" type="curve"/>
      <point x="146" y="47"/>
      <point x="114" y="136"/>
      <point x="114" y="247" type="curve"/>
      <point x="114" y="459"/>
      <point x="211" y="613"/>
      <point x="404" y="689" type="curve"/>
      <point x="386" y="732"/>
      <point x="404" y="689"/>
      <point x="386" y="732" type="curve"/>
      <point x="173" y="652"/>
      <point x="57" y="486"/>
      <point x="57" y="245" type="curve"/>
      <point x="57" y="101"/>
      <point x="111" y="-7"/>
      <point x="242" y="-7" type="curve"/>
      <point x="356" y="-7"/>
      <point x="409" y="85"/>
      <point x="409" y="210" type="curve"/>
      <point x="409" y="332"/>
      <point x="358" y="421"/>
      <point x="248" y="421" type="curve"/>
      <point x="143" y="421"/>
      <point x="87" y="328"/>
      <point x="73" y="240" type="curve"/>
      <point x="104" y="224"/>
      <point x="75" y="240"/>
    </contour>
  </outline>
</glyph>
<glyph name="seven" format="1">
  <advance width="425"/>
  <unicode hex="0037"/>
  <outline>
    <contour>
      <point x="100" y="581" type="curve"/>
      <point x="100" y="691" type="curve"/>
      <point x="53" y="691" type="curve"/>
      <point x="53" y="581" type="curve"/>
    </contour>
    <contour>
      <point x="53" y="675" type="curve"/>
      <point x="406" y="675" type="curve"/>
      <point x="406" y="722" type="curve"/>
      <point x="53" y="722" type="curve"/>
    </contour>
    <contour>
      <point x="372" y="722" type="curve"/>
      <point x="74" y="0" type="curve"/>
      <point x="133" y="0" type="curve"/>
      <point x="406" y="675" type="curve"/>
    </contour>
  </outline>
</glyph>
<glyph name="eight" format="1">
  <advance width="457"/>
  <unicode hex="0038"/>
  <outline>
    <contour>
      <point x="76" y="557" type="curve"/>
      <point x="76" y="460"/>
      <point x="130" y="414"/>
      <point x="212" y="360" type="curve"/>
      <point x="287" y="309"/>
      <point x="336" y="261"/>
      <point x="336" y="176" type="curve"/>
      <point x="336" y="98"/>
      <point x="302" y="44"/>
      <point x="228" y="44" type="curve"/>
      <point x="154" y="44"/>
      <point x="120" y="98"/>
      <point x="120" y="176" type="curve"/>
      <point x="120" y="263"/>
      <point x="171" y="308"/>
      <point x="247" y="360" type="curve"/>
      <point x="325" y="414"/>
      <point x="381" y="460"/>
      <point x="381" y="555" type="curve"/>
      <point x="381" y="660"/>
      <point x="331" y="727"/>
      <point x="228" y="727" type="curve"/>
      <point x="128" y="727"/>
      <point x="76" y="659"/>
      <point x="76" y="557" type="curve"/>
      <point x="134" y="557"/>
      <point x="76" y="557"/>
      <point x="134" y="557" type="curve"/>
      <point x="134" y="626"/>
      <point x="161" y="678"/>
      <point x="226" y="678" type="curve"/>
      <point x="295" y="678"/>
      <point x="323" y="628"/>
      <point x="323" y="555" type="curve"/>
      <point x="323" y="480"/>
      <point x="277" y="439"/>
      <point x="211" y="395" type="curve"/>
      <point x="122" y="334"/>
      <point x="62" y="283"/>
      <point x="62" y="176" type="curve"/>
      <point x="62" y="65"/>
      <point x="117" y="-5"/>
      <point x="225" y="-5" type="curve"/>
      <point x="335" y="-5"/>
      <point x="395" y="63"/>
      <point x="395" y="176" type="curve"/>
      <point x="395" y="282"/>
      <point x="336" y="335"/>
      <point x="247" y="395" type="curve"/>
      <point x="181" y="442"/>
      <point x="134" y="480"/>
      <point x="134" y="557" type="curve"/>
      <point x="76" y="557"/>
      <point x="134" y="557"/>
    </contour>
  </outline>
</glyph>
<glyph name="nine" format="1">
  <advance width="467"/>
  <unicode hex="0039"/>
  <outline>
    <contour>
      <point x="365" y="485" type="curve"/>
      <point x="343" y="417"/>
      <point x="308" y="350"/>
      <point x="229" y="350" type="curve"/>
      <point x="146" y="350"/>
      <point x="115" y="422"/>
      <point x="115" y="515" type="curve"/>
      <point x="115" y="603"/>
      <point x="145" y="675"/>
      <point x="223" y="675" type="curve"/>
      <point x="320" y="675"/>
      <point x="353" y="585"/>
      <point x="353" y="475" type="curve"/>
      <point x="353" y="263"/>
      <point x="266" y="116"/>
      <point x="70" y="32" type="curve"/>
      <point x="92" y="-15"/>
      <point x="70" y="32"/>
      <point x="92" y="-15" type="curve"/>
      <point x="304" y="73"/>
      <point x="409" y="236"/>
      <point x="409" y="477" type="curve"/>
      <point x="409" y="621"/>
      <point x="357" y="729"/>
      <point x="225" y="729" type="curve"/>
      <point x="109" y="729"/>
      <point x="59" y="637"/>
      <point x="59" y="512" type="curve"/>
      <point x="59" y="390"/>
      <point x="110" y="301"/>
      <point x="223" y="301" type="curve"/>
      <point x="324" y="301"/>
      <point x="367" y="382"/>
      <point x="395" y="472" type="curve"/>
      <point x="365" y="485"/>
      <point x="395" y="472"/>
    </contour>
  </outline>
</glyph>
<glyph name="colon" format="1">
  <advance width="227"/>
  <unicode hex="003A"/>
  <outline>
    <contour>
      <point x="147" y="395" type="curve"/>
      <point x="147" y="417"/>
      <point x="133" y="428"/>
      <point x="113" y="428" type="curve"/>
      <point x="92" y="428"/>
      <point x="80" y="416"/>
      <point x="80" y="395" type="curve"/>
      <point x="147" y="395"/>
      <point x="80" y="395"/>
      <point x="147" y="395" type="curve"/>
      <point x="147" y="374"/>
      <point x="133" y="363"/>
      <point x="113" y="363" type="curve"/>
      <point x="92" y="363"/>
      <point x="80" y="374"/>
      <point x="80" y="395" type="curve"/>
      <point x="147" y="395"/>
      <point x="80" y="395"/>
    </contour>
    <contour>
      <point x="147" y="28" type="curve"/>
      <point x="147" y="49"/>
      <point x="133" y="61"/>
      <point x="113" y="61" type="curve"/>
      <point x="92" y="61"/>
      <point x="80" y="48"/>
      <point x="80" y="28" type="curve"/>
      <point x="147" y="28"/>
      <point x="80" y="28"/>
      <point x="147" y="28" type="curve"/>
      <point x="147" y="6"/>
      <point x="133" y="-4"/>
      <point x="113" y="-4" type="curve"/>
      <point x="92" y="-4"/>
      <point x="80" y="7"/>
      <point x="80" y="28" type="curve"/>
      <point x="147" y="28"/>
      <point x="80" y="28"/>
    </contour>
  </outline>
</glyph>
<glyph name="semicolon" format="1">
  <advance width="259"/>
  <unicode hex="003B"/>
  <outline>
    <contour>
      <point x="73" y="-139" type="line"/>
      <point x="137" y="-139"/>
      <point x="167" y="-86"/>
      <point x="167" y="-26" type="curve"/>
      <point x="167" y="20"/>
      <point x="154" y="51"/>
      <point x="125" y="51" type="curve"/>
      <point x="102" y="51"/>
      <point x="88" y="39"/>
      <point x="88" y="18" type="curve"/>
      <point x="88" y="0"/>
      <point x="97" y="-13"/>
      <point x="117" y="-17" type="curve"/>
      <point x="117" y="-39"/>
      <point x="118" y="-97"/>
      <point x="73" y="-100" type="curve"/>
    </contour>
    <contour>
      <point x="162" y="413" type="curve"/>
      <point x="162" y="435"/>
      <point x="148" y="446"/>
      <point x="128" y="446" type="curve"/>
      <point x="108" y="446"/>
      <point x="95" y="433"/>
      <point x="95" y="413" type="curve"/>
      <point x="162" y="413"/>
      <point x="95" y="413"/>
      <point x="162" y="413" type="curve"/>
      <point x="162" y="392"/>
      <point x="148" y="381"/>
      <point x="128" y="381" type="curve"/>
      <point x="107" y="381"/>
      <point x="95" y="392"/>
      <point x="95" y="413" type="curve"/>
      <point x="162" y="413"/>
      <point x="95" y="413"/>
    </contour>
  </outline>
</glyph>
<glyph name="equal" format="1">
  <advance width="613"/>
  <unicode hex="003D"/>
  <outline>
    <contour>
      <point x="82" y="193" type="curve"/>
      <point x="231" y="193"/>
      <point x="381" y="193"/>
      <point x="531" y="193" type="curve"/>
      <point x="531" y="242"/>
      <point x="531" y="193"/>
      <point x="531" y="242" type="curve"/>
      <point x="381" y="242"/>
      <point x="231" y="242"/>
      <point x="82" y="242" type="curve"/>
      <point x="82" y="193"/>
      <point x="82" y="242"/>
    </contour>
    <contour>
      <point x="82" y="415" type="curve"/>
      <point x="231" y="415"/>
      <point x="381" y="415"/>
      <point x="531" y="415" type="curve"/>
      <point x="531" y="464"/>
      <point x="531" y="415"/>
      <point x="531" y="464" type="curve"/>
      <point x="381" y="464"/>
      <point x="231" y="464"/>
      <point x="82" y="464" type="curve"/>
      <point x="82" y="415"/>
      <point x="82" y="464"/>
    </contour>
  </outline>
</glyph>
<glyph name="greater" format="1">
  <advance width="538"/>
  <unicode hex="003E"/>
  <outline>
    <contour>
      <point x="65" y="10" type="curve"/>
      <point x="209" y="100"/>
      <point x="355" y="190"/>
      <point x="499" y="280" type="curve"/>
      <point x="499" y="332"/>
      <point x="499" y="280"/>
      <point x="499" y="332" type="curve"/>
      <point x="355" y="242"/>
      <point x="209" y="152"/>
      <point x="65" y="62" type="curve"/>
      <point x="65" y="10"/>
      <point x="65" y="62"/>
    </contour>
    <contour>
      <point x="58" y="544" type="curve"/>
      <point x="204" y="456"/>
      <point x="352" y="368"/>
      <point x="499" y="280" type="curve"/>
      <point x="499" y="332"/>
      <point x="499" y="280"/>
      <point x="499" y="332" type="curve"/>
      <point x="352" y="420"/>
      <point x="204" y="508"/>
      <point x="58" y="596" type="curve"/>
      <point x="58" y="544"/>
      <point x="58" y="596"/>
    </contour>
  </outline>
</glyph>
<glyph name="at" format="1">
  <advance width="642"/>
  <unicode hex="0040"/>
  <outline>
    <contour>
      <point x="435" y="-76" type="curve"/>
      <point x="402" y="-101"/>
      <point x="374" y="-110"/>
      <point x="332" y="-110" type="curve"/>
      <point x="173" y="-110"/>
      <point x="109" y="21"/>
      <point x="109" y="196" type="curve"/>
      <point x="109" y="366"/>
      <point x="173" y="496"/>
      <point x="327" y="496" type="curve"/>
      <point x="473" y="496"/>
      <point x="532" y="370"/>
      <point x="532" y="209" type="curve"/>
      <point x="532" y="135"/>
      <point x="531" y="67"/>
      <point x="490" y="67" type="curve"/>
      <point x="443" y="67"/>
      <point x="443" y="130"/>
      <point x="443" y="201" type="curve"/>
      <point x="443" y="302"/>
      <point x="411" y="380"/>
      <point x="320" y="380" type="curve"/>
      <point x="224" y="380"/>
      <point x="190" y="304"/>
      <point x="190" y="200" type="curve"/>
      <point x="190" y="92"/>
      <point x="218" y="11"/>
      <point x="315" y="11" type="curve"/>
      <point x="403" y="11"/>
      <point x="425" y="89"/>
      <point x="435" y="188" type="curve"/>
      <point x="399" y="196"/>
      <point x="435" y="188"/>
      <point x="399" y="196" type="curve"/>
      <point x="387" y="127"/>
      <point x="380" y="58"/>
      <point x="321" y="58" type="curve"/>
      <point x="254" y="58"/>
      <point x="242" y="123"/>
      <point x="242" y="203" type="curve"/>
      <point x="242" y="275"/>
      <point x="255" y="333"/>
      <point x="316" y="333" type="curve"/>
      <point x="381" y="333"/>
      <point x="391" y="272"/>
      <point x="391" y="198" type="curve"/>
      <point x="391" y="103"/>
      <point x="401" y="23"/>
      <point x="485" y="23" type="curve"/>
      <point x="574" y="23"/>
      <point x="583" y="108"/>
      <point x="583" y="212" type="curve"/>
      <point x="583" y="405"/>
      <point x="509" y="545"/>
      <point x="329" y="545" type="curve"/>
      <point x="139" y="545"/>
      <point x="56" y="399"/>
      <point x="56" y="194" type="curve"/>
      <point x="56" y="-11"/>
      <point x="140" y="-157"/>
      <point x="329" y="-157" type="curve"/>
      <point x="382" y="-157"/>
      <point x="416" y="-148"/>
      <point x="459" y="-117" type="curve"/>
      <point x="435" y="-76"/>
      <point x="459" y="-117"/>
    </contour>
  </outline>
</glyph>
<glyph name="B" format="1">
  <advance width="535"/>
  <unicode hex="0042"/>
  <outline>
    <contour>
      <point x="164" y="722" type="curve"/>
      <point x="120" y="722"/>
      <point x="91" y="722"/>
      <point x="47" y="722" type="curve"/>
      <point x="47" y="675"/>
      <point x="47" y="722"/>
      <point x="47" y="675" type="curve"/>
      <point x="179" y="675"/>
      <point x="32" y="675"/>
      <point x="164" y="675" type="curve"/>
      <point x="164" y="722"/>
      <point x="164" y="675"/>
    </contour>
    <contour>
      <point x="163" y="47" type="curve"/>
      <point x="31" y="47"/>
      <point x="178" y="47"/>
      <point x="46" y="47" type="curve"/>
      <point x="46" y="0"/>
      <point x="46" y="47"/>
      <point x="46" y="0" type="curve"/>
      <point x="90" y="0"/>
      <point x="120" y="0"/>
      <point x="163" y="0" type="curve"/>
      <point x="163" y="47"/>
      <point x="163" y="0"/>
    </contour>
    <contour>
      <point x="156" y="675" type="curve"/>
      <point x="202" y="675"/>
      <point x="232" y="675"/>
      <point x="278" y="675" type="curve"/>
      <point x="352" y="675"/>
      <point x="387" y="624"/>
      <point x="387" y="550" type="curve"/>
      <point x="387" y="479"/>
      <point x="352" y="432"/>
      <point x="284" y="432" type="curve"/>
      <point x="236" y="432"/>
      <point x="205" y="432"/>
      <point x="156" y="432" type="curve"/>
      <point x="156" y="414"/>
      <point x="156" y="402"/>
      <point x="156" y="385" type="curve"/>
      <point x="196" y="385"/>
      <point x="225" y="385"/>
      <point x="264" y="385" type="curve"/>
      <point x="367" y="385"/>
      <point x="444" y="441"/>
      <point x="444" y="548" type="curve"/>
      <point x="444" y="655"/>
      <point x="385" y="722"/>
      <point x="281" y="722" type="curve"/>
      <point x="234" y="722"/>
      <point x="203" y="722"/>
      <point x="156" y="722" type="curve"/>
      <point x="156" y="704"/>
      <point x="156" y="693"/>
    </contour>
    <contour>
      <point x="195" y="0" type="curve"/>
      <point x="195" y="241"/>
      <point x="195" y="481"/>
      <point x="195" y="722" type="curve"/>
      <point x="134" y="722"/>
      <point x="195" y="722"/>
      <point x="134" y="722" type="curve"/>
      <point x="134" y="481"/>
      <point x="135" y="241"/>
      <point x="134" y="0" type="curve"/>
      <point x="195" y="0"/>
      <point x="134" y="0"/>
    </contour>
    <contour>
      <point x="156" y="385" type="curve"/>
      <point x="205" y="385"/>
      <point x="236" y="385"/>
      <point x="284" y="385" type="curve"/>
      <point x="380" y="385"/>
      <point x="420" y="312"/>
      <point x="420" y="211" type="curve"/>
      <point x="420" y="113"/>
      <point x="374" y="47"/>
      <point x="280" y="47" type="curve"/>
      <point x="233" y="47"/>
      <point x="204" y="47"/>
      <point x="156" y="47" type="curve"/>
      <point x="156" y="29"/>
      <point x="156" y="18"/>
      <point x="156" y="0" type="curve"/>
      <point x="205" y="0"/>
      <point x="235" y="0"/>
      <point x="283" y="0" type="curve"/>
      <point x="408" y="0"/>
      <point x="478" y="81"/>
      <point x="478" y="210" type="curve"/>
      <point x="478" y="348"/>
      <point x="398" y="432"/>
      <point x="265" y="432" type="curve"/>
      <point x="225" y="432"/>
      <point x="196" y="432"/>
      <point x="156" y="432" type="curve"/>
      <point x="156" y="414"/>
      <point x="156" y="402"/>
    </contour>
  </outline>
</glyph>
<glyph name="C" format="1">
  <advance width="543"/>
  <unicode hex="0043"/>
  <outline>
    <contour>
      <point x="436" y="655" type="curve"/>
      <point x="436" y="535"/>
      <point x="436" y="655"/>
      <point x="436" y="535" type="curve"/>
      <point x="484" y="535"/>
      <point x="436" y="535"/>
      <point x="484" y="535" type="curve"/>
      <point x="484" y="655"/>
      <point x="484" y="535"/>
      <point x="484" y="655" type="curve"/>
      <point x="436" y="655"/>
      <point x="484" y="655"/>
    </contour>
    <contour>
      <point x="484" y="655" type="curve"/>
      <point x="436" y="695"/>
      <point x="379" y="727"/>
      <point x="310" y="727" type="curve"/>
      <point x="121" y="727"/>
      <point x="61" y="562"/>
      <point x="61" y="344" type="curve"/>
      <point x="61" y="146"/>
      <point x="119" y="-5"/>
      <point x="295" y="-5" type="curve"/>
      <point x="386" y="-5"/>
      <point x="441" y="33"/>
      <point x="497" y="97" type="curve"/>
      <point x="462" y="132"/>
      <point x="496" y="97"/>
      <point x="461" y="132" type="curve"/>
      <point x="415" y="80"/>
      <point x="371" y="46"/>
      <point x="298" y="46" type="curve"/>
      <point x="154" y="46"/>
      <point x="119" y="179"/>
      <point x="119" y="346" type="curve"/>
      <point x="119" y="529"/>
      <point x="155" y="677"/>
      <point x="308" y="677" type="curve"/>
      <point x="365" y="677"/>
      <point x="413" y="651"/>
      <point x="452" y="618" type="curve"/>
      <point x="484" y="655"/>
      <point x="452" y="618"/>
    </contour>
    <contour>
      <point x="306" y="812" type="move" name="top"/>
    </contour>
    <contour>
      <point x="308" y="-2" type="move" name="bottom"/>
    </contour>
  </outline>
</glyph>
<glyph name="G" format="1">
  <advance width="601"/>
  <unicode hex="0047"/>
  <outline>
    <contour>
      <point x="475" y="643" type="curve"/>
      <point x="475" y="517"/>
      <point x="475" y="650"/>
      <point x="475" y="524" type="curve"/>
      <point x="523" y="524"/>
      <point x="475" y="524"/>
      <point x="523" y="524" type="curve"/>
      <point x="523" y="650"/>
      <point x="523" y="517"/>
      <point x="523" y="643" type="curve"/>
      <point x="475" y="643"/>
      <point x="523" y="643"/>
    </contour>
    <contour>
      <point x="518" y="333" type="curve"/>
      <point x="466" y="333"/>
      <point x="413" y="333"/>
      <point x="361" y="333" type="curve"/>
      <point x="361" y="287"/>
      <point x="361" y="333"/>
      <point x="361" y="287" type="curve"/>
      <point x="413" y="287"/>
      <point x="466" y="287"/>
      <point x="518" y="287" type="curve"/>
      <point x="518" y="333"/>
      <point x="518" y="287"/>
    </contour>
    <contour>
      <point x="535" y="78" type="curve"/>
      <point x="535" y="163"/>
      <point x="535" y="248"/>
      <point x="535" y="333" type="curve"/>
      <point x="482" y="333"/>
      <point x="535" y="333"/>
      <point x="482" y="333" type="curve"/>
      <point x="482" y="248"/>
      <point x="482" y="163"/>
      <point x="482" y="78" type="curve"/>
      <point x="535" y="78"/>
      <point x="482" y="78"/>
    </contour>
    <contour>
      <point x="523" y="643" type="curve"/>
      <point x="460" y="698"/>
      <point x="397" y="727"/>
      <point x="314" y="727" type="curve"/>
      <point x="128" y="727"/>
      <point x="59" y="573"/>
      <point x="59" y="364" type="curve"/>
      <point x="59" y="150"/>
      <point x="132" y="-5"/>
      <point x="322" y="-5" type="curve"/>
      <point x="411" y="-5"/>
      <point x="465" y="24"/>
      <point x="535" y="78" type="curve"/>
      <point x="504" y="115"/>
      <point x="535" y="78"/>
      <point x="504" y="115" type="curve"/>
      <point x="456" y="75"/>
      <point x="397" y="45"/>
      <point x="322" y="45" type="curve"/>
      <point x="163" y="45"/>
      <point x="118" y="185"/>
      <point x="118" y="368" type="curve"/>
      <point x="118" y="541"/>
      <point x="163" y="677"/>
      <point x="314" y="677" type="curve"/>
      <point x="386" y="677"/>
      <point x="439" y="651"/>
      <point x="494" y="603" type="curve"/>
      <point x="523" y="643"/>
      <point x="494" y="603"/>
    </contour>
    <contour>
      <point x="312" y="812" type="move" name="top"/>
    </contour>
    <contour>
      <point x="333" y="-57" type="move" name="bottom"/>
    </contour>
  </outline>
</glyph>
<glyph name="I" format="1">
  <advance width="318"/>
  <unicode hex="0049"/>
  <outline>
    <contour>
      <point x="159" y="722" type="curve"/>
      <point x="115" y="722"/>
      <point x="84" y="722"/>
      <point x="40" y="722" type="curve"/>
      <point x="40" y="675"/>
      <point x="40" y="722"/>
      <point x="40" y="675" type="curve"/>
      <point x="173" y="675"/>
      <point x="25" y="675"/>
      <point x="159" y="675" type="curve"/>
      <point x="159" y="722"/>
      <point x="159" y="675"/>
    </contour>
    <contour>
      <point x="159" y="675" type="curve"/>
      <point x="293" y="675"/>
      <point x="145" y="675"/>
      <point x="279" y="675" type="curve"/>
      <point x="279" y="722"/>
      <point x="279" y="675"/>
      <point x="279" y="722" type="curve"/>
      <point x="234" y="722"/>
      <point x="203" y="722"/>
      <point x="159" y="722" type="curve"/>
      <point x="159" y="675"/>
      <point x="159" y="722"/>
    </contour>
    <contour>
      <point x="159" y="0" type="curve"/>
      <point x="203" y="0"/>
      <point x="234" y="0"/>
      <point x="279" y="0" type="curve"/>
      <point x="279" y="47"/>
      <point x="279" y="0"/>
      <point x="279" y="47" type="curve"/>
      <point x="145" y="47"/>
      <point x="293" y="47"/>
      <point x="159" y="47" type="curve"/>
      <point x="159" y="0"/>
      <point x="159" y="47"/>
    </contour>
    <contour>
      <point x="159" y="47" type="curve"/>
      <point x="25" y="47"/>
      <point x="173" y="47"/>
      <point x="40" y="47" type="curve"/>
      <point x="40" y="0"/>
      <point x="40" y="47"/>
      <point x="40" y="0" type="curve"/>
      <point x="84" y="0"/>
      <point x="115" y="0"/>
      <point x="159" y="0" type="curve"/>
      <point x="159" y="47"/>
      <point x="159" y="0"/>
    </contour>
    <contour>
      <point x="187" y="0" type="curve"/>
      <point x="187" y="241"/>
      <point x="187" y="481"/>
      <point x="187" y="722" type="curve"/>
      <point x="130" y="722"/>
      <point x="187" y="722"/>
      <point x="130" y="722" type="curve"/>
      <point x="130" y="481"/>
      <point x="130" y="241"/>
      <point x="130" y="0" type="curve"/>
      <point x="187" y="0"/>
      <point x="130" y="0"/>
    </contour>
    <contour>
      <point x="160" y="812" type="move" name="top"/>
    </contour>
    <contour>
      <point x="184" y="1" type="move" name="bottom"/>
    </contour>
  </outline>
</glyph>
<glyph name="J" format="1">
  <advance width="382"/>
  <unicode hex="004A"/>
  <outline>
    <contour>
      <point x="240" y="722" type="curve"/>
      <point x="196" y="722"/>
      <point x="166" y="722"/>
      <point x="122" y="722" type="curve"/>
      <point x="122" y="675"/>
      <point x="122" y="722"/>
      <point x="122" y="675" type="curve"/>
      <point x="254" y="675"/>
      <point x="108" y="675"/>
      <point x="240" y="675" type="curve"/>
      <point x="240" y="722"/>
      <point x="240" y="675"/>
    </contour>
    <contour>
      <point x="240" y="675" type="curve"/>
      <point x="372" y="675"/>
      <point x="226" y="675"/>
      <point x="358" y="675" type="curve"/>
      <point x="358" y="722"/>
      <point x="358" y="675"/>
      <point x="358" y="722" type="curve"/>
      <point x="314" y="722"/>
      <point x="284" y="722"/>
      <point x="240" y="722" type="curve"/>
      <point x="240" y="675"/>
      <point x="240" y="722"/>
    </contour>
    <contour>
      <point x="21" y="40" type="curve"/>
      <point x="46" y="17"/>
      <point x="77" y="-5"/>
      <point x="119" y="-5" type="curve"/>
      <point x="235" y="-5"/>
      <point x="268" y="84"/>
      <point x="268" y="223" type="curve"/>
      <point x="268" y="405"/>
      <point x="268" y="540"/>
      <point x="268" y="722" type="curve"/>
      <point x="221" y="722"/>
      <point x="257" y="722"/>
      <point x="210" y="722" type="curve"/>
      <point x="210" y="540"/>
      <point x="210" y="405"/>
      <point x="210" y="223" type="curve"/>
      <point x="210" y="125"/>
      <point x="203" y="43"/>
      <point x="119" y="43" type="curve"/>
      <point x="89" y="43"/>
      <point x="69" y="60"/>
      <point x="49" y="77" type="curve"/>
      <point x="27" y="48"/>
      <point x="43" y="69"/>
    </contour>
  </outline>
</glyph>
<glyph name="K" format="1">
  <advance width="573"/>
  <unicode hex="004B"/>
  <outline>
    <contour>
      <point x="431" y="722" type="curve"/>
      <point x="386" y="722"/>
      <point x="368" y="722"/>
      <point x="324" y="722" type="curve"/>
      <point x="324" y="675"/>
      <point x="324" y="722"/>
      <point x="324" y="675" type="curve"/>
      <point x="457" y="675"/>
      <point x="297" y="675"/>
      <point x="431" y="675" type="curve"/>
      <point x="431" y="722"/>
      <point x="431" y="675"/>
    </contour>
    <contour>
      <point x="441" y="0" type="curve"/>
      <point x="491" y="0"/>
      <point x="503" y="0"/>
      <point x="553" y="0" type="curve"/>
      <point x="553" y="47"/>
      <point x="553" y="0"/>
      <point x="553" y="47" type="curve"/>
      <point x="403" y="47"/>
      <point x="591" y="47"/>
      <point x="441" y="47" type="curve"/>
      <point x="441" y="0"/>
      <point x="441" y="47"/>
    </contour>
    <contour>
      <point x="422" y="675" type="curve"/>
      <point x="555" y="675"/>
      <point x="401" y="675"/>
      <point x="534" y="675" type="curve"/>
      <point x="534" y="722"/>
      <point x="534" y="675"/>
      <point x="534" y="722" type="curve"/>
      <point x="490" y="722"/>
      <point x="467" y="722"/>
      <point x="422" y="722" type="curve"/>
      <point x="422" y="675"/>
      <point x="422" y="722"/>
    </contour>
    <contour>
      <point x="157" y="722" type="curve"/>
      <point x="113" y="722"/>
      <point x="84" y="722"/>
      <point x="39" y="722" type="curve"/>
      <point x="39" y="675"/>
      <point x="39" y="722"/>
      <point x="39" y="675" type="curve"/>
      <point x="172" y="675"/>
      <point x="25" y="675"/>
      <point x="157" y="675" type="curve"/>
      <point x="157" y="722"/>
      <point x="157" y="675"/>
    </contour>
    <contour>
      <point x="157" y="675" type="curve"/>
      <point x="291" y="675"/>
      <point x="126" y="675"/>
      <point x="259" y="675" type="curve"/>
      <point x="259" y="722"/>
      <point x="259" y="675"/>
      <point x="259" y="722" type="curve"/>
      <point x="215" y="722"/>
      <point x="202" y="722"/>
      <point x="157" y="722" type="curve"/>
      <point x="157" y="675"/>
      <point x="157" y="722"/>
    </contour>
    <contour>
      <point x="157" y="0" type="curve"/>
      <point x="203" y="0"/>
      <point x="126" y="0"/>
      <point x="263" y="0" type="curve"/>
      <point x="263" y="47"/>
      <point x="263" y="0"/>
      <point x="263" y="47" type="curve"/>
      <point x="126" y="47"/>
      <point x="295" y="47"/>
      <point x="157" y="47" type="curve"/>
      <point x="157" y="0"/>
      <point x="157" y="47"/>
    </contour>
    <contour>
      <point x="157" y="47" type="curve"/>
      <point x="25" y="47"/>
      <point x="172" y="47"/>
      <point x="39" y="47" type="curve"/>
      <point x="39" y="0"/>
      <point x="39" y="47"/>
      <point x="39" y="0" type="curve"/>
      <point x="84" y="0"/>
      <point x="113" y="0"/>
      <point x="157" y="0" type="curve"/>
      <point x="157" y="47"/>
      <point x="157" y="0"/>
    </contour>
    <contour>
      <point x="418" y="722" type="curve"/>
      <point x="172" y="380" type="line"/>
      <point x="239" y="380"/>
      <point x="169" y="380"/>
      <point x="236" y="380" type="curve"/>
      <point x="472" y="704" type="line"/>
      <point x="415" y="704"/>
      <point x="475" y="722"/>
    </contour>
    <contour>
      <point x="186" y="0" type="curve"/>
      <point x="186" y="722" type="line"/>
      <point x="129" y="722"/>
      <point x="186" y="722"/>
      <point x="129" y="722" type="curve"/>
      <point x="129" y="481"/>
      <point x="129" y="241"/>
      <point x="129" y="0" type="curve"/>
      <point x="186" y="0"/>
      <point x="129" y="0"/>
    </contour>
    <contour>
      <point x="493" y="15" type="curve"/>
      <point x="236" y="380" type="line"/>
      <point x="169" y="380"/>
      <point x="239" y="380"/>
      <point x="172" y="380" type="curve"/>
      <point x="435" y="0" type="line"/>
      <point x="496" y="0"/>
      <point x="431" y="15"/>
    </contour>
    <contour>
      <point x="320" y="-57" type="move" name="bottom"/>
    </contour>
  </outline>
</glyph>
<glyph name="M" format="1">
  <advance width="772"/>
  <unicode hex="004D"/>
  <outline>
    <contour>
      <point x="632" y="0" type="curve"/>
      <point x="676" y="0"/>
      <point x="705" y="0"/>
      <point x="749" y="0" type="curve"/>
      <point x="749" y="47"/>
      <point x="749" y="0"/>
      <point x="749" y="47" type="curve"/>
      <point x="618" y="47"/>
      <point x="763" y="47"/>
      <point x="632" y="47" type="curve"/>
      <point x="632" y="0"/>
      <point x="632" y="47"/>
    </contour>
    <contour>
      <point x="632" y="47" type="curve"/>
      <point x="504" y="47"/>
      <point x="647" y="47"/>
      <point x="518" y="47" type="curve"/>
      <point x="518" y="0"/>
      <point x="518" y="47"/>
      <point x="518" y="0" type="curve"/>
      <point x="561" y="0"/>
      <point x="589" y="0"/>
      <point x="632" y="0" type="curve"/>
      <point x="632" y="47"/>
      <point x="632" y="0"/>
    </contour>
    <contour>
      <point x="140" y="47" type="curve"/>
      <point x="10" y="47"/>
      <point x="155" y="47"/>
      <point x="24" y="47" type="curve"/>
      <point x="24" y="0"/>
      <point x="24" y="47"/>
      <point x="24" y="0" type="curve"/>
      <point x="68" y="0"/>
      <point x="97" y="0"/>
      <point x="140" y="0" type="curve"/>
      <point x="140" y="47"/>
      <point x="140" y="0"/>
    </contour>
    <contour>
      <point x="183" y="722" type="curve"/>
      <point x="138" y="722"/>
      <point x="109" y="722"/>
      <point x="66" y="722" type="curve"/>
      <point x="65" y="675"/>
      <point x="66" y="722"/>
      <point x="65" y="675" type="curve"/>
      <point x="197" y="675"/>
      <point x="51" y="675"/>
      <point x="183" y="675" type="curve"/>
      <point x="183" y="722"/>
      <point x="183" y="675"/>
    </contour>
    <contour>
      <point x="589" y="675" type="curve"/>
      <point x="719" y="675"/>
      <point x="575" y="675"/>
      <point x="705" y="675" type="curve"/>
      <point x="705" y="722"/>
      <point x="705" y="675"/>
      <point x="705" y="722" type="curve"/>
      <point x="661" y="722"/>
      <point x="632" y="722"/>
      <point x="589" y="722" type="curve"/>
      <point x="589" y="675"/>
      <point x="589" y="722"/>
    </contour>
    <contour>
      <point x="140" y="0" type="curve"/>
      <point x="183" y="0"/>
      <point x="126" y="0"/>
      <point x="254" y="0" type="curve"/>
      <point x="254" y="47"/>
      <point x="254" y="0"/>
      <point x="254" y="47" type="curve"/>
      <point x="126" y="47"/>
      <point x="268" y="47"/>
      <point x="140" y="47" type="curve"/>
      <point x="140" y="0"/>
      <point x="140" y="47"/>
    </contour>
    <contour>
      <point x="663" y="0" type="curve"/>
      <point x="648" y="241"/>
      <point x="632" y="481"/>
      <point x="617" y="722" type="curve"/>
      <point x="564" y="722"/>
      <point x="617" y="722"/>
      <point x="564" y="722" type="curve"/>
      <point x="578" y="481"/>
      <point x="591" y="241"/>
      <point x="605" y="0" type="curve"/>
      <point x="663" y="0"/>
      <point x="605" y="0"/>
    </contour>
    <contour>
      <point x="166" y="0" type="curve"/>
      <point x="179" y="241"/>
      <point x="192" y="481"/>
      <point x="206" y="722" type="curve"/>
      <point x="156" y="722"/>
      <point x="206" y="722"/>
      <point x="156" y="722" type="curve"/>
      <point x="142" y="481"/>
      <point x="128" y="241"/>
      <point x="113" y="0" type="curve"/>
      <point x="166" y="0"/>
      <point x="113" y="0"/>
    </contour>
    <contour>
      <point x="408" y="0" type="curve"/>
      <point x="341" y="241"/>
      <point x="274" y="481"/>
      <point x="208" y="722" type="curve"/>
      <point x="157" y="722"/>
      <point x="208" y="722"/>
      <point x="157" y="722" type="curve"/>
      <point x="224" y="481"/>
      <point x="291" y="241"/>
      <point x="357" y="0" type="curve"/>
      <point x="408" y="0"/>
      <point x="357" y="0"/>
    </contour>
    <contour>
      <point x="415" y="0" type="curve"/>
      <point x="481" y="241"/>
      <point x="546" y="481"/>
      <point x="611" y="722" type="curve"/>
      <point x="562" y="722"/>
      <point x="611" y="722"/>
      <point x="562" y="722" type="curve"/>
      <point x="496" y="481"/>
      <point x="429" y="241"/>
      <point x="363" y="0" type="curve"/>
      <point x="415" y="0"/>
      <point x="363" y="0"/>
    </contour>
  </outline>
</glyph>
<glyph name="P" format="1">
  <advance width="503"/>
  <unicode hex="0050"/>
  <outline>
    <contour>
      <point x="166" y="722" type="curve"/>
      <point x="122" y="722"/>
      <point x="92" y="722"/>
      <point x="47" y="722" type="curve"/>
      <point x="47" y="675"/>
      <point x="47" y="722"/>
      <point x="47" y="675" type="curve"/>
      <point x="180" y="675"/>
      <point x="33" y="675"/>
      <point x="166" y="675" type="curve"/>
      <point x="166" y="722"/>
      <point x="166" y="675"/>
    </contour>
    <contour>
      <point x="166" y="47" type="curve"/>
      <point x="33" y="47"/>
      <point x="180" y="47"/>
      <point x="47" y="47" type="curve"/>
      <point x="47" y="0"/>
      <point x="47" y="47"/>
      <point x="47" y="0" type="curve"/>
      <point x="92" y="0"/>
      <point x="122" y="0"/>
      <point x="166" y="0" type="curve"/>
      <point x="166" y="47"/>
      <point x="166" y="0"/>
    </contour>
    <contour>
      <point x="166" y="0" type="curve"/>
      <point x="211" y="0"/>
      <point x="152" y="0"/>
      <point x="285" y="0" type="curve"/>
      <point x="285" y="47"/>
      <point x="285" y="0"/>
      <point x="285" y="47" type="curve"/>
      <point x="152" y="47"/>
      <point x="300" y="47"/>
      <point x="166" y="47" type="curve"/>
      <point x="166" y="0"/>
      <point x="166" y="47"/>
    </contour>
    <contour>
      <point x="158" y="317" type="curve"/>
      <point x="195" y="291"/>
      <point x="236" y="272"/>
      <point x="284" y="272" type="curve"/>
      <point x="396" y="274"/>
      <point x="453" y="360"/>
      <point x="453" y="489" type="curve"/>
      <point x="453" y="621"/>
      <point x="387" y="722"/>
      <point x="262" y="722" type="curve"/>
      <point x="231" y="722"/>
      <point x="200" y="722"/>
      <point x="168" y="722" type="curve"/>
      <point x="168" y="675"/>
      <point x="168" y="722"/>
      <point x="168" y="675" type="curve"/>
      <point x="197" y="675"/>
      <point x="226" y="675"/>
      <point x="255" y="675" type="curve"/>
      <point x="351" y="675"/>
      <point x="396" y="593"/>
      <point x="396" y="489" type="curve"/>
      <point x="396" y="395"/>
      <point x="362" y="318"/>
      <point x="279" y="318" type="curve"/>
      <point x="237" y="318"/>
      <point x="211" y="334"/>
      <point x="177" y="358" type="curve"/>
      <point x="158" y="319"/>
      <point x="177" y="357"/>
    </contour>
    <contour>
      <point x="194" y="0" type="curve"/>
      <point x="194" y="241"/>
      <point x="194" y="481"/>
      <point x="194" y="722" type="curve"/>
      <point x="136" y="722"/>
      <point x="194" y="722"/>
      <point x="136" y="722" type="curve"/>
      <point x="136" y="481"/>
      <point x="136" y="241"/>
      <point x="136" y="0" type="curve"/>
      <point x="194" y="0"/>
      <point x="136" y="0"/>
    </contour>
  </outline>
</glyph>
<glyph name="S" format="1">
  <advance width="467"/>
  <unicode hex="0053"/>
  <outline>
    <contour>
      <point x="326" y="662" type="curve"/>
      <point x="326" y="542"/>
      <point x="326" y="663"/>
      <point x="326" y="543" type="curve"/>
      <point x="373" y="543"/>
      <point x="326" y="543"/>
      <point x="373" y="543" type="curve"/>
      <point x="373" y="663"/>
      <point x="373" y="542"/>
      <point x="373" y="662" type="curve"/>
      <point x="326" y="662"/>
      <point x="373" y="662"/>
    </contour>
    <contour>
      <point x="118" y="57" type="curve"/>
      <point x="118" y="177"/>
      <point x="118" y="59"/>
      <point x="118" y="179" type="curve"/>
      <point x="70" y="179"/>
      <point x="118" y="179"/>
      <point x="70" y="179" type="curve"/>
      <point x="70" y="59"/>
      <point x="70" y="177"/>
      <point x="70" y="57" type="curve"/>
      <point x="118" y="57"/>
      <point x="70" y="57"/>
    </contour>
    <contour>
      <point x="70" y="57" type="curve"/>
      <point x="109" y="21"/>
      <point x="158" y="-5"/>
      <point x="221" y="-5" type="curve"/>
      <point x="333" y="-5"/>
      <point x="403" y="63"/>
      <point x="403" y="176" type="curve"/>
      <point x="403" y="282"/>
      <point x="343" y="338"/>
      <point x="255" y="397" type="curve"/>
      <point x="187" y="441"/>
      <point x="137" y="483"/>
      <point x="137" y="556" type="curve"/>
      <point x="136" y="626"/>
      <point x="169" y="678"/>
      <point x="233" y="678" type="curve"/>
      <point x="280" y="678"/>
      <point x="322" y="649"/>
      <point x="346" y="625" type="curve"/>
      <point x="368" y="655"/>
      <point x="352" y="633"/>
      <point x="373" y="662" type="curve"/>
      <point x="334" y="700"/>
      <point x="293" y="723"/>
      <point x="234" y="723" type="curve"/>
      <point x="135" y="723"/>
      <point x="78" y="656"/>
      <point x="78" y="554" type="curve"/>
      <point x="78" y="457"/>
      <point x="136" y="407"/>
      <point x="218" y="353" type="curve"/>
      <point x="292" y="305"/>
      <point x="346" y="257"/>
      <point x="346" y="176" type="curve"/>
      <point x="346" y="103"/>
      <point x="296" y="44"/>
      <point x="224" y="44" type="curve"/>
      <point x="172" y="44"/>
      <point x="134" y="72"/>
      <point x="102" y="101" type="curve"/>
      <point x="76" y="65"/>
      <point x="96" y="92"/>
    </contour>
    <contour>
      <point x="236" y="812" type="move" name="top"/>
    </contour>
    <contour>
      <point x="240" y="-55" type="move" name="bottom"/>
    </contour>
  </outline>
</glyph>
<glyph name="W" format="1">
  <advance width="762"/>
  <unicode hex="0057"/>
  <outline>
    <contour>
      <point x="114" y="675" type="curve"/>
      <point x="231" y="675"/>
      <point x="107" y="675"/>
      <point x="225" y="675" type="curve"/>
      <point x="225" y="722"/>
      <point x="225" y="675"/>
      <point x="225" y="722" type="curve"/>
      <point x="186" y="722"/>
      <point x="153" y="722"/>
      <point x="114" y="722" type="curve"/>
      <point x="114" y="675"/>
      <point x="114" y="722"/>
    </contour>
    <contour>
      <point x="111" y="722" type="curve"/>
      <point x="71" y="722"/>
      <point x="37" y="722"/>
      <point x="-3" y="722" type="curve"/>
      <point x="-3" y="675"/>
      <point x="-3" y="722"/>
      <point x="-3" y="675" type="curve"/>
      <point x="117" y="675"/>
      <point x="-9" y="675"/>
      <point x="111" y="675" type="curve"/>
      <point x="111" y="722"/>
      <point x="111" y="675"/>
    </contour>
    <contour>
      <point x="636" y="722" type="curve"/>
      <point x="597" y="722"/>
      <point x="564" y="722"/>
      <point x="525" y="722" type="curve"/>
      <point x="525" y="675"/>
      <point x="525" y="722"/>
      <point x="525" y="675" type="curve"/>
      <point x="642" y="675"/>
      <point x="519" y="675"/>
      <point x="636" y="675" type="curve"/>
      <point x="636" y="722"/>
      <point x="636" y="675"/>
    </contour>
    <contour>
      <point x="637" y="675" type="curve"/>
      <point x="757" y="675"/>
      <point x="631" y="675"/>
      <point x="750" y="675" type="curve"/>
      <point x="750" y="722"/>
      <point x="750" y="675"/>
      <point x="750" y="722" type="curve"/>
      <point x="711" y="722"/>
      <point x="677" y="722"/>
      <point x="637" y="722" type="curve"/>
      <point x="637" y="675"/>
      <point x="637" y="722"/>
    </contour>
    <contour>
      <point x="257" y="0" type="curve"/>
      <point x="305" y="241"/>
      <point x="352" y="481"/>
      <point x="400" y="722" type="curve"/>
      <point x="350" y="722"/>
      <point x="401" y="722"/>
      <point x="350" y="722" type="curve"/>
      <point x="305" y="481"/>
      <point x="259" y="242"/>
      <point x="213" y="0" type="curve"/>
      <point x="259" y="0"/>
      <point x="211" y="0"/>
    </contour>
    <contour>
      <point x="356" y="722" type="curve"/>
      <point x="400" y="481"/>
      <point x="442" y="241"/>
      <point x="486" y="0" type="curve"/>
      <point x="531" y="0"/>
      <point x="482" y="0"/>
      <point x="528" y="0" type="curve"/>
      <point x="487" y="242"/>
      <point x="447" y="481"/>
      <point x="406" y="722" type="curve"/>
      <point x="355" y="722"/>
      <point x="407" y="722"/>
    </contour>
    <contour>
      <point x="76" y="722" type="curve"/>
      <point x="120" y="481"/>
      <point x="163" y="241"/>
      <point x="207" y="0" type="curve"/>
      <point x="253" y="0"/>
      <point x="208" y="0"/>
      <point x="254" y="0" type="curve"/>
      <point x="212" y="241"/>
      <point x="170" y="481"/>
      <point x="128" y="722" type="curve"/>
      <point x="76" y="722"/>
      <point x="128" y="722"/>
    </contour>
    <contour>
      <point x="619" y="722" type="curve"/>
      <point x="576" y="481"/>
      <point x="532" y="241"/>
      <point x="489" y="0" type="curve"/>
      <point x="535" y="0"/>
      <point x="490" y="0"/>
      <point x="536" y="0" type="curve"/>
      <point x="581" y="241"/>
      <point x="626" y="481"/>
      <point x="672" y="722" type="curve"/>
      <point x="619" y="722"/>
      <point x="672" y="722"/>
    </contour>
  </outline>
</glyph>
<glyph name="bracketleft" format="1">
  <advance width="250"/>
  <unicode hex="005B"/>
  <outline>
    <contour>
      <point x="210" y="770" type="curve"/>
      <point x="174" y="770"/>
      <point x="138" y="770"/>
      <point x="101" y="770" type="curve"/>
      <point x="95" y="770"/>
      <point x="83" y="770"/>
      <point x="77" y="770" type="curve"/>
      <point x="77" y="764"/>
      <point x="77" y="757"/>
      <point x="77" y="751" type="curve"/>
      <point x="77" y="466"/>
      <point x="77" y="182"/>
      <point x="77" y="-103" type="curve"/>
      <point x="77" y="-109"/>
      <point x="77" y="-113"/>
      <point x="77" y="-121" type="curve"/>
      <point x="83" y="-121"/>
      <point x="95" y="-121"/>
      <point x="100" y="-121" type="curve"/>
      <point x="137" y="-121"/>
      <point x="173" y="-121"/>
      <point x="210" y="-121" type="curve"/>
      <point x="210" y="-69"/>
      <point x="210" y="-121"/>
      <point x="210" y="-69" type="curve"/>
      <point x="173" y="-69"/>
      <point x="137" y="-69"/>
      <point x="100" y="-69" type="curve"/>
      <point x="135" y="-69"/>
      <point x="100" y="-69"/>
      <point x="135" y="-69" type="curve"/>
      <point x="135" y="-103"/>
      <point x="135" y="-69"/>
      <point x="135" y="-103" type="curve"/>
      <point x="135" y="182"/>
      <point x="135" y="466"/>
      <point x="135" y="751" type="curve"/>
      <point x="135" y="719"/>
      <point x="135" y="751"/>
      <point x="135" y="719" type="curve"/>
      <point x="101" y="719"/>
      <point x="135" y="719"/>
      <point x="101" y="719" type="curve"/>
      <point x="138" y="719"/>
      <point x="174" y="719"/>
      <point x="210" y="719" type="curve"/>
      <point x="210" y="770"/>
      <point x="210" y="719"/>
    </contour>
  </outline>
</glyph>
<glyph name="backslash" format="1">
  <advance width="413"/>
  <unicode hex="005C"/>
  <outline>
    <contour>
      <point x="377" y="-68" type="curve"/>
      <point x="284" y="236"/>
      <point x="190" y="540"/>
      <point x="97" y="844" type="curve"/>
      <point x="36" y="844"/>
      <point x="97" y="844"/>
      <point x="36" y="844" type="curve"/>
      <point x="130" y="540"/>
      <point x="223" y="236"/>
      <point x="317" y="-68" type="curve"/>
      <point x="377" y="-68"/>
      <point x="317" y="-68"/>
    </contour>
  </outline>
</glyph>
<glyph name="bracketright" format="1">
  <advance width="251"/>
  <unicode hex="005D"/>
  <outline>
    <contour>
      <point x="41" y="719" type="curve"/>
      <point x="77" y="719"/>
      <point x="114" y="719"/>
      <point x="150" y="719" type="curve"/>
      <point x="145" y="725"/>
      <point x="136" y="726"/>
      <point x="131" y="733" type="curve"/>
      <point x="126" y="738"/>
      <point x="121" y="745"/>
      <point x="117" y="751" type="curve"/>
      <point x="117" y="466"/>
      <point x="116" y="182"/>
      <point x="117" y="-103" type="curve"/>
      <point x="121" y="-96"/>
      <point x="128" y="-90"/>
      <point x="133" y="-84" type="curve"/>
      <point x="138" y="-78"/>
      <point x="146" y="-76"/>
      <point x="151" y="-69" type="curve"/>
      <point x="114" y="-69"/>
      <point x="77" y="-69"/>
      <point x="41" y="-69" type="curve"/>
      <point x="40" y="-121"/>
      <point x="41" y="-69"/>
      <point x="40" y="-121" type="curve"/>
      <point x="77" y="-121"/>
      <point x="114" y="-121"/>
      <point x="151" y="-121" type="curve"/>
      <point x="174" y="-121"/>
      <point x="151" y="-121"/>
      <point x="174" y="-121" type="curve"/>
      <point x="174" y="-103"/>
      <point x="174" y="-121"/>
      <point x="174" y="-103" type="curve"/>
      <point x="174" y="182"/>
      <point x="174" y="466"/>
      <point x="174" y="751" type="curve"/>
      <point x="174" y="770"/>
      <point x="174" y="751"/>
      <point x="174" y="770" type="curve"/>
      <point x="150" y="770"/>
      <point x="174" y="770"/>
      <point x="150" y="770" type="curve"/>
      <point x="114" y="770"/>
      <point x="77" y="770"/>
      <point x="41" y="770" type="curve"/>
      <point x="41" y="719"/>
      <point x="41" y="770"/>
    </contour>
  </outline>
</glyph>
<glyph name="asciicircum" format="1">
  <advance width="437"/>
  <unicode hex="005E"/>
  <outline>
    <contour>
      <point x="122" y="462" type="curve"/>
      <point x="164" y="573"/>
      <point x="206" y="683"/>
      <point x="247" y="794" type="curve"/>
      <point x="189" y="794"/>
      <point x="247" y="794"/>
      <point x="189" y="794" type="curve"/>
      <point x="147" y="683"/>
      <point x="106" y="573"/>
      <point x="65" y="462" type="curve"/>
      <point x="122" y="462"/>
      <point x="65" y="462"/>
    </contour>
    <contour>
      <point x="373" y="462" type="curve"/>
      <point x="332" y="570"/>
      <point x="288" y="686"/>
      <point x="247" y="794" type="curve"/>
      <point x="189" y="794"/>
      <point x="247" y="794"/>
      <point x="189" y="794" type="curve"/>
      <point x="230" y="686"/>
      <point x="274" y="570"/>
      <point x="315" y="462" type="curve"/>
      <point x="373" y="462"/>
      <point x="315" y="462"/>
    </contour>
  </outline>
</glyph>
<glyph name="underscore" format="1">
  <advance width="487"/>
  <unicode hex="005F"/>
  <outline>
    <contour>
      <point x="-1" y="-202" type="curve"/>
      <point x="162" y="-202"/>
      <point x="325" y="-202"/>
      <point x="487" y="-202" type="curve"/>
      <point x="487" y="-155"/>
      <point x="487" y="-202"/>
      <point x="487" y="-155" type="curve"/>
      <point x="325" y="-155"/>
      <point x="162" y="-155"/>
      <point x="-1" y="-155" type="curve"/>
      <point x="-1" y="-202"/>
      <point x="-1" y="-155"/>
    </contour>
  </outline>
</glyph>
<glyph name="grave" format="1">
  <advance width="340"/>
  <unicode hex="0060"/>
  <outline>
    <contour>
      <point x="198" y="590" type="line"/>
      <point x="127" y="756" type="line"/>
      <point x="56" y="756" type="line"/>
      <point x="143" y="590" type="line"/>
    </contour>
    <contour>
      <point x="169" y="590" type="move" name="_top"/>
    </contour>
  </outline>
</glyph>
<glyph name="e" format="1">
  <advance width="446"/>
  <unicode hex="0065"/>
  <outline>
    <contour>
      <point x="89" y="260" type="curve"/>
      <point x="182" y="260"/>
      <point x="275" y="260"/>
      <point x="368" y="260" type="curve"/>
      <point x="389" y="260"/>
      <point x="368" y="260"/>
      <point x="389" y="260" type="curve"/>
      <point x="389" y="275"/>
      <point x="389" y="260"/>
      <point x="389" y="275" type="curve"/>
      <point x="389" y="284"/>
      <point x="389" y="292"/>
      <point x="389" y="300" type="curve"/>
      <point x="389" y="437"/>
      <point x="350" y="538"/>
      <point x="230" y="538" type="curve"/>
      <point x="99" y="538"/>
      <point x="59" y="429"/>
      <point x="59" y="280" type="curve"/>
      <point x="59" y="117"/>
      <point x="102" y="-5"/>
      <point x="243" y="-5" type="curve"/>
      <point x="305" y="-5"/>
      <point x="343" y="25"/>
      <point x="383" y="75" type="curve"/>
      <point x="346" y="107"/>
      <point x="383" y="75"/>
      <point x="346" y="107" type="curve"/>
      <point x="318" y="70"/>
      <point x="287" y="44"/>
      <point x="243" y="44" type="curve"/>
      <point x="137" y="44"/>
      <point x="117" y="150"/>
      <point x="117" y="280" type="curve"/>
      <point x="117" y="395"/>
      <point x="132" y="490"/>
      <point x="227" y="490" type="curve"/>
      <point x="315" y="490"/>
      <point x="334" y="408"/>
      <point x="334" y="304" type="curve"/>
      <point x="334" y="294"/>
      <point x="334" y="285"/>
      <point x="334" y="275" type="curve"/>
      <point x="340" y="281"/>
      <point x="346" y="286"/>
      <point x="351" y="292" type="curve"/>
      <point x="356" y="297"/>
      <point x="363" y="299"/>
      <point x="368" y="305" type="curve"/>
      <point x="275" y="305"/>
      <point x="182" y="305"/>
      <point x="89" y="305" type="curve"/>
      <point x="89" y="258"/>
      <point x="89" y="307"/>
    </contour>
    <contour>
      <point x="230" y="654" type="move" name="top"/>
    </contour>
    <contour>
      <point x="265" y="0" type="move" name="bottom"/>
    </contour>
  </outline>
</glyph>
<glyph name="f" format="1">
  <advance width="364"/>
  <unicode hex="0066"/>
  <outline>
    <contour>
      <point x="305" y="775" type="curve"/>
      <point x="305" y="656"/>
      <point x="305" y="782"/>
      <point x="305" y="663" type="curve"/>
      <point x="351" y="663"/>
      <point x="305" y="663"/>
      <point x="351" y="663" type="curve"/>
      <point x="351" y="782"/>
      <point x="351" y="656"/>
      <point x="351" y="775" type="curve"/>
      <point x="305" y="775"/>
      <point x="351" y="775"/>
    </contour>
    <contour>
      <point x="166" y="0" type="curve"/>
      <point x="207" y="0"/>
      <point x="243" y="0"/>
      <point x="285" y="0" type="curve"/>
      <point x="285" y="47"/>
      <point x="285" y="0"/>
      <point x="285" y="47" type="curve"/>
      <point x="160" y="47"/>
      <point x="291" y="47"/>
      <point x="166" y="47" type="curve"/>
      <point x="166" y="0"/>
      <point x="166" y="47"/>
    </contour>
    <contour>
      <point x="166" y="47" type="curve"/>
      <point x="41" y="47"/>
      <point x="173" y="47"/>
      <point x="48" y="47" type="curve"/>
      <point x="48" y="0"/>
      <point x="48" y="47"/>
      <point x="48" y="0" type="curve"/>
      <point x="89" y="0"/>
      <point x="125" y="0"/>
      <point x="166" y="0" type="curve"/>
      <point x="166" y="47"/>
      <point x="166" y="0"/>
    </contour>
    <contour>
      <point x="34" y="486" type="curve"/>
      <point x="313" y="486" type="line"/>
      <point x="313" y="533"/>
      <point x="313" y="486"/>
      <point x="313" y="533" type="curve"/>
      <point x="34" y="533" type="line"/>
      <point x="34" y="486"/>
      <point x="34" y="533"/>
    </contour>
    <contour>
      <point x="195" y="0" type="curve"/>
      <point x="195" y="630" type="line"/>
      <point x="195" y="700"/>
      <point x="209" y="760"/>
      <point x="267" y="760" type="curve"/>
      <point x="290" y="760"/>
      <point x="310" y="750"/>
      <point x="329" y="738" type="curve"/>
      <point x="351" y="775"/>
      <point x="329" y="738"/>
      <point x="351" y="775" type="curve"/>
      <point x="327" y="792"/>
      <point x="297" y="805"/>
      <point x="267" y="805" type="curve"/>
      <point x="177" y="805"/>
      <point x="136" y="727"/>
      <point x="137" y="630" type="curve"/>
      <point x="137" y="0" type="line"/>
      <point x="195" y="0"/>
      <point x="137" y="0"/>
    </contour>
  </outline>
</glyph>
<glyph name="h" format="1">
  <advance width="515"/>
  <unicode hex="0068"/>
  <outline>
    <contour>
      <point x="392" y="0" type="curve"/>
      <point x="433" y="0"/>
      <point x="469" y="0"/>
      <point x="511" y="0" type="curve"/>
      <point x="511" y="47"/>
      <point x="511" y="0"/>
      <point x="511" y="47" type="curve"/>
      <point x="385" y="47"/>
      <point x="517" y="47"/>
      <point x="392" y="47" type="curve"/>
      <point x="392" y="0"/>
      <point x="392" y="47"/>
    </contour>
    <contour>
      <point x="126" y="0" type="curve"/>
      <point x="162" y="0"/>
      <point x="121" y="0"/>
      <point x="228" y="0" type="curve"/>
      <point x="228" y="47"/>
      <point x="228" y="0"/>
      <point x="228" y="47" type="curve"/>
      <point x="121" y="47"/>
      <point x="233" y="47"/>
      <point x="126" y="47" type="curve"/>
      <point x="126" y="0"/>
      <point x="126" y="47"/>
    </contour>
    <contour>
      <point x="126" y="800" type="curve"/>
      <point x="85" y="800"/>
      <point x="49" y="800"/>
      <point x="7" y="800" type="curve"/>
      <point x="7" y="753"/>
      <point x="7" y="800"/>
      <point x="7" y="753" type="curve"/>
      <point x="133" y="753"/>
      <point x="1" y="753"/>
      <point x="126" y="753" type="curve"/>
      <point x="126" y="800"/>
      <point x="126" y="753"/>
    </contour>
    <contour>
      <point x="126" y="47" type="curve"/>
      <point x="1" y="47"/>
      <point x="133" y="47"/>
      <point x="7" y="47" type="curve"/>
      <point x="7" y="0"/>
      <point x="7" y="47"/>
      <point x="7" y="0" type="curve"/>
      <point x="49" y="0"/>
      <point x="85" y="0"/>
      <point x="126" y="0" type="curve"/>
      <point x="126" y="47"/>
      <point x="126" y="0"/>
    </contour>
    <contour>
      <point x="142" y="338" type="curve"/>
      <point x="156" y="408"/>
      <point x="203" y="490"/>
      <point x="273" y="490" type="curve"/>
      <point x="351" y="490"/>
      <point x="364" y="419"/>
      <point x="364" y="332" type="curve"/>
      <point x="364" y="221"/>
      <point x="364" y="111"/>
      <point x="364" y="0" type="curve"/>
      <point x="421" y="0"/>
      <point x="364" y="0"/>
      <point x="421" y="0" type="curve"/>
      <point x="421" y="112"/>
      <point x="421" y="224"/>
      <point x="421" y="337" type="curve"/>
      <point x="421" y="451"/>
      <point x="392" y="537"/>
      <point x="287" y="537" type="curve"/>
      <point x="201" y="537"/>
      <point x="137" y="453"/>
      <point x="123" y="366" type="curve"/>
      <point x="144" y="340"/>
      <point x="121" y="364"/>
    </contour>
    <contour>
      <point x="155" y="0" type="curve"/>
      <point x="155" y="267"/>
      <point x="155" y="533"/>
      <point x="155" y="800" type="curve"/>
      <point x="97" y="800"/>
      <point x="155" y="800"/>
      <point x="97" y="800" type="curve"/>
      <point x="97" y="533"/>
      <point x="97" y="267"/>
      <point x="97" y="0" type="curve"/>
      <point x="155" y="0"/>
      <point x="97" y="0"/>
    </contour>
  </outline>
</glyph>
<glyph name="i" format="1">
  <advance width="275"/>
  <unicode hex="0069"/>
  <outline>
    <contour>
      <point x="151" y="47" type="curve"/>
      <point x="26" y="47"/>
      <point x="158" y="47"/>
      <point x="32" y="47" type="curve"/>
      <point x="32" y="0"/>
      <point x="32" y="47"/>
      <point x="32" y="0" type="curve"/>
      <point x="73" y="0"/>
      <point x="109" y="0"/>
      <point x="151" y="0" type="curve"/>
      <point x="151" y="47"/>
      <point x="151" y="0"/>
    </contour>
    <contour>
      <point x="151" y="0" type="curve"/>
      <point x="190" y="0"/>
      <point x="223" y="0"/>
      <point x="263" y="0" type="curve"/>
      <point x="263" y="47"/>
      <point x="263" y="0"/>
      <point x="263" y="47" type="curve"/>
      <point x="145" y="47"/>
      <point x="270" y="47"/>
      <point x="151" y="47" type="curve"/>
      <point x="151" y="0"/>
      <point x="151" y="47"/>
    </contour>
    <contour>
      <point x="151" y="533" type="curve"/>
      <point x="109" y="533"/>
      <point x="73" y="533"/>
      <point x="32" y="533" type="curve"/>
      <point x="32" y="486"/>
      <point x="32" y="533"/>
      <point x="32" y="486" type="curve"/>
      <point x="158" y="486"/>
      <point x="25" y="486"/>
      <point x="151" y="486" type="curve"/>
      <point x="151" y="533"/>
      <point x="151" y="486"/>
    </contour>
    <contour>
      <point x="182" y="0" type="curve"/>
      <point x="182" y="178"/>
      <point x="182" y="355"/>
      <point x="182" y="533" type="curve"/>
      <point x="121" y="533"/>
      <point x="182" y="533"/>
      <point x="121" y="533" type="curve"/>
      <point x="121" y="355"/>
      <point x="121" y="178"/>
      <point x="121" y="0" type="curve"/>
      <point x="182" y="0"/>
      <point x="121" y="0"/>
    </contour>
    <contour>
      <point x="182" y="683" type="curve"/>
      <point x="182" y="704"/>
      <point x="168" y="716"/>
      <point x="148" y="716" type="curve"/>
      <point x="128" y="716"/>
      <point x="115" y="703"/>
      <point x="115" y="683" type="curve"/>
      <point x="182" y="683"/>
      <point x="115" y="683"/>
      <point x="182" y="683" type="curve"/>
      <point x="182" y="661"/>
      <point x="169" y="651"/>
      <point x="148" y="651" type="curve"/>
      <point x="128" y="651"/>
      <point x="115" y="662"/>
      <point x="115" y="683" type="curve"/>
      <point x="182" y="683"/>
      <point x="115" y="683"/>
    </contour>
    <contour>
      <point x="149" y="654" type="move" name="top"/>
    </contour>
    <contour>
      <point x="179" y="1" type="move" name="bottom"/>
    </contour>
  </outline>
</glyph>
<glyph name="j" format="1">
  <advance width="250"/>
  <unicode hex="006A"/>
  <outline>
    <contour>
      <point x="129" y="533" type="curve"/>
      <point x="87" y="533"/>
      <point x="51" y="533"/>
      <point x="10" y="533" type="curve"/>
      <point x="10" y="486"/>
      <point x="10" y="533"/>
      <point x="10" y="486" type="curve"/>
      <point x="136" y="486"/>
      <point x="3" y="486"/>
      <point x="129" y="486" type="curve"/>
      <point x="129" y="533"/>
      <point x="129" y="486"/>
    </contour>
    <contour>
      <point x="0" y="-302" type="curve"/>
      <point x="7" y="-303"/>
      <point x="15" y="-304"/>
      <point x="24" y="-304" type="curve"/>
      <point x="110" y="-304"/>
      <point x="159" y="-228"/>
      <point x="159" y="-136" type="curve"/>
      <point x="159" y="87"/>
      <point x="159" y="310"/>
      <point x="159" y="533" type="curve"/>
      <point x="101" y="533"/>
      <point x="159" y="533"/>
      <point x="101" y="533" type="curve"/>
      <point x="101" y="310"/>
      <point x="101" y="87"/>
      <point x="101" y="-136" type="curve"/>
      <point x="101" y="-194"/>
      <point x="79" y="-256"/>
      <point x="26" y="-256" type="curve"/>
      <point x="21" y="-256"/>
      <point x="14" y="-255"/>
      <point x="9" y="-254" type="curve"/>
      <point x="1" y="-299"/>
      <point x="9" y="-257"/>
    </contour>
    <contour>
      <point x="164" y="681" type="curve"/>
      <point x="164" y="703"/>
      <point x="150" y="714"/>
      <point x="130" y="714" type="curve"/>
      <point x="109" y="714"/>
      <point x="97" y="702"/>
      <point x="97" y="681" type="curve"/>
      <point x="164" y="681"/>
      <point x="97" y="681"/>
      <point x="164" y="681" type="curve"/>
      <point x="164" y="660"/>
      <point x="150" y="649"/>
      <point x="130" y="649" type="curve"/>
      <point x="109" y="649"/>
      <point x="97" y="660"/>
      <point x="97" y="681" type="curve"/>
      <point x="164" y="681"/>
      <point x="97" y="681"/>
    </contour>
  </outline>
</glyph>
<glyph name="k" format="1">
  <advance width="478"/>
  <unicode hex="006B"/>
  <outline>
    <contour>
      <point x="126" y="47" type="curve"/>
      <point x="0" y="47"/>
      <point x="132" y="47"/>
      <point x="7" y="47" type="curve"/>
      <point x="7" y="0"/>
      <point x="7" y="47"/>
      <point x="7" y="0" type="curve"/>
      <point x="49" y="0"/>
      <point x="84" y="0"/>
      <point x="126" y="0" type="curve"/>
      <point x="126" y="47"/>
      <point x="126" y="0"/>
    </contour>
    <contour>
      <point x="351" y="0" type="curve"/>
      <point x="389" y="0"/>
      <point x="422" y="0"/>
      <point x="460" y="0" type="curve"/>
      <point x="460" y="47"/>
      <point x="460" y="0"/>
      <point x="460" y="47" type="curve"/>
      <point x="346" y="47"/>
      <point x="466" y="47"/>
      <point x="352" y="47" type="curve"/>
      <point x="352" y="0"/>
      <point x="351" y="47"/>
    </contour>
    <contour>
      <point x="342" y="486" type="curve"/>
      <point x="442" y="486"/>
      <point x="337" y="486"/>
      <point x="436" y="486" type="curve"/>
      <point x="436" y="533"/>
      <point x="436" y="486"/>
      <point x="436" y="533" type="curve"/>
      <point x="403" y="533"/>
      <point x="375" y="533"/>
      <point x="342" y="533" type="curve"/>
      <point x="342" y="486"/>
      <point x="342" y="533"/>
    </contour>
    <contour>
      <point x="126" y="0" type="curve"/>
      <point x="162" y="0"/>
      <point x="120" y="0"/>
      <point x="226" y="0" type="curve"/>
      <point x="226" y="47"/>
      <point x="226" y="0"/>
      <point x="226" y="47" type="curve"/>
      <point x="120" y="47"/>
      <point x="232" y="47"/>
      <point x="126" y="47" type="curve"/>
      <point x="126" y="0"/>
      <point x="126" y="47"/>
    </contour>
    <contour>
      <point x="351" y="533" type="curve"/>
      <point x="306" y="533"/>
      <point x="268" y="533"/>
      <point x="223" y="533" type="curve"/>
      <point x="223" y="486"/>
      <point x="223" y="533"/>
      <point x="223" y="486" type="curve"/>
      <point x="357" y="486"/>
      <point x="217" y="486"/>
      <point x="351" y="486" type="curve"/>
      <point x="351" y="533"/>
      <point x="351" y="486"/>
    </contour>
    <contour>
      <point x="127" y="800" type="curve"/>
      <point x="85" y="800"/>
      <point x="50" y="800"/>
      <point x="8" y="800" type="curve"/>
      <point x="8" y="753"/>
      <point x="8" y="800"/>
      <point x="8" y="753" type="curve"/>
      <point x="134" y="753"/>
      <point x="1" y="753"/>
      <point x="127" y="753" type="curve"/>
      <point x="127" y="800"/>
      <point x="127" y="753"/>
    </contour>
    <contour>
      <point x="155" y="0" type="curve"/>
      <point x="155" y="800" type="line"/>
      <point x="97" y="800"/>
      <point x="155" y="800"/>
      <point x="97" y="800" type="curve"/>
      <point x="97" y="533"/>
      <point x="97" y="267"/>
      <point x="97" y="0" type="curve"/>
      <point x="155" y="0"/>
      <point x="97" y="0"/>
    </contour>
    <contour>
      <point x="327" y="533" type="curve"/>
      <point x="139" y="275" type="line"/>
      <point x="203" y="275"/>
      <point x="136" y="275"/>
      <point x="200" y="275" type="curve"/>
      <point x="383" y="518" type="line"/>
      <point x="325" y="518"/>
      <point x="386" y="533"/>
    </contour>
    <contour>
      <point x="399" y="20" type="curve"/>
      <point x="200" y="275" type="line"/>
      <point x="136" y="275"/>
      <point x="203" y="275"/>
      <point x="139" y="275" type="curve"/>
      <point x="346" y="0" type="line"/>
      <point x="402" y="0"/>
      <point x="343" y="20"/>
    </contour>
    <contour>
      <point x="295" y="-57" type="move" name="bottom"/>
    </contour>
  </outline>
</glyph>
<glyph name="l" format="1">
  <advance width="274"/>
  <unicode hex="006C"/>
  <outline>
    <contour>
      <point x="137" y="47" type="curve"/>
      <point x="11" y="47"/>
      <point x="137" y="47"/>
      <point x="11" y="47" type="curve"/>
      <point x="11" y="0"/>
      <point x="11" y="47"/>
      <point x="11" y="0" type="curve"/>
      <point x="54" y="0"/>
      <point x="95" y="0"/>
      <point x="137" y="0" type="curve"/>
      <point x="137" y="47"/>
      <point x="137" y="0"/>
    </contour>
    <contour>
      <point x="139" y="800" type="curve"/>
      <point x="96" y="800"/>
      <point x="55" y="800"/>
      <point x="12" y="800" type="curve"/>
      <point x="12" y="753"/>
      <point x="12" y="800"/>
      <point x="12" y="753" type="curve"/>
      <point x="139" y="753"/>
      <point x="12" y="753"/>
      <point x="139" y="753" type="curve"/>
      <point x="139" y="800"/>
      <point x="139" y="753"/>
    </contour>
    <contour>
      <point x="137" y="0" type="curve"/>
      <point x="180" y="0"/>
      <point x="222" y="0"/>
      <point x="264" y="0" type="curve"/>
      <point x="264" y="47"/>
      <point x="264" y="0"/>
      <point x="264" y="47" type="curve"/>
      <point x="137" y="47"/>
      <point x="264" y="47"/>
      <point x="137" y="47" type="curve"/>
      <point x="137" y="0"/>
      <point x="137" y="47"/>
    </contour>
    <contour>
      <point x="165" y="0" type="curve"/>
      <point x="165" y="267"/>
      <point x="165" y="533"/>
      <point x="165" y="800" type="curve"/>
      <point x="108" y="800"/>
      <point x="165" y="800"/>
      <point x="108" y="800" type="curve"/>
      <point x="108" y="533"/>
      <point x="108" y="267"/>
      <point x="108" y="0" type="curve"/>
      <point x="165" y="0"/>
      <point x="108" y="0"/>
    </contour>
    <contour>
      <point x="138" y="886" type="move" name="top"/>
    </contour>
    <contour>
      <point x="153" y="-57" type="move" name="bottom"/>
    </contour>
  </outline>
</glyph>
<glyph name="n" format="1">
  <advance width="539"/>
  <unicode hex="006E"/>
  <outline>
    <contour>
      <point x="167" y="318" type="curve"/>
      <point x="177" y="410"/>
      <point x="230" y="490"/>
      <point x="296" y="490" type="curve"/>
      <point x="371" y="490"/>
      <point x="387" y="419"/>
      <point x="387" y="332" type="curve"/>
      <point x="387" y="221"/>
      <point x="387" y="111"/>
      <point x="387" y="0" type="curve"/>
      <point x="445" y="0"/>
      <point x="387" y="0"/>
      <point x="445" y="0" type="curve"/>
      <point x="445" y="112"/>
      <point x="445" y="224"/>
      <point x="445" y="337" type="curve"/>
      <point x="445" y="451"/>
      <point x="418" y="538"/>
      <point x="314" y="538" type="curve"/>
      <point x="227" y="538"/>
      <point x="159" y="461"/>
      <point x="147" y="348" type="curve"/>
      <point x="168" y="321"/>
      <point x="146" y="345"/>
    </contour>
    <contour>
      <point x="415" y="0" type="curve"/>
      <point x="457" y="0"/>
      <point x="493" y="0"/>
      <point x="534" y="0" type="curve"/>
      <point x="534" y="47"/>
      <point x="534" y="0"/>
      <point x="534" y="47" type="curve"/>
      <point x="409" y="47"/>
      <point x="541" y="47"/>
      <point x="415" y="47" type="curve"/>
      <point x="415" y="0"/>
      <point x="415" y="47"/>
    </contour>
    <contour>
      <point x="151" y="47" type="curve"/>
      <point x="25" y="47"/>
      <point x="157" y="47"/>
      <point x="31" y="47" type="curve"/>
      <point x="31" y="0"/>
      <point x="31" y="47"/>
      <point x="31" y="0" type="curve"/>
      <point x="73" y="0"/>
      <point x="109" y="0"/>
      <point x="151" y="0" type="curve"/>
      <point x="151" y="47"/>
      <point x="151" y="0"/>
    </contour>
    <contour>
      <point x="151" y="0" type="curve"/>
      <point x="187" y="0"/>
      <point x="139" y="0"/>
      <point x="250" y="0" type="curve"/>
      <point x="250" y="47"/>
      <point x="250" y="0"/>
      <point x="250" y="47" type="curve"/>
      <point x="139" y="47"/>
      <point x="262" y="47"/>
      <point x="151" y="47" type="curve"/>
      <point x="151" y="0"/>
      <point x="151" y="47"/>
    </contour>
    <contour>
      <point x="180" y="0" type="curve"/>
      <point x="180" y="178"/>
      <point x="180" y="355"/>
      <point x="180" y="533" type="curve"/>
      <point x="122" y="533"/>
      <point x="180" y="533"/>
      <point x="122" y="533" type="curve"/>
      <point x="122" y="355"/>
      <point x="122" y="178"/>
      <point x="122" y="0" type="curve"/>
      <point x="180" y="0"/>
      <point x="122" y="0"/>
    </contour>
    <contour>
      <point x="151" y="533" type="curve"/>
      <point x="109" y="533"/>
      <point x="73" y="533"/>
      <point x="31" y="533" type="curve"/>
      <point x="31" y="486"/>
      <point x="31" y="533"/>
      <point x="31" y="486" type="curve"/>
      <point x="157" y="486"/>
      <point x="25" y="486"/>
      <point x="151" y="486" type="curve"/>
      <point x="151" y="533"/>
      <point x="151" y="486"/>
    </contour>
    <contour>
      <point x="292" y="654" type="move" name="top"/>
    </contour>
    <contour>
      <point x="309" y="-56" type="move" name="bottom"/>
    </contour>
  </outline>
</glyph>
<glyph name="r" format="1">
  <advance width="362"/>
  <unicode hex="0072"/>
  <outline>
    <contour>
      <point x="157" y="0" type="curve"/>
      <point x="196" y="0"/>
      <point x="230" y="0"/>
      <point x="269" y="0" type="curve"/>
      <point x="269" y="47"/>
      <point x="269" y="0"/>
      <point x="269" y="47" type="curve"/>
      <point x="151" y="47"/>
      <point x="276" y="47"/>
      <point x="157" y="47" type="curve"/>
      <point x="157" y="0"/>
      <point x="157" y="47"/>
    </contour>
    <contour>
      <point x="157" y="47" type="curve"/>
      <point x="32" y="47"/>
      <point x="163" y="47"/>
      <point x="38" y="47" type="curve"/>
      <point x="38" y="0"/>
      <point x="38" y="47"/>
      <point x="38" y="0" type="curve"/>
      <point x="79" y="0"/>
      <point x="115" y="0"/>
      <point x="157" y="0" type="curve"/>
      <point x="157" y="47"/>
      <point x="157" y="0"/>
    </contour>
    <contour>
      <point x="157" y="533" type="curve"/>
      <point x="115" y="533"/>
      <point x="79" y="533"/>
      <point x="38" y="533" type="curve"/>
      <point x="38" y="486"/>
      <point x="38" y="533"/>
      <point x="38" y="486" type="curve"/>
      <point x="163" y="486"/>
      <point x="31" y="486"/>
      <point x="157" y="486" type="curve"/>
      <point x="157" y="533"/>
      <point x="157" y="486"/>
    </contour>
    <contour>
      <point x="186" y="0" type="curve"/>
      <point x="186" y="178"/>
      <point x="186" y="355"/>
      <point x="186" y="533" type="curve"/>
      <point x="128" y="533"/>
      <point x="186" y="533"/>
      <point x="128" y="533" type="curve"/>
      <point x="128" y="355"/>
      <point x="128" y="178"/>
      <point x="128" y="0" type="curve"/>
      <point x="186" y="0"/>
      <point x="128" y="0"/>
    </contour>
    <contour>
      <point x="173" y="346" type="curve"/>
      <point x="193" y="440"/>
      <point x="261" y="490"/>
      <point x="335" y="490" type="curve"/>
      <point x="335" y="542"/>
      <point x="335" y="486"/>
      <point x="335" y="538" type="curve"/>
      <point x="247" y="538"/>
      <point x="175" y="473"/>
      <point x="150" y="378" type="curve"/>
      <point x="173" y="353"/>
      <point x="154" y="369"/>
    </contour>
    <contour>
      <point x="162" y="654" type="move" name="top"/>
    </contour>
    <contour>
      <point x="175" y="-57" type="move" name="bottom"/>
    </contour>
  </outline>
</glyph>
<glyph name="s" format="1">
  <advance width="401"/>
  <unicode hex="0073"/>
  <outline>
    <contour>
      <point x="58" y="48" type="curve"/>
      <point x="104" y="16"/>
      <point x="152" y="-5"/>
      <point x="205" y="-5" type="curve"/>
      <point x="296" y="-5"/>
      <point x="345" y="52"/>
      <point x="345" y="140" type="curve"/>
      <point x="344" y="227"/>
      <point x="290" y="266"/>
      <point x="210" y="300" type="curve"/>
      <point x="158" y="323"/>
      <point x="129" y="355"/>
      <point x="129" y="412" type="curve"/>
      <point x="129" y="455"/>
      <point x="152" y="490"/>
      <point x="197" y="490" type="curve"/>
      <point x="233" y="490"/>
      <point x="263" y="474"/>
      <point x="290" y="450" type="curve"/>
      <point x="311" y="484"/>
      <point x="295" y="459"/>
      <point x="316" y="492" type="curve"/>
      <point x="284" y="520"/>
      <point x="244" y="538"/>
      <point x="198" y="538" type="curve"/>
      <point x="122" y="538"/>
      <point x="76" y="487"/>
      <point x="76" y="412" type="curve"/>
      <point x="76" y="331"/>
      <point x="117" y="286"/>
      <point x="192" y="255" type="curve"/>
      <point x="248" y="230"/>
      <point x="290" y="201"/>
      <point x="289" y="137" type="curve"/>
      <point x="289" y="84"/>
      <point x="261" y="44"/>
      <point x="211" y="44" type="curve"/>
      <point x="164" y="44"/>
      <point x="126" y="63"/>
      <point x="87" y="90" type="curve"/>
      <point x="58" y="48"/>
      <point x="87" y="90"/>
    </contour>
    <contour>
      <point x="268" y="492" type="curve"/>
      <point x="268" y="369"/>
      <point x="268" y="499"/>
      <point x="268" y="376" type="curve"/>
      <point x="316" y="376"/>
      <point x="268" y="376"/>
      <point x="316" y="376" type="curve"/>
      <point x="316" y="499"/>
      <point x="316" y="369"/>
      <point x="316" y="492" type="curve"/>
      <point x="278" y="492"/>
      <point x="306" y="492"/>
    </contour>
    <contour>
      <point x="106" y="48" type="curve"/>
      <point x="106" y="173"/>
      <point x="106" y="41"/>
      <point x="106" y="166" type="curve"/>
      <point x="58" y="166"/>
      <point x="106" y="166"/>
      <point x="58" y="166" type="curve"/>
      <point x="58" y="41"/>
      <point x="58" y="173"/>
      <point x="58" y="48" type="curve"/>
      <point x="106" y="48"/>
      <point x="58" y="48"/>
    </contour>
    <contour>
      <point x="203" y="654" type="move" name="top"/>
    </contour>
    <contour>
      <point x="221" y="-57" type="move" name="bottom"/>
    </contour>
  </outline>
</glyph>
<glyph name="t" format="1">
  <advance width="319"/>
  <unicode hex="0074"/>
  <outline>
    <contour>
      <point x="18" y="486" type="curve"/>
      <point x="297" y="486" type="line"/>
      <point x="297" y="533"/>
      <point x="297" y="486"/>
      <point x="297" y="533" type="curve"/>
      <point x="18" y="533" type="line"/>
      <point x="18" y="486"/>
      <point x="18" y="533"/>
    </contour>
    <contour>
      <point x="271" y="68" type="curve"/>
      <point x="253" y="54"/>
      <point x="238" y="45"/>
      <point x="214" y="45" type="curve"/>
      <point x="165" y="45"/>
      <point x="157" y="91"/>
      <point x="157" y="153" type="curve"/>
      <point x="157" y="681" type="line"/>
      <point x="116" y="655"/>
      <point x="139" y="664"/>
      <point x="99" y="638" type="curve"/>
      <point x="99" y="151" type="line"/>
      <point x="99" y="57"/>
      <point x="125" y="-5"/>
      <point x="207" y="-5" type="curve"/>
      <point x="242" y="-5"/>
      <point x="267" y="6"/>
      <point x="296" y="26" type="curve"/>
      <point x="271" y="68"/>
      <point x="296" y="26"/>
    </contour>
    <contour>
      <point x="220" y="-55" type="move" name="bottom"/>
    </contour>
  </outline>
</glyph>
<glyph name="u" format="1">
  <advance width="519"/>
  <unicode hex="0075"/>
  <outline>
    <contour>
      <point x="390" y="533" type="curve"/>
      <point x="349" y="533"/>
      <point x="313" y="533"/>
      <point x="271" y="533" type="curve"/>
      <point x="271" y="486"/>
      <point x="271" y="533"/>
      <point x="271" y="486" type="curve"/>
      <point x="397" y="486"/>
      <point x="265" y="486"/>
      <point x="390" y="486" type="curve"/>
      <point x="390" y="533"/>
      <point x="390" y="486"/>
    </contour>
    <contour>
      <point x="129" y="533" type="curve"/>
      <point x="88" y="533"/>
      <point x="51" y="533"/>
      <point x="10" y="533" type="curve"/>
      <point x="10" y="486"/>
      <point x="10" y="533"/>
      <point x="10" y="486" type="curve"/>
      <point x="136" y="486"/>
      <point x="4" y="486"/>
      <point x="129" y="486" type="curve"/>
      <point x="129" y="533"/>
      <point x="129" y="486"/>
    </contour>
    <contour>
      <point x="390" y="0" type="curve"/>
      <point x="430" y="0"/>
      <point x="463" y="0"/>
      <point x="502" y="0" type="curve"/>
      <point x="502" y="47"/>
      <point x="502" y="0"/>
      <point x="502" y="47" type="curve"/>
      <point x="384" y="47"/>
      <point x="509" y="47"/>
      <point x="390" y="47" type="curve"/>
      <point x="390" y="0"/>
      <point x="390" y="47"/>
    </contour>
    <contour>
      <point x="419" y="0" type="curve"/>
      <point x="419" y="178"/>
      <point x="419" y="355"/>
      <point x="419" y="533" type="curve"/>
      <point x="361" y="533"/>
      <point x="419" y="533"/>
      <point x="361" y="533" type="curve"/>
      <point x="361" y="355"/>
      <point x="361" y="178"/>
      <point x="361" y="0" type="curve"/>
      <point x="419" y="0"/>
      <point x="361" y="0"/>
    </contour>
    <contour>
      <point x="372" y="187" type="curve"/>
      <point x="352" y="119"/>
      <point x="311" y="44"/>
      <point x="254" y="44" type="curve"/>
      <point x="178" y="44"/>
      <point x="158" y="110"/>
      <point x="158" y="196" type="curve"/>
      <point x="158" y="308"/>
      <point x="158" y="421"/>
      <point x="158" y="533" type="curve"/>
      <point x="100" y="533"/>
      <point x="158" y="533"/>
      <point x="100" y="533" type="curve"/>
      <point x="100" y="420"/>
      <point x="100" y="306"/>
      <point x="100" y="193" type="curve"/>
      <point x="100" y="78"/>
      <point x="136" y="-5"/>
      <point x="248" y="-5" type="curve"/>
      <point x="327" y="-5"/>
      <point x="373" y="77"/>
      <point x="397" y="167" type="curve"/>
      <point x="371" y="188"/>
      <point x="397" y="167"/>
    </contour>
    <contour>
      <point x="243" y="654" type="move" name="top"/>
    </contour>
    <contour>
      <point x="420" y="1" type="move" name="bottom"/>
    </contour>
  </outline>
</glyph>
<glyph name="v" format="1">
  <advance width="522"/>
  <unicode hex="0076"/>
  <outline>
    <contour>
      <point x="117" y="533" type="curve"/>
      <point x="78" y="533"/>
      <point x="45" y="533"/>
      <point x="6" y="533" type="curve"/>
      <point x="6" y="486"/>
      <point x="6" y="533"/>
      <point x="6" y="486" type="curve"/>
      <point x="123" y="486"/>
      <point x="0" y="486"/>
      <point x="117" y="486" type="curve"/>
      <point x="117" y="533"/>
      <point x="117" y="486"/>
    </contour>
    <contour>
      <point x="117" y="486" type="curve"/>
      <point x="221" y="486"/>
      <point x="111" y="486"/>
      <point x="215" y="486" type="curve"/>
      <point x="215" y="533"/>
      <point x="215" y="486"/>
      <point x="215" y="533" type="curve"/>
      <point x="180" y="533"/>
      <point x="151" y="533"/>
      <point x="117" y="533" type="curve"/>
      <point x="117" y="486"/>
      <point x="117" y="533"/>
    </contour>
    <contour>
      <point x="415" y="533" type="curve"/>
      <point x="378" y="533"/>
      <point x="347" y="533"/>
      <point x="310" y="533" type="curve"/>
      <point x="310" y="486"/>
      <point x="310" y="533"/>
      <point x="310" y="486" type="curve"/>
      <point x="421" y="486"/>
      <point x="304" y="486"/>
      <point x="415" y="486" type="curve"/>
      <point x="415" y="533"/>
      <point x="415" y="486"/>
    </contour>
    <contour>
      <point x="415" y="486" type="curve"/>
      <point x="524" y="486"/>
      <point x="409" y="486"/>
      <point x="518" y="486" type="curve"/>
      <point x="518" y="533"/>
      <point x="518" y="486"/>
      <point x="518" y="533" type="curve"/>
      <point x="482" y="533"/>
      <point x="451" y="533"/>
      <point x="415" y="533" type="curve"/>
      <point x="415" y="486"/>
      <point x="415" y="533"/>
    </contour>
    <contour>
      <point x="80" y="533" type="curve"/>
      <point x="130" y="355"/>
      <point x="179" y="178"/>
      <point x="229" y="0" type="curve"/>
      <point x="283" y="0"/>
      <point x="229" y="0"/>
      <point x="283" y="0" type="curve"/>
      <point x="235" y="178"/>
      <point x="188" y="355"/>
      <point x="140" y="533" type="curve"/>
      <point x="80" y="533"/>
      <point x="140" y="533"/>
    </contour>
    <contour>
      <point x="393" y="533" type="curve"/>
      <point x="240" y="0" type="line"/>
      <point x="296" y="0"/>
      <point x="240" y="0"/>
      <point x="296" y="0" type="curve"/>
      <point x="348" y="178"/>
      <point x="400" y="355"/>
      <point x="452" y="533" type="curve"/>
      <point x="393" y="533"/>
      <point x="452" y="533"/>
    </contour>
  </outline>
</glyph>
<glyph name="w" format="1">
  <advance width="756"/>
  <unicode hex="0077"/>
  <outline>
    <contour>
      <point x="638" y="486" type="curve"/>
      <point x="758" y="486"/>
      <point x="631" y="486"/>
      <point x="751" y="486" type="curve"/>
      <point x="751" y="533"/>
      <point x="751" y="486"/>
      <point x="751" y="533" type="curve"/>
      <point x="711" y="533"/>
      <point x="677" y="533"/>
      <point x="638" y="533" type="curve"/>
      <point x="638" y="486"/>
      <point x="638" y="533"/>
    </contour>
    <contour>
      <point x="638" y="533" type="curve"/>
      <point x="597" y="533"/>
      <point x="577" y="533"/>
      <point x="537" y="533" type="curve"/>
      <point x="537" y="486"/>
      <point x="537" y="533"/>
      <point x="537" y="486" type="curve"/>
      <point x="657" y="486"/>
      <point x="518" y="486"/>
      <point x="638" y="486" type="curve"/>
      <point x="638" y="533"/>
      <point x="638" y="486"/>
    </contour>
    <contour>
      <point x="119" y="533" type="curve"/>
      <point x="79" y="533"/>
      <point x="45" y="533"/>
      <point x="5" y="533" type="curve"/>
      <point x="5" y="486"/>
      <point x="5" y="533"/>
      <point x="5" y="486" type="curve"/>
      <point x="125" y="486"/>
      <point x="-1" y="486"/>
      <point x="119" y="486" type="curve"/>
      <point x="119" y="533"/>
      <point x="119" y="486"/>
    </contour>
    <contour>
      <point x="119" y="486" type="curve"/>
      <point x="238" y="486"/>
      <point x="106" y="486"/>
      <point x="225" y="486" type="curve"/>
      <point x="225" y="533"/>
      <point x="225" y="486"/>
      <point x="225" y="533" type="curve"/>
      <point x="185" y="533"/>
      <point x="158" y="533"/>
      <point x="119" y="533" type="curve"/>
      <point x="119" y="486"/>
      <point x="119" y="533"/>
    </contour>
    <contour>
      <point x="262" y="0" type="curve"/>
      <point x="311" y="178"/>
      <point x="359" y="355"/>
      <point x="408" y="533" type="curve"/>
      <point x="354" y="533"/>
      <point x="408" y="533"/>
      <point x="354" y="533" type="curve"/>
      <point x="306" y="355"/>
      <point x="259" y="178"/>
      <point x="212" y="0" type="curve"/>
      <point x="262" y="0"/>
      <point x="212" y="0"/>
    </contour>
    <contour>
      <point x="623" y="533" type="curve"/>
      <point x="579" y="355"/>
      <point x="534" y="178"/>
      <point x="490" y="0" type="curve"/>
      <point x="541" y="0"/>
      <point x="490" y="0"/>
      <point x="541" y="0" type="curve"/>
      <point x="586" y="178"/>
      <point x="632" y="355"/>
      <point x="677" y="533" type="curve"/>
      <point x="623" y="533"/>
      <point x="677" y="533"/>
    </contour>
    <contour>
      <point x="359" y="533" type="curve"/>
      <point x="402" y="355"/>
      <point x="445" y="178"/>
      <point x="489" y="0" type="curve"/>
      <point x="540" y="0"/>
      <point x="489" y="0"/>
      <point x="540" y="0" type="curve"/>
      <point x="497" y="178"/>
      <point x="454" y="355"/>
      <point x="411" y="533" type="curve"/>
      <point x="359" y="533"/>
      <point x="411" y="533"/>
    </contour>
    <contour>
      <point x="80" y="533" type="curve"/>
      <point x="124" y="355"/>
      <point x="168" y="178"/>
      <point x="211" y="0" type="curve"/>
      <point x="261" y="0"/>
      <point x="211" y="0"/>
      <point x="261" y="0" type="curve"/>
      <point x="218" y="178"/>
      <point x="176" y="355"/>
      <point x="133" y="533" type="curve"/>
      <point x="80" y="533"/>
      <point x="133" y="533"/>
    </contour>
  </outline>
</glyph>
<glyph name="y" format="1">
  <advance width="563"/>
  <unicode hex="0079"/>
  <outline>
    <contour>
      <point x="189" y="-253" type="curve"/>
      <point x="72" y="-253"/>
      <point x="196" y="-253"/>
      <point x="79" y="-253" type="curve"/>
      <point x="79" y="-300"/>
      <point x="79" y="-253"/>
      <point x="79" y="-300" type="curve"/>
      <point x="118" y="-300"/>
      <point x="150" y="-300"/>
      <point x="189" y="-300" type="curve"/>
      <point x="189" y="-253"/>
      <point x="189" y="-300"/>
    </contour>
    <contour>
      <point x="120" y="533" type="curve"/>
      <point x="81" y="533"/>
      <point x="48" y="533"/>
      <point x="9" y="533" type="curve"/>
      <point x="9" y="486"/>
      <point x="9" y="533"/>
      <point x="9" y="486" type="curve"/>
      <point x="127" y="486"/>
      <point x="2" y="486"/>
      <point x="120" y="486" type="curve"/>
      <point x="120" y="533"/>
      <point x="120" y="486"/>
    </contour>
    <contour>
      <point x="120" y="486" type="curve"/>
      <point x="238" y="486"/>
      <point x="114" y="486"/>
      <point x="232" y="486" type="curve"/>
      <point x="232" y="533"/>
      <point x="232" y="486"/>
      <point x="232" y="533" type="curve"/>
      <point x="192" y="533"/>
      <point x="160" y="533"/>
      <point x="120" y="533" type="curve"/>
      <point x="120" y="486"/>
      <point x="120" y="533"/>
    </contour>
    <contour>
      <point x="448" y="533" type="curve"/>
      <point x="411" y="533"/>
      <point x="379" y="533"/>
      <point x="343" y="533" type="curve"/>
      <point x="343" y="486"/>
      <point x="343" y="533"/>
      <point x="343" y="486" type="curve"/>
      <point x="454" y="486"/>
      <point x="336" y="486"/>
      <point x="448" y="486" type="curve"/>
      <point x="448" y="533"/>
      <point x="448" y="486"/>
    </contour>
    <contour>
      <point x="448" y="486" type="curve"/>
      <point x="562" y="486"/>
      <point x="441" y="486"/>
      <point x="556" y="486" type="curve"/>
      <point x="556" y="533"/>
      <point x="556" y="486"/>
      <point x="556" y="533" type="curve"/>
      <point x="518" y="533"/>
      <point x="486" y="533"/>
      <point x="448" y="533" type="curve"/>
      <point x="448" y="486"/>
      <point x="448" y="533"/>
    </contour>
    <contour>
      <point x="308" y="-2" type="curve"/>
      <point x="291" y="51"/>
      <point x="159" y="480"/>
      <point x="142" y="533" type="curve"/>
      <point x="80" y="533"/>
      <point x="142" y="533"/>
      <point x="80" y="533" type="curve"/>
      <point x="99" y="481"/>
      <point x="236" y="45"/>
      <point x="254" y="-8" type="curve"/>
      <point x="308" y="-8"/>
      <point x="254" y="-2"/>
    </contour>
    <contour>
      <point x="211" y="-300" type="curve"/>
      <point x="240" y="-221"/>
      <point x="458" y="454"/>
      <point x="486" y="533" type="curve"/>
      <point x="426" y="533"/>
      <point x="486" y="533"/>
      <point x="426" y="533" type="curve"/>
      <point x="397" y="454"/>
      <point x="178" y="-221"/>
      <point x="150" y="-300" type="curve"/>
      <point x="211" y="-300"/>
      <point x="150" y="-300"/>
    </contour>
    <contour>
      <point x="296" y="654" type="move" name="top"/>
    </contour>
  </outline>
</glyph>
<glyph name="braceleft" format="1">
  <advance width="249"/>
  <unicode hex="007B"/>
  <outline>
    <contour>
      <point x="203" y="-73" type="curve"/>
      <point x="151" y="-73"/>
      <point x="146" y="-21"/>
      <point x="146" y="37" type="curve"/>
      <point x="146" y="94"/>
      <point x="146" y="151"/>
      <point x="146" y="208" type="curve"/>
      <point x="146" y="294"/>
      <point x="116" y="364"/>
      <point x="37" y="364" type="curve"/>
      <point x="37" y="315"/>
      <point x="37" y="364"/>
      <point x="37" y="315" type="curve"/>
      <point x="85" y="315"/>
      <point x="94" y="267"/>
      <point x="94" y="212" type="curve"/>
      <point x="94" y="155"/>
      <point x="94" y="97"/>
      <point x="94" y="40" type="curve"/>
      <point x="94" y="-50"/>
      <point x="123" y="-119"/>
      <point x="203" y="-119" type="curve"/>
      <point x="203" y="-73"/>
      <point x="203" y="-119"/>
    </contour>
    <contour>
      <point x="203" y="797" type="curve"/>
      <point x="123" y="797"/>
      <point x="94" y="729"/>
      <point x="94" y="640" type="curve"/>
      <point x="94" y="581"/>
      <point x="94" y="523"/>
      <point x="94" y="464" type="curve"/>
      <point x="94" y="409"/>
      <point x="85" y="364"/>
      <point x="37" y="364" type="curve"/>
      <point x="37" y="315"/>
      <point x="37" y="364"/>
      <point x="37" y="315" type="curve"/>
      <point x="116" y="315"/>
      <point x="146" y="383"/>
      <point x="146" y="471" type="curve"/>
      <point x="146" y="527"/>
      <point x="146" y="583"/>
      <point x="146" y="640" type="curve"/>
      <point x="146" y="699"/>
      <point x="151" y="750"/>
      <point x="203" y="750" type="curve"/>
      <point x="203" y="797"/>
      <point x="203" y="750"/>
    </contour>
  </outline>
</glyph>
<glyph name="braceright" format="1">
  <advance width="249"/>
  <unicode hex="007D"/>
  <outline>
    <contour>
      <point x="47" y="-119" type="curve"/>
      <point x="127" y="-119"/>
      <point x="156" y="-50"/>
      <point x="156" y="40" type="curve"/>
      <point x="156" y="97"/>
      <point x="156" y="155"/>
      <point x="156" y="212" type="curve"/>
      <point x="156" y="267"/>
      <point x="164" y="315"/>
      <point x="212" y="315" type="curve"/>
      <point x="212" y="364"/>
      <point x="212" y="315"/>
      <point x="212" y="364" type="curve"/>
      <point x="134" y="364"/>
      <point x="104" y="294"/>
      <point x="104" y="208" type="curve"/>
      <point x="104" y="151"/>
      <point x="104" y="94"/>
      <point x="104" y="37" type="curve"/>
      <point x="104" y="-21"/>
      <point x="98" y="-73"/>
      <point x="47" y="-73" type="curve"/>
      <point x="47" y="-119"/>
      <point x="47" y="-73"/>
    </contour>
    <contour>
      <point x="47" y="750" type="curve"/>
      <point x="99" y="750"/>
      <point x="104" y="699"/>
      <point x="104" y="640" type="curve"/>
      <point x="104" y="583"/>
      <point x="104" y="527"/>
      <point x="104" y="471" type="curve"/>
      <point x="104" y="383"/>
      <point x="133" y="315"/>
      <point x="212" y="315" type="curve"/>
      <point x="212" y="364"/>
      <point x="212" y="315"/>
      <point x="212" y="364" type="curve"/>
      <point x="165" y="364"/>
      <point x="156" y="409"/>
      <point x="156" y="464" type="curve"/>
      <point x="156" y="523"/>
      <point x="156" y="581"/>
      <point x="156" y="640" type="curve"/>
      <point x="156" y="729"/>
      <point x="127" y="797"/>
      <point x="47" y="797" type="curve"/>
      <point x="47" y="750"/>
      <point x="47" y="797"/>
    </contour>
  </outline>
</glyph>
<glyph name="sterling" format="1">
  <advance width="403"/>
  <unicode hex="00A3"/>
  <outline>
    <contour>
      <point x="336" y="47" type="curve"/>
      <point x="238" y="47"/>
      <point x="142" y="47"/>
      <point x="46" y="47" type="curve"/>
      <point x="46" y="0"/>
      <point x="46" y="47"/>
      <point x="46" y="0" type="curve"/>
      <point x="142" y="0"/>
      <point x="240" y="0"/>
      <point x="336" y="0" type="curve"/>
      <point x="336" y="47"/>
      <point x="336" y="0"/>
    </contour>
    <contour>
      <point x="300" y="400" type="curve"/>
      <point x="224" y="400"/>
      <point x="144" y="400"/>
      <point x="68" y="400" type="curve"/>
      <point x="68" y="353"/>
      <point x="68" y="400"/>
      <point x="68" y="353" type="curve"/>
      <point x="144" y="353"/>
      <point x="224" y="353"/>
      <point x="300" y="353" type="curve"/>
      <point x="300" y="400"/>
      <point x="300" y="353"/>
    </contour>
    <contour>
      <point x="352" y="672" type="curve"/>
      <point x="319" y="708"/>
      <point x="291" y="724"/>
      <point x="247" y="724" type="curve"/>
      <point x="97" y="724"/>
      <point x="94" y="560"/>
      <point x="123" y="371" type="curve"/>
      <point x="148" y="205"/>
      <point x="168" y="47"/>
      <point x="46" y="47" type="curve"/>
      <point x="46" y="0"/>
      <point x="46" y="47"/>
      <point x="46" y="0" type="curve"/>
      <point x="213" y="0"/>
      <point x="205" y="180"/>
      <point x="176" y="381" type="curve"/>
      <point x="154" y="534"/>
      <point x="141" y="678"/>
      <point x="243" y="678" type="curve"/>
      <point x="278" y="678"/>
      <point x="298" y="661"/>
      <point x="321" y="639" type="curve"/>
      <point x="352" y="672"/>
      <point x="321" y="639"/>
    </contour>
  </outline>
</glyph>
<glyph name="currency" format="1">
  <advance width="562"/>
  <unicode hex="00A4"/>
  <outline>
    <contour>
      <point x="203" y="312" type="curve"/>
      <point x="203" y="381"/>
      <point x="219" y="442"/>
      <point x="281" y="442" type="curve"/>
      <point x="343" y="442"/>
      <point x="358" y="383"/>
      <point x="358" y="312" type="curve"/>
      <point x="358" y="240"/>
      <point x="345" y="176"/>
      <point x="283" y="176" type="curve"/>
      <point x="218" y="176"/>
      <point x="203" y="238"/>
      <point x="203" y="312" type="curve"/>
      <point x="145" y="312"/>
      <point x="205" y="312"/>
      <point x="147" y="312" type="curve"/>
      <point x="147" y="208"/>
      <point x="188" y="130"/>
      <point x="282" y="130" type="curve"/>
      <point x="377" y="130"/>
      <point x="415" y="211"/>
      <point x="415" y="314" type="curve"/>
      <point x="415" y="412"/>
      <point x="375" y="488"/>
      <point x="285" y="488" type="curve"/>
      <point x="191" y="488"/>
      <point x="147" y="413"/>
      <point x="147" y="312" type="curve"/>
      <point x="205" y="312"/>
      <point x="145" y="312"/>
    </contour>
    <contour>
      <point x="356" y="404" type="line"/>
      <point x="498" y="540" type="line"/>
      <point x="454" y="584" type="line"/>
      <point x="319" y="441" type="line"/>
    </contour>
    <contour>
      <point x="322" y="184" type="line"/>
      <point x="458" y="41" type="line"/>
      <point x="501" y="85" type="line"/>
      <point x="359" y="220" type="line"/>
    </contour>
    <contour>
      <point x="203" y="221" type="line"/>
      <point x="60" y="85" type="line"/>
      <point x="104" y="42" type="line"/>
      <point x="239" y="184" type="line"/>
    </contour>
    <contour>
      <point x="244" y="442" type="line"/>
      <point x="109" y="585" type="line"/>
      <point x="65" y="541" type="line"/>
      <point x="208" y="405" type="line"/>
    </contour>
  </outline>
</glyph>
<glyph name="yen" format="1">
  <advance width="615"/>
  <unicode hex="00A5"/>
  <outline>
    <contour>
      <point x="466" y="385" type="curve"/>
      <point x="415" y="385"/>
      <point x="365" y="385"/>
      <point x="315" y="385" type="curve"/>
      <point x="315" y="333"/>
      <point x="315" y="385"/>
      <point x="315" y="333" type="curve"/>
      <point x="365" y="333"/>
      <point x="415" y="333"/>
      <point x="466" y="333" type="curve"/>
      <point x="466" y="385"/>
      <point x="466" y="333"/>
    </contour>
    <contour>
      <point x="295" y="385" type="curve"/>
      <point x="245" y="385"/>
      <point x="196" y="385"/>
      <point x="147" y="385" type="curve"/>
      <point x="147" y="333"/>
      <point x="147" y="385"/>
      <point x="147" y="333" type="curve"/>
      <point x="196" y="333"/>
      <point x="245" y="333"/>
      <point x="295" y="333" type="curve"/>
      <point x="295" y="385"/>
      <point x="295" y="333"/>
    </contour>
    <contour>
      <point x="466" y="259" type="curve"/>
      <point x="359" y="259"/>
      <point x="253" y="259"/>
      <point x="147" y="259" type="curve"/>
      <point x="147" y="207"/>
      <point x="147" y="259"/>
      <point x="147" y="207" type="curve"/>
      <point x="253" y="207"/>
      <point x="359" y="207"/>
      <point x="466" y="207" type="curve"/>
      <point x="466" y="259"/>
      <point x="466" y="207"/>
    </contour>
    <contour>
      <point x="302" y="47" type="curve"/>
      <point x="177" y="47"/>
      <point x="309" y="47"/>
      <point x="183" y="47" type="curve"/>
      <point x="183" y="0"/>
      <point x="183" y="47"/>
      <point x="183" y="0" type="curve"/>
      <point x="224" y="0"/>
      <point x="260" y="0"/>
      <point x="302" y="0" type="curve"/>
      <point x="302" y="47"/>
      <point x="302" y="0"/>
    </contour>
    <contour>
      <point x="302" y="0" type="curve"/>
      <point x="344" y="0"/>
      <point x="380" y="0"/>
      <point x="421" y="0" type="curve"/>
      <point x="421" y="47"/>
      <point x="421" y="0"/>
      <point x="421" y="47" type="curve"/>
      <point x="296" y="47"/>
      <point x="428" y="47"/>
      <point x="302" y="47" type="curve"/>
      <point x="302" y="0"/>
      <point x="302" y="47"/>
    </contour>
    <contour>
      <point x="465" y="722" type="curve"/>
      <point x="424" y="722"/>
      <point x="389" y="722"/>
      <point x="349" y="722" type="curve"/>
      <point x="349" y="675"/>
      <point x="349" y="722"/>
      <point x="349" y="675" type="curve"/>
      <point x="471" y="675"/>
      <point x="342" y="675"/>
      <point x="465" y="675" type="curve"/>
      <point x="465" y="722"/>
      <point x="465" y="675"/>
    </contour>
    <contour>
      <point x="143" y="722" type="curve"/>
      <point x="105" y="722"/>
      <point x="72" y="722"/>
      <point x="34" y="722" type="curve"/>
      <point x="34" y="675"/>
      <point x="34" y="722"/>
      <point x="34" y="675" type="curve"/>
      <point x="149" y="675"/>
      <point x="28" y="675"/>
      <point x="143" y="675" type="curve"/>
      <point x="143" y="722"/>
      <point x="143" y="675"/>
    </contour>
    <contour>
      <point x="149" y="675" type="curve"/>
      <point x="271" y="675"/>
      <point x="142" y="675"/>
      <point x="265" y="675" type="curve"/>
      <point x="265" y="722"/>
      <point x="265" y="675"/>
      <point x="265" y="722" type="curve"/>
      <point x="224" y="722"/>
      <point x="189" y="722"/>
      <point x="149" y="722" type="curve"/>
      <point x="149" y="675"/>
      <point x="149" y="722"/>
    </contour>
    <contour>
      <point x="471" y="675" type="curve"/>
      <point x="588" y="675"/>
      <point x="464" y="675"/>
      <point x="581" y="675" type="curve"/>
      <point x="581" y="722"/>
      <point x="581" y="675"/>
      <point x="581" y="722" type="curve"/>
      <point x="543" y="722"/>
      <point x="509" y="722"/>
      <point x="471" y="722" type="curve"/>
      <point x="471" y="675"/>
      <point x="471" y="722"/>
    </contour>
    <contour>
      <point x="104" y="722" type="curve"/>
      <point x="160" y="594"/>
      <point x="215" y="466"/>
      <point x="271" y="337" type="curve"/>
      <point x="330" y="337"/>
      <point x="264" y="337"/>
      <point x="324" y="337" type="curve"/>
      <point x="271" y="466"/>
      <point x="218" y="593"/>
      <point x="164" y="722" type="curve"/>
      <point x="104" y="722"/>
      <point x="164" y="722"/>
    </contour>
    <contour>
      <point x="449" y="722" type="curve"/>
      <point x="392" y="593"/>
      <point x="336" y="466"/>
      <point x="277" y="337" type="curve"/>
      <point x="337" y="337"/>
      <point x="274" y="337"/>
      <point x="334" y="337" type="curve"/>
      <point x="392" y="466"/>
      <point x="450" y="594"/>
      <point x="509" y="722" type="curve"/>
      <point x="449" y="722"/>
      <point x="509" y="722"/>
    </contour>
    <contour>
      <point x="334" y="0" type="curve"/>
      <point x="334" y="115"/>
      <point x="334" y="228"/>
      <point x="334" y="343" type="curve"/>
      <point x="271" y="343"/>
      <point x="334" y="343"/>
      <point x="271" y="343" type="curve"/>
      <point x="271" y="228"/>
      <point x="271" y="115"/>
      <point x="271" y="0" type="curve"/>
      <point x="334" y="0"/>
      <point x="271" y="0"/>
    </contour>
  </outline>
</glyph>
<glyph name="brokenbar" format="1">
  <advance width="235"/>
  <unicode hex="00A6"/>
  <outline>
    <contour>
      <point x="146" y="-300" type="curve"/>
      <point x="146" y="-176"/>
      <point x="146" y="-52"/>
      <point x="146" y="72" type="curve"/>
      <point x="89" y="72"/>
      <point x="146" y="72"/>
      <point x="89" y="72" type="curve"/>
      <point x="89" y="-52"/>
      <point x="89" y="-176"/>
      <point x="89" y="-300" type="curve"/>
      <point x="146" y="-300"/>
      <point x="89" y="-300"/>
    </contour>
    <contour>
      <point x="146" y="428" type="curve"/>
      <point x="146" y="552"/>
      <point x="146" y="676"/>
      <point x="146" y="800" type="curve"/>
      <point x="89" y="800"/>
      <point x="146" y="800"/>
      <point x="89" y="800" type="curve"/>
      <point x="89" y="676"/>
      <point x="89" y="552"/>
      <point x="89" y="428" type="curve"/>
      <point x="146" y="428"/>
      <point x="89" y="428"/>
    </contour>
  </outline>
</glyph>
<glyph name="section" format="1">
  <advance width="412"/>
  <unicode hex="00A7"/>
  <outline>
    <contour>
      <point x="322" y="706" type="curve"/>
      <point x="284" y="735"/>
      <point x="255" y="751"/>
      <point x="209" y="751" type="curve"/>
      <point x="130" y="751"/>
      <point x="87" y="696"/>
      <point x="87" y="618" type="curve"/>
      <point x="87" y="547"/>
      <point x="120" y="499"/>
      <point x="185" y="468" type="curve"/>
      <point x="243" y="441"/>
      <point x="296" y="421"/>
      <point x="296" y="361" type="curve"/>
      <point x="296" y="302"/>
      <point x="272" y="259"/>
      <point x="216" y="243" type="curve"/>
      <point x="250" y="206"/>
      <point x="216" y="243"/>
      <point x="250" y="206" type="curve"/>
      <point x="323" y="229"/>
      <point x="354" y="284"/>
      <point x="354" y="361" type="curve"/>
      <point x="353" y="443"/>
      <point x="292" y="479"/>
      <point x="214" y="512" type="curve"/>
      <point x="168" y="534"/>
      <point x="142" y="567"/>
      <point x="142" y="618" type="curve"/>
      <point x="142" y="665"/>
      <point x="161" y="704"/>
      <point x="208" y="704" type="curve"/>
      <point x="245" y="704"/>
      <point x="266" y="690"/>
      <point x="293" y="670" type="curve"/>
      <point x="322" y="706"/>
      <point x="293" y="670"/>
    </contour>
    <contour>
      <point x="162" y="517" type="curve"/>
      <point x="95" y="489"/>
      <point x="62" y="440"/>
      <point x="62" y="367" type="curve"/>
      <point x="62" y="287"/>
      <point x="114" y="245"/>
      <point x="189" y="213" type="curve"/>
      <point x="238" y="189"/>
      <point x="277" y="163"/>
      <point x="277" y="109" type="curve"/>
      <point x="277" y="58"/>
      <point x="255" y="18"/>
      <point x="208" y="18" type="curve"/>
      <point x="165" y="18"/>
      <point x="141" y="37"/>
      <point x="110" y="66" type="curve"/>
      <point x="77" y="32"/>
      <point x="110" y="66"/>
      <point x="77" y="32" type="curve"/>
      <point x="117" y="-9"/>
      <point x="153" y="-29"/>
      <point x="207" y="-29" type="curve"/>
      <point x="286" y="-29"/>
      <point x="333" y="26"/>
      <point x="333" y="109" type="curve"/>
      <point x="332" y="182"/>
      <point x="293" y="227"/>
      <point x="225" y="257" type="curve"/>
      <point x="168" y="283"/>
      <point x="120" y="308"/>
      <point x="120" y="367" type="curve"/>
      <point x="120" y="421"/>
      <point x="141" y="461"/>
      <point x="191" y="482" type="curve"/>
      <point x="162" y="517"/>
      <point x="191" y="482"/>
    </contour>
    <contour>
      <point x="124" y="32" type="curve"/>
      <point x="124" y="152"/>
      <point x="124" y="31"/>
      <point x="124" y="151" type="curve"/>
      <point x="77" y="151"/>
      <point x="124" y="151"/>
      <point x="77" y="151" type="curve"/>
      <point x="77" y="31"/>
      <point x="77" y="152"/>
      <point x="77" y="32" type="curve"/>
      <point x="124" y="32"/>
      <point x="77" y="32"/>
    </contour>
    <contour>
      <point x="322" y="587" type="curve"/>
      <point x="322" y="707"/>
      <point x="322" y="586"/>
      <point x="322" y="706" type="curve"/>
      <point x="274" y="706"/>
      <point x="322" y="706"/>
      <point x="274" y="706" type="curve"/>
      <point x="274" y="586"/>
      <point x="274" y="707"/>
      <point x="274" y="587" type="curve"/>
      <point x="322" y="587"/>
      <point x="274" y="587"/>
    </contour>
  </outline>
</glyph>
<glyph name="dieresis" format="1">
  <advance width="340"/>
  <unicode hex="00A8"/>
  <outline>
    <contour>
      <point x="111" y="669" type="curve"/>
      <point x="111" y="691"/>
      <point x="97" y="702"/>
      <point x="77" y="702" type="curve"/>
      <point x="57" y="702"/>
      <point x="44" y="689"/>
      <point x="44" y="669" type="curve"/>
      <point x="111" y="669"/>
      <point x="44" y="669"/>
      <point x="111" y="669" type="curve"/>
      <point x="111" y="648"/>
      <point x="98" y="637"/>
      <point x="77" y="637" type="curve"/>
      <point x="57" y="637"/>
      <point x="44" y="648"/>
      <point x="44" y="669" type="curve"/>
      <point x="111" y="669"/>
      <point x="44" y="669"/>
    </contour>
    <contour>
      <point x="228" y="669" type="curve"/>
      <point x="228" y="691"/>
      <point x="214" y="702"/>
      <point x="194" y="702" type="curve"/>
      <point x="174" y="702"/>
      <point x="161" y="689"/>
      <point x="161" y="669" type="curve"/>
      <point x="228" y="669"/>
      <point x="161" y="669"/>
      <point x="228" y="669" type="curve"/>
      <point x="228" y="648"/>
      <point x="214" y="637"/>
      <point x="194" y="637" type="curve"/>
      <point x="173" y="637"/>
      <point x="161" y="648"/>
      <point x="161" y="669" type="curve"/>
      <point x="228" y="669"/>
      <point x="161" y="669"/>
    </contour>
    <contour>
      <point x="136" y="641" type="move" name="_top"/>
    </contour>
  </outline>
</glyph>
<glyph name="guillemotleft" format="1">
  <advance width="494"/>
  <unicode hex="00AB"/>
  <outline>
    <contour>
      <point x="242" y="425" type="curve"/>
      <point x="230" y="415"/>
      <point x="78" y="318"/>
      <point x="66" y="308" type="curve"/>
      <point x="66" y="256"/>
      <point x="66" y="302"/>
      <point x="66" y="250" type="curve"/>
      <point x="78" y="260"/>
      <point x="230" y="361"/>
      <point x="242" y="371" type="curve"/>
      <point x="242" y="422"/>
      <point x="242" y="374"/>
    </contour>
    <contour>
      <point x="242" y="188" type="curve"/>
      <point x="231" y="198"/>
      <point x="78" y="298"/>
      <point x="66" y="308" type="curve"/>
      <point x="66" y="256"/>
      <point x="66" y="302"/>
      <point x="66" y="250" type="curve"/>
      <point x="78" y="241"/>
      <point x="231" y="144"/>
      <point x="242" y="135" type="curve"/>
      <point x="242" y="185"/>
      <point x="242" y="137"/>
    </contour>
    <contour>
      <point x="407" y="425" type="curve"/>
      <point x="395" y="415"/>
      <point x="243" y="318"/>
      <point x="231" y="308" type="curve"/>
      <point x="231" y="256"/>
      <point x="231" y="302"/>
      <point x="231" y="250" type="curve"/>
      <point x="243" y="260"/>
      <point x="395" y="361"/>
      <point x="407" y="371" type="curve"/>
      <point x="407" y="422"/>
      <point x="407" y="374"/>
    </contour>
    <contour>
      <point x="408" y="188" type="curve"/>
      <point x="396" y="198"/>
      <point x="243" y="298"/>
      <point x="231" y="308" type="curve"/>
      <point x="231" y="256"/>
      <point x="231" y="302"/>
      <point x="231" y="250" type="curve"/>
      <point x="243" y="241"/>
      <point x="396" y="144"/>
      <point x="408" y="135" type="curve"/>
      <point x="408" y="185"/>
      <point x="408" y="137"/>
    </contour>
  </outline>
</glyph>
<glyph name="logicalnot" format="1">
  <advance width="597"/>
  <unicode hex="00AC"/>
  <outline>
    <contour>
      <point x="98" y="285" type="curve"/>
      <point x="515" y="285" type="line"/>
      <point x="515" y="337"/>
      <point x="515" y="285"/>
      <point x="515" y="337" type="curve"/>
      <point x="98" y="337" type="line"/>
      <point x="98" y="285"/>
      <point x="98" y="337"/>
    </contour>
    <contour>
      <point x="515" y="149" type="curve"/>
      <point x="515" y="337" type="line"/>
      <point x="458" y="337"/>
      <point x="516" y="337"/>
      <point x="458" y="337" type="curve"/>
      <point x="458" y="149" type="line"/>
      <point x="516" y="149"/>
      <point x="458" y="149"/>
    </contour>
  </outline>
</glyph>
<glyph name="registered" format="1">
  <advance width="609"/>
  <unicode hex="00AE"/>
  <outline>
    <contour>
      <point x="106" y="320" type="curve"/>
      <point x="106" y="478"/>
      <point x="165" y="608"/>
      <point x="308" y="608" type="curve"/>
      <point x="448" y="608"/>
      <point x="505" y="476"/>
      <point x="505" y="319" type="curve"/>
      <point x="505" y="165"/>
      <point x="450" y="35"/>
      <point x="313" y="35" type="curve"/>
      <point x="171" y="35"/>
      <point x="106" y="162"/>
      <point x="106" y="320" type="curve"/>
      <point x="78" y="320"/>
      <point x="89" y="320"/>
      <point x="61" y="320" type="curve"/>
      <point x="61" y="140"/>
      <point x="144" y="-2"/>
      <point x="310" y="-2" type="curve"/>
      <point x="474" y="-2"/>
      <point x="548" y="142"/>
      <point x="548" y="320" type="curve"/>
      <point x="548" y="501"/>
      <point x="472" y="645"/>
      <point x="308" y="645" type="curve"/>
      <point x="141" y="645"/>
      <point x="61" y="501"/>
      <point x="61" y="320" type="curve"/>
      <point x="89" y="320"/>
      <point x="78" y="320"/>
    </contour>
    <contour>
      <point x="372" y="147" type="curve"/>
      <point x="394" y="147"/>
      <point x="408" y="147"/>
      <point x="430" y="147" type="curve"/>
      <point x="430" y="187"/>
      <point x="430" y="147"/>
      <point x="430" y="187" type="curve"/>
      <point x="420" y="187"/>
      <point x="411" y="187"/>
      <point x="401" y="187" type="curve"/>
      <point x="365" y="147"/>
      <point x="408" y="187"/>
    </contour>
    <contour>
      <point x="278" y="496" type="curve"/>
      <point x="250" y="496"/>
      <point x="222" y="496"/>
      <point x="193" y="496" type="curve"/>
      <point x="193" y="455"/>
      <point x="193" y="496"/>
      <point x="193" y="455" type="curve"/>
      <point x="205" y="455"/>
      <point x="217" y="455"/>
      <point x="228" y="455" type="curve"/>
      <point x="278" y="496"/>
      <point x="228" y="455"/>
    </contour>
    <contour>
      <point x="278" y="187" type="curve"/>
      <point x="250" y="187"/>
      <point x="222" y="187"/>
      <point x="193" y="187" type="curve"/>
      <point x="193" y="147"/>
      <point x="193" y="187"/>
      <point x="193" y="147" type="curve"/>
      <point x="205" y="147"/>
      <point x="217" y="147"/>
      <point x="228" y="147" type="curve"/>
      <point x="278" y="187"/>
      <point x="228" y="147"/>
    </contour>
    <contour>
      <point x="228" y="147" type="curve"/>
      <point x="254" y="147"/>
      <point x="279" y="147"/>
      <point x="305" y="147" type="curve"/>
      <point x="305" y="187"/>
      <point x="305" y="147"/>
      <point x="305" y="187" type="curve"/>
      <point x="296" y="187"/>
      <point x="287" y="187"/>
      <point x="278" y="187" type="curve"/>
      <point x="228" y="147"/>
      <point x="278" y="187"/>
    </contour>
    <contour>
      <point x="300" y="312" type="curve"/>
      <point x="315" y="274"/>
      <point x="356" y="185"/>
      <point x="372" y="147" type="curve"/>
      <point x="408" y="187"/>
      <point x="365" y="147"/>
      <point x="401" y="187" type="curve"/>
      <point x="388" y="219"/>
      <point x="361" y="276"/>
      <point x="348" y="311" type="curve"/>
      <point x="289" y="310"/>
      <point x="358" y="313"/>
    </contour>
    <contour>
      <point x="275" y="187" type="curve"/>
      <point x="275" y="290"/>
      <point x="275" y="393"/>
      <point x="275" y="496" type="curve"/>
      <point x="224" y="455"/>
      <point x="278" y="496"/>
      <point x="228" y="455" type="curve"/>
      <point x="228" y="352"/>
      <point x="228" y="249"/>
      <point x="228" y="147" type="curve"/>
      <point x="278" y="187"/>
      <point x="224" y="147"/>
    </contour>
    <contour>
      <point x="255" y="288" type="curve"/>
      <point x="268" y="288"/>
      <point x="283" y="288"/>
      <point x="297" y="288" type="curve"/>
      <point x="361" y="288"/>
      <point x="398" y="324"/>
      <point x="398" y="392" type="curve"/>
      <point x="398" y="453"/>
      <point x="366" y="496"/>
      <point x="308" y="496" type="curve"/>
      <point x="298" y="496"/>
      <point x="288" y="496"/>
      <point x="278" y="496" type="curve"/>
      <point x="228" y="455"/>
      <point x="278" y="496"/>
      <point x="228" y="455" type="curve"/>
      <point x="251" y="455"/>
      <point x="275" y="455"/>
      <point x="299" y="455" type="curve"/>
      <point x="334" y="455"/>
      <point x="352" y="428"/>
      <point x="352" y="389" type="curve"/>
      <point x="352" y="352"/>
      <point x="337" y="328"/>
      <point x="304" y="328" type="curve"/>
      <point x="287" y="328"/>
      <point x="270" y="328"/>
      <point x="255" y="328" type="curve"/>
      <point x="255" y="288"/>
      <point x="255" y="328"/>
    </contour>
  </outline>
</glyph>
<glyph name="macron" format="1">
  <advance width="272"/>
  <unicode hex="00AF"/>
  <outline>
    <contour>
      <point x="185" y="681" type="curve"/>
      <point x="132" y="681"/>
      <point x="78" y="681"/>
      <point x="25" y="681" type="curve"/>
      <point x="25" y="635"/>
      <point x="25" y="681"/>
      <point x="25" y="635" type="curve"/>
      <point x="78" y="635"/>
      <point x="132" y="635"/>
      <point x="185" y="635" type="curve"/>
      <point x="185" y="681"/>
      <point x="185" y="635"/>
    </contour>
    <contour>
      <point x="106" y="635" type="move" name="_top"/>
    </contour>
  </outline>
</glyph>
<glyph name="degree" format="1">
  <advance width="394"/>
  <unicode hex="00B0"/>
  <outline>
    <contour>
      <point x="328" y="486" type="curve"/>
      <point x="328" y="595"/>
      <point x="295" y="682"/>
      <point x="196" y="682" type="curve"/>
      <point x="98" y="682"/>
      <point x="65" y="596"/>
      <point x="65" y="487" type="curve"/>
      <point x="94" y="487"/>
      <point x="86" y="487"/>
      <point x="114" y="487" type="curve"/>
      <point x="114" y="568"/>
      <point x="124" y="638"/>
      <point x="194" y="638" type="curve"/>
      <point x="265" y="638"/>
      <point x="278" y="568"/>
      <point x="278" y="486" type="curve"/>
      <point x="278" y="401"/>
      <point x="269" y="329"/>
      <point x="197" y="329" type="curve"/>
      <point x="124" y="329"/>
      <point x="114" y="403"/>
      <point x="114" y="487" type="curve"/>
      <point x="86" y="487"/>
      <point x="94" y="487"/>
      <point x="65" y="487" type="curve"/>
      <point x="65" y="374"/>
      <point x="95" y="285"/>
      <point x="196" y="285" type="curve"/>
      <point x="297" y="285"/>
      <point x="328" y="374"/>
    </contour>
  </outline>
</glyph>
<glyph name="twosuperior" format="1">
  <advance width="397"/>
  <unicode hex="00B2"/>
  <outline>
    <contour>
      <point x="321" y="313" type="curve"/>
      <point x="321" y="353"/>
      <point x="321" y="370"/>
      <point x="321" y="411" type="curve"/>
      <point x="276" y="411"/>
      <point x="327" y="411"/>
      <point x="282" y="411" type="curve"/>
      <point x="282" y="385"/>
      <point x="282" y="380"/>
      <point x="282" y="354" type="curve"/>
      <point x="327" y="313"/>
      <point x="276" y="354"/>
    </contour>
    <contour>
      <point x="73" y="313" type="curve"/>
      <point x="155" y="313"/>
      <point x="244" y="313"/>
      <point x="321" y="313" type="curve"/>
      <point x="276" y="354"/>
      <point x="327" y="313"/>
      <point x="282" y="354" type="curve"/>
      <point x="214" y="354"/>
      <point x="141" y="354"/>
      <point x="73" y="354" type="curve"/>
      <point x="73" y="313"/>
      <point x="73" y="354"/>
    </contour>
    <contour>
      <point x="132" y="624" type="curve"/>
      <point x="145" y="661"/>
      <point x="160" y="692"/>
      <point x="200" y="692" type="curve"/>
      <point x="243" y="692"/>
      <point x="261" y="655"/>
      <point x="261" y="607" type="curve"/>
      <point x="261" y="562"/>
      <point x="239" y="534"/>
      <point x="210" y="500" type="curve"/>
      <point x="165" y="451"/>
      <point x="119" y="402"/>
      <point x="73" y="354" type="curve"/>
      <point x="81" y="313"/>
      <point x="73" y="354"/>
      <point x="81" y="313" type="curve"/>
      <point x="134" y="365"/>
      <point x="193" y="416"/>
      <point x="242" y="468" type="curve"/>
      <point x="280" y="513"/>
      <point x="308" y="549"/>
      <point x="308" y="609" type="curve"/>
      <point x="308" y="681"/>
      <point x="270" y="733"/>
      <point x="202" y="733" type="curve"/>
      <point x="146" y="733"/>
      <point x="112" y="701"/>
      <point x="94" y="639" type="curve"/>
      <point x="132" y="624"/>
      <point x="94" y="639"/>
    </contour>
    <contour>
      <point x="213" y="733" type="move" name="_top"/>
    </contour>
    <contour>
      <point x="190" y="313" type="move" name="_bottom"/>
    </contour>
  </outline>
</glyph>
<glyph name="threesuperior" format="1">
  <advance width="359"/>
  <unicode hex="00B3"/>
  <outline>
    <contour>
      <point x="108" y="652" type="curve"/>
      <point x="122" y="672"/>
      <point x="140" y="691"/>
      <point x="166" y="691" type="curve"/>
      <point x="207" y="691"/>
      <point x="229" y="661"/>
      <point x="229" y="618" type="curve"/>
      <point x="229" y="572"/>
      <point x="187" y="545"/>
      <point x="136" y="541" type="curve"/>
      <point x="136" y="506"/>
      <point x="136" y="541"/>
      <point x="136" y="506" type="curve"/>
      <point x="217" y="509"/>
      <point x="278" y="547"/>
      <point x="278" y="621" type="curve"/>
      <point x="278" y="689"/>
      <point x="238" y="732"/>
      <point x="171" y="732" type="curve" name=""/>
      <point x="132" y="732"/>
      <point x="97" y="708"/>
      <point x="76" y="677" type="curve"/>
      <point x="108" y="652"/>
      <point x="76" y="677"/>
    </contour>
    <contour>
      <point x="74" y="342" type="curve"/>
      <point x="99" y="320"/>
      <point x="127" y="308"/>
      <point x="160" y="308" type="curve"/>
      <point x="239" y="305"/>
      <point x="290" y="349"/>
      <point x="289" y="426" type="curve"/>
      <point x="289" y="503"/>
      <point x="220" y="530"/>
      <point x="136" y="533" type="curve"/>
      <point x="136" y="503"/>
      <point x="136" y="533"/>
      <point x="136" y="503" type="curve"/>
      <point x="195" y="499"/>
      <point x="240" y="473"/>
      <point x="240" y="424" type="curve"/>
      <point x="239" y="377"/>
      <point x="212" y="346"/>
      <point x="165" y="348" type="curve"/>
      <point x="140" y="348"/>
      <point x="118" y="357"/>
      <point x="98" y="372" type="curve"/>
      <point x="74" y="342"/>
      <point x="98" y="372"/>
    </contour>
    <contour>
      <point x="190" y="732" type="move" name="_top"/>
    </contour>
    <contour>
      <point x="177" y="308" type="move" name="_bottom"/>
    </contour>
  </outline>
</glyph>
<glyph name="acute" format="1">
  <advance width="252"/>
  <unicode hex="00B4"/>
  <outline>
    <contour>
      <point x="74" y="590" type="line"/>
      <point x="161" y="756" type="line"/>
      <point x="89" y="756" type="line"/>
      <point x="18" y="590" type="line"/>
    </contour>
    <contour>
      <point x="48" y="591" type="move" name="_top"/>
    </contour>
  </outline>
</glyph>
<glyph name="paragraph" format="1">
  <advance width="588"/>
  <unicode hex="00B6"/>
  <outline>
    <contour>
      <point x="330" y="675" type="curve"/>
      <point x="463" y="675"/>
      <point x="330" y="675"/>
      <point x="463" y="675" type="curve"/>
      <point x="463" y="722"/>
      <point x="463" y="675"/>
      <point x="463" y="722" type="curve"/>
      <point x="418" y="722"/>
      <point x="374" y="722"/>
      <point x="330" y="722" type="curve"/>
      <point x="330" y="675"/>
      <point x="330" y="722"/>
    </contour>
    <contour>
      <point x="330" y="0" type="curve"/>
      <point x="374" y="0"/>
      <point x="418" y="0"/>
      <point x="463" y="0" type="curve"/>
      <point x="463" y="47"/>
      <point x="463" y="0"/>
      <point x="463" y="47" type="curve"/>
      <point x="330" y="47"/>
      <point x="463" y="47"/>
      <point x="330" y="47" type="curve"/>
      <point x="330" y="0"/>
      <point x="330" y="47"/>
    </contour>
    <contour>
      <point x="330" y="47" type="curve"/>
      <point x="217" y="47"/>
      <point x="330" y="47"/>
      <point x="217" y="47" type="curve"/>
      <point x="217" y="0"/>
      <point x="217" y="47"/>
      <point x="217" y="0" type="curve"/>
      <point x="330" y="0"/>
      <point x="292" y="0"/>
      <point x="330" y="0" type="curve"/>
      <point x="330" y="47"/>
      <point x="330" y="0"/>
    </contour>
    <contour>
      <point x="319" y="358" type="curve"/>
      <point x="285" y="334"/>
      <point x="258" y="318"/>
      <point x="216" y="318" type="curve"/>
      <point x="134" y="318"/>
      <point x="100" y="394"/>
      <point x="100" y="488" type="curve"/>
      <point x="100" y="592"/>
      <point x="145" y="675"/>
      <point x="241" y="675" type="curve"/>
      <point x="270" y="675"/>
      <point x="299" y="675"/>
      <point x="327" y="675" type="curve"/>
      <point x="327" y="722"/>
      <point x="327" y="675"/>
      <point x="327" y="722" type="curve"/>
      <point x="296" y="722"/>
      <point x="265" y="722"/>
      <point x="233" y="722" type="curve"/>
      <point x="109" y="722"/>
      <point x="42" y="622"/>
      <point x="42" y="490" type="curve"/>
      <point x="42" y="361"/>
      <point x="103" y="274"/>
      <point x="221" y="272" type="curve"/>
      <point x="266" y="272"/>
      <point x="303" y="292"/>
      <point x="338" y="317" type="curve"/>
      <point x="319" y="357"/>
      <point x="337" y="319"/>
    </contour>
    <contour>
      <point x="359" y="0" type="curve"/>
      <point x="359" y="241"/>
      <point x="359" y="481"/>
      <point x="359" y="722" type="curve"/>
      <point x="302" y="722"/>
      <point x="359" y="722"/>
      <point x="302" y="722" type="curve"/>
      <point x="302" y="481"/>
      <point x="302" y="241"/>
      <point x="302" y="0" type="curve"/>
      <point x="359" y="0"/>
      <point x="302" y="0"/>
    </contour>
    <contour>
      <point x="507" y="0" type="curve"/>
      <point x="507" y="241"/>
      <point x="507" y="481"/>
      <point x="507" y="722" type="curve"/>
      <point x="450" y="722"/>
      <point x="507" y="722"/>
      <point x="450" y="722" type="curve"/>
      <point x="450" y="481"/>
      <point x="450" y="241"/>
      <point x="450" y="0" type="curve"/>
      <point x="507" y="0"/>
      <point x="450" y="0"/>
    </contour>
  </outline>
</glyph>
<glyph name="cedilla" format="1">
  <advance width="304"/>
  <unicode hex="00B8"/>
  <outline>
    <contour>
      <point x="108" y="59" type="curve"/>
      <point x="97" y="34"/>
      <point x="78" y="-13"/>
      <point x="68" y="-38" type="curve"/>
      <point x="108" y="-75"/>
      <point x="68" y="-38"/>
      <point x="108" y="-75" type="curve"/>
      <point x="119" y="-48"/>
      <point x="141" y="0"/>
      <point x="152" y="27" type="curve"/>
      <point x="108" y="59"/>
      <point x="152" y="27"/>
    </contour>
    <contour>
      <point x="108" y="-75" type="curve"/>
      <point x="116" y="-68"/>
      <point x="122" y="-64"/>
      <point x="133" y="-64" type="curve"/>
      <point x="155" y="-64"/>
      <point x="160" y="-83"/>
      <point x="160" y="-108" type="curve"/>
      <point x="160" y="-135"/>
      <point x="147" y="-152"/>
      <point x="122" y="-152" type="curve"/>
      <point x="104" y="-152"/>
      <point x="89" y="-148"/>
      <point x="75" y="-136" type="curve"/>
      <point x="52" y="-171"/>
      <point x="75" y="-136"/>
      <point x="52" y="-171" type="curve"/>
      <point x="73" y="-187"/>
      <point x="93" y="-195"/>
      <point x="120" y="-195" type="curve"/>
      <point x="171" y="-195"/>
      <point x="202" y="-161"/>
      <point x="202" y="-107" type="curve"/>
      <point x="202" y="-56"/>
      <point x="178" y="-19"/>
      <point x="130" y="-19" type="curve"/>
      <point x="106" y="-19"/>
      <point x="89" y="-24"/>
      <point x="68" y="-38" type="curve"/>
      <point x="108" y="-75"/>
      <point x="68" y="-38"/>
    </contour>
    <contour>
      <point x="149" y="27" type="move" name="_bottom"/>
    </contour>
  </outline>
</glyph>
<glyph name="onesuperior" format="1">
  <advance width="320"/>
  <unicode hex="00B9"/>
  <outline>
    <contour>
      <point x="161" y="313" type="curve"/>
      <point x="198" y="313"/>
      <point x="219" y="313"/>
      <point x="256" y="313" type="curve"/>
      <point x="256" y="354"/>
      <point x="256" y="313"/>
      <point x="256" y="354" type="curve"/>
      <point x="236" y="354"/>
      <point x="231" y="354"/>
      <point x="210" y="354" type="curve"/>
      <point x="161" y="313"/>
      <point x="210" y="354"/>
    </contour>
    <contour>
      <point x="210" y="354" type="curve"/>
      <point x="173" y="354"/>
      <point x="150" y="354"/>
      <point x="112" y="354" type="curve"/>
      <point x="112" y="313"/>
      <point x="112" y="354"/>
      <point x="112" y="313" type="curve"/>
      <point x="134" y="313"/>
      <point x="139" y="313"/>
      <point x="161" y="313" type="curve"/>
      <point x="210" y="354"/>
      <point x="161" y="313"/>
    </contour>
    <contour>
      <point x="98" y="589" type="line"/>
      <point x="209" y="717" type="line"/>
      <point x="161" y="723" type="line"/>
      <point x="67" y="618" type="line"/>
    </contour>
    <contour>
      <point x="210" y="354" type="curve"/>
      <point x="210" y="723" type="line"/>
      <point x="161" y="723" type="line"/>
      <point x="161" y="313" type="line"/>
      <point x="210" y="354"/>
      <point x="161" y="313"/>
    </contour>
    <contour>
      <point x="182" y="721" type="move" name="_top"/>
    </contour>
    <contour>
      <point x="186" y="317" type="move" name="_bottom"/>
    </contour>
  </outline>
</glyph>
<glyph name="ordmasculine" format="1">
  <advance width="362"/>
  <unicode hex="00BA"/>
  <outline>
    <contour>
      <point x="108" y="602" type="curve"/>
      <point x="108" y="672"/>
      <point x="122" y="730"/>
      <point x="181" y="730" type="curve"/>
      <point x="239" y="730"/>
      <point x="252" y="671"/>
      <point x="252" y="601" type="curve"/>
      <point x="252" y="524"/>
      <point x="240" y="460"/>
      <point x="185" y="460" type="curve"/>
      <point x="120" y="460"/>
      <point x="108" y="525"/>
      <point x="108" y="602" type="curve"/>
      <point x="91" y="602"/>
      <point x="84" y="602"/>
      <point x="67" y="602" type="curve"/>
      <point x="67" y="501"/>
      <point x="95" y="424"/>
      <point x="183" y="424" type="curve"/>
      <point x="266" y="424"/>
      <point x="295" y="500"/>
      <point x="295" y="601" type="curve"/>
      <point x="295" y="695"/>
      <point x="267" y="766"/>
      <point x="183" y="766" type="curve"/>
      <point x="96" y="766"/>
      <point x="67" y="695"/>
      <point x="67" y="602" type="curve"/>
      <point x="84" y="602"/>
      <point x="91" y="602"/>
    </contour>
  </outline>
</glyph>
<glyph name="onequarter" format="1">
  <advance width="722"/>
  <unicode hex="00BC"/>
  <outline>
    <contour>
      <point x="237" y="-77" type="line"/>
      <point x="542" y="743" type="line"/>
      <point x="485" y="743" type="line"/>
      <point x="181" y="-77" type="line"/>
    </contour>
    <contour>
      <point x="134" y="336" type="curve"/>
      <point x="171" y="336"/>
      <point x="193" y="336"/>
      <point x="230" y="336" type="curve"/>
      <point x="230" y="377"/>
      <point x="230" y="336"/>
      <point x="230" y="377" type="curve"/>
      <point x="210" y="377"/>
      <point x="204" y="377"/>
      <point x="184" y="377" type="curve"/>
      <point x="134" y="336"/>
      <point x="184" y="377"/>
    </contour>
    <contour>
      <point x="184" y="377" type="curve"/>
      <point x="147" y="377"/>
      <point x="124" y="377"/>
      <point x="86" y="377" type="curve"/>
      <point x="86" y="336"/>
      <point x="86" y="377"/>
      <point x="86" y="336" type="curve"/>
      <point x="107" y="336"/>
      <point x="113" y="336"/>
      <point x="134" y="336" type="curve"/>
      <point x="184" y="377"/>
      <point x="134" y="336"/>
    </contour>
    <contour>
      <point x="72" y="612" type="line"/>
      <point x="182" y="740" type="line"/>
      <point x="134" y="747" type="line"/>
      <point x="41" y="642" type="line"/>
    </contour>
    <contour>
      <point x="184" y="377" type="curve"/>
      <point x="184" y="747" type="line"/>
      <point x="134" y="747" type="line"/>
      <point x="134" y="336" type="line"/>
      <point x="184" y="377"/>
      <point x="134" y="336"/>
    </contour>
    <contour>
      <point x="694" y="79" type="line"/>
      <point x="404" y="79" type="line"/>
      <point x="404" y="40" type="line"/>
      <point x="694" y="40" type="line"/>
    </contour>
    <contour>
      <point x="427" y="42" type="line"/>
      <point x="607" y="346" type="line"/>
      <point x="568" y="357" type="line"/>
      <point x="404" y="79" type="line"/>
    </contour>
    <contour>
      <point x="616" y="-74" type="line"/>
      <point x="616" y="357" type="line"/>
      <point x="568" y="357" type="line"/>
      <point x="568" y="-74" type="line"/>
    </contour>
    <contour>
      <point x="592" y="-38" type="line"/>
      <point x="510" y="-38" type="line"/>
      <point x="510" y="-75" type="line"/>
      <point x="592" y="-75" type="line"/>
    </contour>
    <contour>
      <point x="592" y="-75" type="line"/>
      <point x="675" y="-75" type="line"/>
      <point x="675" y="-38" type="line"/>
      <point x="592" y="-38" type="line"/>
    </contour>
  </outline>
</glyph>
<glyph name="threequarters" format="1">
  <advance width="745"/>
  <unicode hex="00BE"/>
  <outline>
    <contour>
      <point x="262" y="-77" type="line"/>
      <point x="567" y="743" type="line"/>
      <point x="510" y="743" type="line"/>
      <point x="206" y="-77" type="line"/>
    </contour>
    <contour>
      <point x="79" y="665" type="curve"/>
      <point x="94" y="685"/>
      <point x="112" y="704"/>
      <point x="138" y="704" type="curve"/>
      <point x="179" y="704"/>
      <point x="200" y="674"/>
      <point x="200" y="630" type="curve"/>
      <point x="200" y="584"/>
      <point x="158" y="558"/>
      <point x="108" y="554" type="curve"/>
      <point x="108" y="519"/>
      <point x="108" y="554"/>
      <point x="108" y="519" type="curve"/>
      <point x="188" y="522"/>
      <point x="250" y="559"/>
      <point x="250" y="634" type="curve"/>
      <point x="250" y="702"/>
      <point x="210" y="744"/>
      <point x="143" y="744" type="curve"/>
      <point x="103" y="744"/>
      <point x="69" y="721"/>
      <point x="48" y="690" type="curve"/>
      <point x="79" y="665"/>
      <point x="48" y="690"/>
    </contour>
    <contour>
      <point x="45" y="355" type="curve"/>
      <point x="71" y="333"/>
      <point x="99" y="321"/>
      <point x="132" y="321" type="curve"/>
      <point x="211" y="318"/>
      <point x="262" y="362"/>
      <point x="261" y="439" type="curve"/>
      <point x="261" y="516"/>
      <point x="192" y="543"/>
      <point x="108" y="546" type="curve"/>
      <point x="108" y="516"/>
      <point x="108" y="546"/>
      <point x="108" y="516" type="curve"/>
      <point x="167" y="512"/>
      <point x="211" y="486"/>
      <point x="211" y="437" type="curve"/>
      <point x="210" y="390"/>
      <point x="183" y="359"/>
      <point x="137" y="361" type="curve"/>
      <point x="112" y="361"/>
      <point x="90" y="370"/>
      <point x="70" y="385" type="curve"/>
      <point x="45" y="355"/>
      <point x="70" y="385"/>
    </contour>
    <contour>
      <point x="719" y="79" type="line"/>
      <point x="430" y="79" type="line"/>
      <point x="430" y="40" type="line"/>
      <point x="719" y="40" type="line"/>
    </contour>
    <contour>
      <point x="452" y="42" type="line"/>
      <point x="632" y="346" type="line"/>
      <point x="593" y="357" type="line"/>
      <point x="430" y="79" type="line"/>
    </contour>
    <contour>
      <point x="641" y="-74" type="line"/>
      <point x="641" y="357" type="line"/>
      <point x="593" y="357" type="line"/>
      <point x="593" y="-74" type="line"/>
    </contour>
    <contour>
      <point x="617" y="-38" type="line"/>
      <point x="535" y="-38" type="line"/>
      <point x="535" y="-75" type="line"/>
      <point x="617" y="-75" type="line"/>
    </contour>
    <contour>
      <point x="617" y="-75" type="line"/>
      <point x="700" y="-75" type="line"/>
      <point x="700" y="-38" type="line"/>
      <point x="617" y="-38" type="line"/>
    </contour>
  </outline>
</glyph>
<glyph name="questiondown" format="1">
  <advance width="421"/>
  <unicode hex="00BF"/>
  <outline>
    <contour>
      <point x="252" y="371" type="curve"/>
      <point x="252" y="408"/>
      <point x="252" y="460"/>
      <point x="252" y="497" type="curve"/>
      <point x="198" y="497"/>
      <point x="252" y="497"/>
      <point x="198" y="497" type="curve"/>
      <point x="198" y="460"/>
      <point x="198" y="408"/>
      <point x="198" y="371" type="curve"/>
      <point x="252" y="371"/>
      <point x="198" y="371"/>
    </contour>
    <contour>
      <point x="333" y="109" type="line"/>
      <point x="310" y="73"/>
      <point x="279" y="46"/>
      <point x="230" y="46" type="curve"/>
      <point x="150" y="46"/>
      <point x="115" y="114"/>
      <point x="115" y="200" type="curve"/>
      <point x="115" y="295"/>
      <point x="156" y="371"/>
      <point x="244" y="371" type="curve"/>
      <point x="244" y="399"/>
      <point x="245" y="390"/>
      <point x="245" y="418" type="curve"/>
      <point x="123" y="418"/>
      <point x="58" y="325"/>
      <point x="58" y="200" type="curve"/>
      <point x="58" y="83"/>
      <point x="118" y="-3"/>
      <point x="227" y="-3" type="curve"/>
      <point x="296" y="-3"/>
      <point x="338" y="29"/>
      <point x="367" y="74" type="curve"/>
    </contour>
    <contour>
      <point x="192" y="692" type="curve"/>
      <point x="192" y="671"/>
      <point x="206" y="660"/>
      <point x="226" y="660" type="curve"/>
      <point x="246" y="660"/>
      <point x="259" y="672"/>
      <point x="259" y="692" type="curve"/>
      <point x="192" y="692"/>
      <point x="259" y="692"/>
      <point x="192" y="692" type="curve"/>
      <point x="192" y="714"/>
      <point x="205" y="725"/>
      <point x="226" y="725" type="curve"/>
      <point x="246" y="725"/>
      <point x="259" y="714"/>
      <point x="259" y="692" type="curve"/>
      <point x="192" y="692"/>
      <point x="259" y="692"/>
    </contour>
  </outline>
</glyph>
<glyph name="Agrave" format="1">
  <advance width="620"/>
  <unicode hex="00C0"/>
  <outline>
    <contour>
      <point x="99" y="47" type="curve"/>
      <point x="-35" y="47"/>
      <point x="116" y="47"/>
      <point x="-17" y="47" type="curve"/>
      <point x="-17" y="0"/>
      <point x="-17" y="47"/>
      <point x="-17" y="0" type="curve"/>
      <point x="27" y="0"/>
      <point x="55" y="0"/>
      <point x="99" y="0" type="curve"/>
      <point x="99" y="47"/>
      <point x="99" y="0"/>
    </contour>
    <contour>
      <point x="99" y="0" type="curve"/>
      <point x="148" y="0"/>
      <point x="85" y="0"/>
      <point x="231" y="0" type="curve"/>
      <point x="231" y="47"/>
      <point x="231" y="0"/>
      <point x="231" y="47" type="curve"/>
      <point x="85" y="47"/>
      <point x="245" y="47"/>
      <point x="99" y="47" type="curve"/>
      <point x="99" y="0"/>
      <point x="99" y="47"/>
    </contour>
    <contour>
      <point x="490" y="0" type="curve"/>
      <point x="534" y="0"/>
      <point x="562" y="0"/>
      <point x="606" y="0" type="curve"/>
      <point x="606" y="47"/>
      <point x="606" y="0"/>
      <point x="606" y="47" type="curve"/>
      <point x="473" y="47"/>
      <point x="623" y="47"/>
      <point x="490" y="47" type="curve"/>
      <point x="490" y="0"/>
      <point x="490" y="47"/>
    </contour>
    <contour>
      <point x="490" y="47" type="curve"/>
      <point x="343" y="47"/>
      <point x="504" y="47"/>
      <point x="357" y="47" type="curve"/>
      <point x="357" y="0"/>
      <point x="357" y="47"/>
      <point x="357" y="0" type="curve"/>
      <point x="406" y="0"/>
      <point x="441" y="0"/>
      <point x="490" y="0" type="curve"/>
      <point x="490" y="47"/>
      <point x="490" y="0"/>
    </contour>
    <contour>
      <point x="418" y="282" type="curve"/>
      <point x="340" y="282"/>
      <point x="262" y="282"/>
      <point x="183" y="282" type="curve"/>
      <point x="160" y="232"/>
      <point x="183" y="282"/>
      <point x="160" y="232" type="curve"/>
      <point x="252" y="232"/>
      <point x="344" y="232"/>
      <point x="437" y="232" type="curve"/>
      <point x="418" y="282"/>
      <point x="437" y="232"/>
    </contour>
    <contour>
      <point x="528" y="0" type="curve"/>
      <point x="463" y="241"/>
      <point x="397" y="481"/>
      <point x="332" y="722" type="curve"/>
      <point x="280" y="722"/>
      <point x="332" y="722"/>
      <point x="280" y="722" type="curve"/>
      <point x="343" y="481"/>
      <point x="404" y="241"/>
      <point x="468" y="0" type="curve"/>
      <point x="528" y="0"/>
      <point x="468" y="0"/>
    </contour>
    <contour>
      <point x="122" y="0" type="curve"/>
      <point x="193" y="241"/>
      <point x="260" y="481"/>
      <point x="331" y="722" type="curve"/>
      <point x="278" y="722"/>
      <point x="331" y="722"/>
      <point x="278" y="722" type="curve"/>
      <point x="206" y="481"/>
      <point x="131" y="241"/>
      <point x="59" y="0" type="curve"/>
      <point x="122" y="0"/>
      <point x="59" y="0"/>
    </contour>
    <contour>
      <point x="334" y="813" type="line"/>
      <point x="262" y="979" type="line"/>
      <point x="191" y="979" type="line"/>
      <point x="278" y="813" type="line"/>
    </contour>
  </outline>
</glyph>
<glyph name="Atilde" format="1">
  <advance width="619"/>
  <unicode hex="00C3"/>
  <outline>
    <contour>
      <point x="99" y="47" type="curve"/>
      <point x="-35" y="47"/>
      <point x="116" y="47"/>
      <point x="-17" y="47" type="curve"/>
      <point x="-17" y="0"/>
      <point x="-17" y="47"/>
      <point x="-17" y="0" type="curve"/>
      <point x="27" y="0"/>
      <point x="55" y="0"/>
      <point x="99" y="0" type="curve"/>
      <point x="99" y="47"/>
      <point x="99" y="0"/>
    </contour>
    <contour>
      <point x="99" y="0" type="curve"/>
      <point x="148" y="0"/>
      <point x="85" y="0"/>
      <point x="231" y="0" type="curve"/>
      <point x="231" y="47"/>
      <point x="231" y="0"/>
      <point x="231" y="47" type="curve"/>
      <point x="85" y="47"/>
      <point x="245" y="47"/>
      <point x="99" y="47" type="curve"/>
      <point x="99" y="0"/>
      <point x="99" y="47"/>
    </contour>
    <contour>
      <point x="490" y="0" type="curve"/>
      <point x="534" y="0"/>
      <point x="561" y="0"/>
      <point x="606" y="0" type="curve"/>
      <point x="606" y="47"/>
      <point x="606" y="0"/>
      <point x="606" y="47" type="curve"/>
      <point x="473" y="47"/>
      <point x="623" y="47"/>
      <point x="490" y="47" type="curve"/>
      <point x="490" y="0"/>
      <point x="490" y="47"/>
    </contour>
    <contour>
      <point x="490" y="47" type="curve"/>
      <point x="343" y="47"/>
      <point x="504" y="47"/>
      <point x="357" y="47" type="curve"/>
      <point x="357" y="0"/>
      <point x="357" y="47"/>
      <point x="357" y="0" type="curve"/>
      <point x="406" y="0"/>
      <point x="441" y="0"/>
      <point x="490" y="0" type="curve"/>
      <point x="490" y="47"/>
      <point x="490" y="0"/>
    </contour>
    <contour>
      <point x="418" y="282" type="curve"/>
      <point x="340" y="282"/>
      <point x="262" y="282"/>
      <point x="183" y="282" type="curve"/>
      <point x="159" y="232"/>
      <point x="183" y="282"/>
      <point x="159" y="232" type="curve"/>
      <point x="252" y="232"/>
      <point x="344" y="232"/>
      <point x="437" y="232" type="curve"/>
      <point x="418" y="282"/>
      <point x="437" y="232"/>
    </contour>
    <contour>
      <point x="528" y="0" type="curve"/>
      <point x="463" y="241"/>
      <point x="397" y="481"/>
      <point x="332" y="722" type="curve"/>
      <point x="280" y="722"/>
      <point x="332" y="722"/>
      <point x="280" y="722" type="curve"/>
      <point x="343" y="481"/>
      <point x="404" y="241"/>
      <point x="468" y="0" type="curve"/>
      <point x="528" y="0"/>
      <point x="468" y="0"/>
    </contour>
    <contour>
      <point x="122" y="0" type="curve"/>
      <point x="193" y="241"/>
      <point x="260" y="481"/>
      <point x="331" y="722" type="curve"/>
      <point x="278" y="722"/>
      <point x="331" y="722"/>
      <point x="278" y="722" type="curve"/>
      <point x="206" y="481"/>
      <point x="131" y="241"/>
      <point x="59" y="0" type="curve"/>
      <point x="122" y="0"/>
      <point x="59" y="0"/>
    </contour>
    <contour>
      <point x="415" y="956" type="curve"/>
      <point x="403" y="910"/>
      <point x="396" y="870"/>
      <point x="368" y="870" type="curve"/>
      <point x="339" y="870"/>
      <point x="326" y="888"/>
      <point x="310" y="911" type="curve" smooth="yes"/>
      <point x="289" y="938"/>
      <point x="274" y="958"/>
      <point x="241" y="958" type="curve"/>
      <point x="181" y="958"/>
      <point x="165" y="899"/>
      <point x="152" y="835" type="curve"/>
      <point x="196" y="814"/>
      <point x="152" y="836"/>
      <point x="196" y="814" type="curve"/>
      <point x="208" y="863"/>
      <point x="215" y="901"/>
      <point x="250" y="901" type="curve"/>
      <point x="276" y="901"/>
      <point x="285" y="882"/>
      <point x="299" y="862" type="curve" smooth="yes"/>
      <point x="322" y="832"/>
      <point x="340" y="812"/>
      <point x="376" y="812" type="curve"/>
      <point x="437" y="812"/>
      <point x="446" y="872"/>
      <point x="462" y="936" type="curve"/>
      <point x="415" y="956"/>
      <point x="462" y="936"/>
    </contour>
  </outline>
</glyph>
<glyph name="Adieresis" format="1">
  <advance width="620"/>
  <unicode hex="00C4"/>
  <outline>
    <contour>
      <point x="99" y="47" type="curve"/>
      <point x="-35" y="47"/>
      <point x="116" y="47"/>
      <point x="-17" y="47" type="curve"/>
      <point x="-17" y="0"/>
      <point x="-17" y="47"/>
      <point x="-17" y="0" type="curve"/>
      <point x="27" y="0"/>
      <point x="55" y="0"/>
      <point x="99" y="0" type="curve"/>
      <point x="99" y="47"/>
      <point x="99" y="0"/>
    </contour>
    <contour>
      <point x="99" y="0" type="curve"/>
      <point x="148" y="0"/>
      <point x="85" y="0"/>
      <point x="231" y="0" type="curve"/>
      <point x="231" y="47"/>
      <point x="231" y="0"/>
      <point x="231" y="47" type="curve"/>
      <point x="85" y="47"/>
      <point x="245" y="47"/>
      <point x="99" y="47" type="curve"/>
      <point x="99" y="0"/>
      <point x="99" y="47"/>
    </contour>
    <contour>
      <point x="490" y="0" type="curve"/>
      <point x="534" y="0"/>
      <point x="562" y="0"/>
      <point x="606" y="0" type="curve"/>
      <point x="606" y="47"/>
      <point x="606" y="0"/>
      <point x="606" y="47" type="curve"/>
      <point x="473" y="47"/>
      <point x="623" y="47"/>
      <point x="490" y="47" type="curve"/>
      <point x="490" y="0"/>
      <point x="490" y="47"/>
    </contour>
    <contour>
      <point x="490" y="47" type="curve"/>
      <point x="343" y="47"/>
      <point x="504" y="47"/>
      <point x="357" y="47" type="curve"/>
      <point x="357" y="0"/>
      <point x="357" y="47"/>
      <point x="357" y="0" type="curve"/>
      <point x="406" y="0"/>
      <point x="441" y="0"/>
      <point x="490" y="0" type="curve"/>
      <point x="490" y="47"/>
      <point x="490" y="0"/>
    </contour>
    <contour>
      <point x="418" y="282" type="curve"/>
      <point x="340" y="282"/>
      <point x="262" y="282"/>
      <point x="183" y="282" type="curve"/>
      <point x="160" y="232"/>
      <point x="183" y="282"/>
      <point x="160" y="232" type="curve"/>
      <point x="252" y="232"/>
      <point x="344" y="232"/>
      <point x="437" y="232" type="curve"/>
      <point x="418" y="282"/>
      <point x="437" y="232"/>
    </contour>
    <contour>
      <point x="528" y="0" type="curve"/>
      <point x="463" y="241"/>
      <point x="397" y="481"/>
      <point x="332" y="722" type="curve"/>
      <point x="280" y="722"/>
      <point x="332" y="722"/>
      <point x="280" y="722" type="curve"/>
      <point x="343" y="481"/>
      <point x="404" y="241"/>
      <point x="468" y="0" type="curve"/>
      <point x="528" y="0"/>
      <point x="468" y="0"/>
    </contour>
    <contour>
      <point x="122" y="0" type="curve"/>
      <point x="193" y="241"/>
      <point x="260" y="481"/>
      <point x="331" y="722" type="curve"/>
      <point x="278" y="722"/>
      <point x="331" y="722"/>
      <point x="278" y="722" type="curve"/>
      <point x="206" y="481"/>
      <point x="131" y="241"/>
      <point x="59" y="0" type="curve"/>
      <point x="122" y="0"/>
      <point x="59" y="0"/>
    </contour>
    <contour>
      <point x="279" y="841" type="curve"/>
      <point x="279" y="862"/>
      <point x="265" y="873"/>
      <point x="245" y="873" type="curve"/>
      <point x="225" y="873"/>
      <point x="212" y="861"/>
      <point x="212" y="841" type="curve"/>
      <point x="279" y="841"/>
      <point x="212" y="841"/>
      <point x="279" y="841" type="curve"/>
      <point x="279" y="819"/>
      <point x="266" y="808"/>
      <point x="245" y="808" type="curve"/>
      <point x="225" y="808"/>
      <point x="212" y="820"/>
      <point x="212" y="841" type="curve"/>
      <point x="279" y="841"/>
      <point x="212" y="841"/>
    </contour>
    <contour>
      <point x="396" y="841" type="curve"/>
      <point x="396" y="862"/>
      <point x="382" y="873"/>
      <point x="362" y="873" type="curve"/>
      <point x="342" y="873"/>
      <point x="329" y="861"/>
      <point x="329" y="841" type="curve"/>
      <point x="396" y="841"/>
      <point x="329" y="841"/>
      <point x="396" y="841" type="curve"/>
      <point x="396" y="819"/>
      <point x="382" y="808"/>
      <point x="362" y="808" type="curve"/>
      <point x="341" y="808"/>
      <point x="329" y="820"/>
      <point x="329" y="841" type="curve"/>
      <point x="396" y="841"/>
      <point x="329" y="841"/>
    </contour>
  </outline>
</glyph>
<glyph name="Aring" format="1">
  <advance width="619"/>
  <unicode hex="00C5"/>
  <outline>
    <contour>
      <point x="99" y="47" type="curve"/>
      <point x="-35" y="47"/>
      <point x="116" y="47"/>
      <point x="-17" y="47" type="curve"/>
      <point x="-17" y="0"/>
      <point x="-17" y="47"/>
      <point x="-17" y="0" type="curve"/>
      <point x="27" y="0"/>
      <point x="55" y="0"/>
      <point x="99" y="0" type="curve"/>
      <point x="99" y="47"/>
      <point x="99" y="0"/>
    </contour>
    <contour>
      <point x="99" y="0" type="curve"/>
      <point x="148" y="0"/>
      <point x="85" y="0"/>
      <point x="231" y="0" type="curve"/>
      <point x="231" y="47"/>
      <point x="231" y="0"/>
      <point x="231" y="47" type="curve"/>
      <point x="85" y="47"/>
      <point x="245" y="47"/>
      <point x="99" y="47" type="curve"/>
      <point x="99" y="0"/>
      <point x="99" y="47"/>
    </contour>
    <contour>
      <point x="490" y="0" type="curve"/>
      <point x="534" y="0"/>
      <point x="561" y="0"/>
      <point x="606" y="0" type="curve"/>
      <point x="606" y="47"/>
      <point x="606" y="0"/>
      <point x="606" y="47" type="curve"/>
      <point x="473" y="47"/>
      <point x="623" y="47"/>
      <point x="490" y="47" type="curve"/>
      <point x="490" y="0"/>
      <point x="490" y="47"/>
    </contour>
    <contour>
      <point x="490" y="47" type="curve"/>
      <point x="343" y="47"/>
      <point x="504" y="47"/>
      <point x="357" y="47" type="curve"/>
      <point x="357" y="0"/>
      <point x="357" y="47"/>
      <point x="357" y="0" type="curve"/>
      <point x="406" y="0"/>
      <point x="441" y="0"/>
      <point x="490" y="0" type="curve"/>
      <point x="490" y="47"/>
      <point x="490" y="0"/>
    </contour>
    <contour>
      <point x="418" y="282" type="curve"/>
      <point x="340" y="282"/>
      <point x="262" y="282"/>
      <point x="183" y="282" type="curve"/>
      <point x="159" y="232"/>
      <point x="183" y="282"/>
      <point x="159" y="232" type="curve"/>
      <point x="252" y="232"/>
      <point x="344" y="232"/>
      <point x="437" y="232" type="curve"/>
      <point x="418" y="282"/>
      <point x="437" y="232"/>
    </contour>
    <contour>
      <point x="528" y="0" type="curve"/>
      <point x="463" y="241"/>
      <point x="397" y="481"/>
      <point x="332" y="722" type="curve"/>
      <point x="280" y="722"/>
      <point x="332" y="722"/>
      <point x="280" y="722" type="curve"/>
      <point x="343" y="481"/>
      <point x="404" y="241"/>
      <point x="468" y="0" type="curve"/>
      <point x="528" y="0"/>
      <point x="468" y="0"/>
    </contour>
    <contour>
      <point x="122" y="0" type="curve"/>
      <point x="193" y="241"/>
      <point x="260" y="481"/>
      <point x="331" y="722" type="curve"/>
      <point x="278" y="722"/>
      <point x="331" y="722"/>
      <point x="278" y="722" type="curve"/>
      <point x="206" y="481"/>
      <point x="131" y="241"/>
      <point x="59" y="0" type="curve"/>
      <point x="122" y="0"/>
      <point x="59" y="0"/>
    </contour>
    <contour>
      <point x="203" y="936" type="curve"/>
      <point x="203" y="864"/>
      <point x="236" y="811"/>
      <point x="304" y="811" type="curve"/>
      <point x="372" y="811"/>
      <point x="406" y="863"/>
      <point x="406" y="936" type="curve"/>
      <point x="406" y="1009"/>
      <point x="371" y="1062"/>
      <point x="302" y="1062" type="curve"/>
      <point x="235" y="1062"/>
      <point x="203" y="1009"/>
      <point x="203" y="936" type="curve"/>
      <point x="256" y="936"/>
      <point x="200" y="936"/>
      <point x="252" y="936" type="curve"/>
      <point x="252" y="980"/>
      <point x="262" y="1017"/>
      <point x="302" y="1017" type="curve"/>
      <point x="343" y="1017"/>
      <point x="355" y="981"/>
      <point x="355" y="936" type="curve"/>
      <point x="355" y="892"/>
      <point x="344" y="855"/>
      <point x="304" y="855" type="curve"/>
      <point x="263" y="855"/>
      <point x="252" y="892"/>
      <point x="252" y="936" type="curve"/>
      <point x="200" y="936"/>
      <point x="256" y="936"/>
    </contour>
  </outline>
</glyph>
<glyph name="Ccedilla" format="1">
  <advance width="543"/>
  <unicode hex="00C7"/>
  <outline>
    <contour>
      <point x="436" y="655" type="curve"/>
      <point x="436" y="535"/>
      <point x="436" y="655"/>
      <point x="436" y="535" type="curve"/>
      <point x="484" y="535"/>
      <point x="436" y="535"/>
      <point x="484" y="535" type="curve"/>
      <point x="484" y="655"/>
      <point x="484" y="535"/>
      <point x="484" y="655" type="curve"/>
      <point x="436" y="655"/>
      <point x="484" y="655"/>
    </contour>
    <contour>
      <point x="484" y="655" type="curve"/>
      <point x="436" y="695"/>
      <point x="379" y="727"/>
      <point x="310" y="727" type="curve"/>
      <point x="121" y="727"/>
      <point x="61" y="562"/>
      <point x="61" y="344" type="curve"/>
      <point x="61" y="146"/>
      <point x="119" y="-5"/>
      <point x="295" y="-5" type="curve"/>
      <point x="386" y="-5"/>
      <point x="441" y="33"/>
      <point x="497" y="97" type="curve"/>
      <point x="462" y="132"/>
      <point x="497" y="97"/>
      <point x="462" y="132" type="curve"/>
      <point x="415" y="80"/>
      <point x="371" y="46"/>
      <point x="298" y="46" type="curve"/>
      <point x="154" y="46"/>
      <point x="119" y="179"/>
      <point x="119" y="346" type="curve"/>
      <point x="119" y="529"/>
      <point x="155" y="677"/>
      <point x="308" y="677" type="curve"/>
      <point x="365" y="677"/>
      <point x="413" y="651"/>
      <point x="452" y="618" type="curve"/>
      <point x="484" y="655"/>
      <point x="452" y="618"/>
    </contour>
    <contour>
      <point x="266" y="30" type="curve"/>
      <point x="255" y="5"/>
      <point x="237" y="-41"/>
      <point x="227" y="-66" type="curve"/>
      <point x="267" y="-104"/>
      <point x="227" y="-66"/>
      <point x="267" y="-104" type="curve"/>
      <point x="277" y="-77"/>
      <point x="299" y="-29"/>
      <point x="310" y="-2" type="curve"/>
      <point x="266" y="30"/>
      <point x="310" y="-2"/>
    </contour>
    <contour>
      <point x="267" y="-104" type="curve"/>
      <point x="274" y="-97"/>
      <point x="281" y="-93"/>
      <point x="292" y="-93" type="curve"/>
      <point x="313" y="-93"/>
      <point x="319" y="-112"/>
      <point x="319" y="-137" type="curve"/>
      <point x="319" y="-163"/>
      <point x="306" y="-181"/>
      <point x="281" y="-181" type="curve"/>
      <point x="262" y="-181"/>
      <point x="248" y="-177"/>
      <point x="233" y="-165" type="curve"/>
      <point x="211" y="-200"/>
      <point x="233" y="-165"/>
      <point x="211" y="-200" type="curve"/>
      <point x="231" y="-216"/>
      <point x="251" y="-223"/>
      <point x="278" y="-223" type="curve"/>
      <point x="330" y="-223"/>
      <point x="361" y="-189"/>
      <point x="361" y="-136" type="curve"/>
      <point x="361" y="-85"/>
      <point x="336" y="-47"/>
      <point x="289" y="-47" type="curve"/>
      <point x="264" y="-47"/>
      <point x="247" y="-53"/>
      <point x="227" y="-66" type="curve"/>
      <point x="267" y="-104"/>
      <point x="227" y="-66"/>
    </contour>
  </outline>
</glyph>
<glyph name="Igrave" format="1">
  <advance width="316"/>
  <unicode hex="00CC"/>
  <outline>
    <contour>
      <point x="158" y="722" type="curve"/>
      <point x="113" y="722"/>
      <point x="83" y="722"/>
      <point x="38" y="722" type="curve"/>
      <point x="38" y="675"/>
      <point x="38" y="722"/>
      <point x="38" y="675" type="curve"/>
      <point x="172" y="675"/>
      <point x="24" y="675"/>
      <point x="158" y="675" type="curve"/>
      <point x="158" y="722"/>
      <point x="158" y="675"/>
    </contour>
    <contour>
      <point x="158" y="675" type="curve"/>
      <point x="292" y="675"/>
      <point x="143" y="675"/>
      <point x="278" y="675" type="curve"/>
      <point x="278" y="722"/>
      <point x="278" y="675"/>
      <point x="278" y="722" type="curve"/>
      <point x="232" y="722"/>
      <point x="202" y="722"/>
      <point x="158" y="722" type="curve"/>
      <point x="158" y="675"/>
      <point x="158" y="722"/>
    </contour>
    <contour>
      <point x="158" y="0" type="curve"/>
      <point x="202" y="0"/>
      <point x="232" y="0"/>
      <point x="278" y="0" type="curve"/>
      <point x="278" y="47"/>
      <point x="278" y="0"/>
      <point x="278" y="47" type="curve"/>
      <point x="143" y="47"/>
      <point x="292" y="47"/>
      <point x="158" y="47" type="curve"/>
      <point x="158" y="0"/>
      <point x="158" y="47"/>
    </contour>
    <contour>
      <point x="158" y="47" type="curve"/>
      <point x="24" y="47"/>
      <point x="172" y="47"/>
      <point x="38" y="47" type="curve"/>
      <point x="38" y="0"/>
      <point x="38" y="47"/>
      <point x="38" y="0" type="curve"/>
      <point x="83" y="0"/>
      <point x="113" y="0"/>
      <point x="158" y="0" type="curve"/>
      <point x="158" y="47"/>
      <point x="158" y="0"/>
    </contour>
    <contour>
      <point x="186" y="0" type="curve"/>
      <point x="186" y="241"/>
      <point x="186" y="481"/>
      <point x="186" y="722" type="curve"/>
      <point x="129" y="722"/>
      <point x="186" y="722"/>
      <point x="129" y="722" type="curve"/>
      <point x="129" y="481"/>
      <point x="129" y="241"/>
      <point x="129" y="0" type="curve"/>
      <point x="186" y="0"/>
      <point x="129" y="0"/>
    </contour>
    <contour>
      <point x="188" y="813" type="line"/>
      <point x="117" y="979" type="line"/>
      <point x="45" y="979" type="line"/>
      <point x="133" y="813" type="line"/>
    </contour>
  </outline>
</glyph>
<glyph name="Iacute" format="1">
  <advance width="325"/>
  <unicode hex="00CD"/>
  <outline>
    <contour>
      <point x="159" y="722" type="curve"/>
      <point x="115" y="722"/>
      <point x="84" y="722"/>
      <point x="40" y="722" type="curve"/>
      <point x="40" y="675"/>
      <point x="40" y="722"/>
      <point x="40" y="675" type="curve"/>
      <point x="173" y="675"/>
      <point x="25" y="675"/>
      <point x="159" y="675" type="curve"/>
      <point x="159" y="722"/>
      <point x="159" y="675"/>
    </contour>
    <contour>
      <point x="159" y="675" type="curve"/>
      <point x="293" y="675"/>
      <point x="145" y="675"/>
      <point x="279" y="675" type="curve"/>
      <point x="279" y="722"/>
      <point x="279" y="675"/>
      <point x="279" y="722" type="curve"/>
      <point x="234" y="722"/>
      <point x="203" y="722"/>
      <point x="159" y="722" type="curve"/>
      <point x="159" y="675"/>
      <point x="159" y="722"/>
    </contour>
    <contour>
      <point x="159" y="0" type="curve"/>
      <point x="203" y="0"/>
      <point x="234" y="0"/>
      <point x="279" y="0" type="curve"/>
      <point x="279" y="47"/>
      <point x="279" y="0"/>
      <point x="279" y="47" type="curve"/>
      <point x="145" y="47"/>
      <point x="293" y="47"/>
      <point x="159" y="47" type="curve"/>
      <point x="159" y="0"/>
      <point x="159" y="47"/>
    </contour>
    <contour>
      <point x="159" y="47" type="curve"/>
      <point x="25" y="47"/>
      <point x="173" y="47"/>
      <point x="40" y="47" type="curve"/>
      <point x="40" y="0"/>
      <point x="40" y="47"/>
      <point x="40" y="0" type="curve"/>
      <point x="84" y="0"/>
      <point x="115" y="0"/>
      <point x="159" y="0" type="curve"/>
      <point x="159" y="47"/>
      <point x="159" y="0"/>
    </contour>
    <contour>
      <point x="188" y="0" type="curve"/>
      <point x="188" y="241"/>
      <point x="188" y="481"/>
      <point x="188" y="722" type="curve"/>
      <point x="130" y="722"/>
      <point x="188" y="722"/>
      <point x="130" y="722" type="curve"/>
      <point x="130" y="481"/>
      <point x="130" y="241"/>
      <point x="130" y="0" type="curve"/>
      <point x="188" y="0"/>
      <point x="130" y="0"/>
    </contour>
    <contour>
      <point x="186" y="812" type="line"/>
      <point x="274" y="978" type="line"/>
      <point x="202" y="978" type="line"/>
      <point x="131" y="812" type="line"/>
    </contour>
  </outline>
</glyph>
<glyph name="Icircumflex" format="1">
  <advance width="313"/>
  <unicode hex="00CE"/>
  <outline>
    <contour>
      <point x="157" y="722" type="curve"/>
      <point x="112" y="722"/>
      <point x="82" y="722"/>
      <point x="38" y="722" type="curve"/>
      <point x="38" y="675"/>
      <point x="38" y="722"/>
      <point x="38" y="675" type="curve"/>
      <point x="171" y="675"/>
      <point x="23" y="675"/>
      <point x="157" y="675" type="curve"/>
      <point x="157" y="722"/>
      <point x="157" y="675"/>
    </contour>
    <contour>
      <point x="157" y="675" type="curve"/>
      <point x="291" y="675"/>
      <point x="143" y="675"/>
      <point x="277" y="675" type="curve"/>
      <point x="277" y="722"/>
      <point x="277" y="675"/>
      <point x="277" y="722" type="curve"/>
      <point x="231" y="722"/>
      <point x="201" y="722"/>
      <point x="157" y="722" type="curve"/>
      <point x="157" y="675"/>
      <point x="157" y="722"/>
    </contour>
    <contour>
      <point x="157" y="0" type="curve"/>
      <point x="201" y="0"/>
      <point x="231" y="0"/>
      <point x="277" y="0" type="curve"/>
      <point x="277" y="47"/>
      <point x="277" y="0"/>
      <point x="277" y="47" type="curve"/>
      <point x="143" y="47"/>
      <point x="291" y="47"/>
      <point x="157" y="47" type="curve"/>
      <point x="157" y="0"/>
      <point x="157" y="47"/>
    </contour>
    <contour>
      <point x="157" y="47" type="curve"/>
      <point x="23" y="47"/>
      <point x="171" y="47"/>
      <point x="38" y="47" type="curve"/>
      <point x="38" y="0"/>
      <point x="38" y="47"/>
      <point x="38" y="0" type="curve"/>
      <point x="82" y="0"/>
      <point x="112" y="0"/>
      <point x="157" y="0" type="curve"/>
      <point x="157" y="47"/>
      <point x="157" y="0"/>
    </contour>
    <contour>
      <point x="185" y="0" type="curve"/>
      <point x="185" y="241"/>
      <point x="185" y="481"/>
      <point x="185" y="722" type="curve"/>
      <point x="128" y="722"/>
      <point x="185" y="722"/>
      <point x="128" y="722" type="curve"/>
      <point x="128" y="481"/>
      <point x="128" y="241"/>
      <point x="128" y="0" type="curve"/>
      <point x="185" y="0"/>
      <point x="128" y="0"/>
    </contour>
    <contour>
      <point x="95" y="812" type="line"/>
      <point x="182" y="978" type="line"/>
      <point x="110" y="978" type="line"/>
      <point x="39" y="812" type="line"/>
    </contour>
    <contour>
      <point x="276" y="812" type="line"/>
      <point x="205" y="978" type="line"/>
      <point x="133" y="978" type="line"/>
      <point x="221" y="812" type="line"/>
    </contour>
  </outline>
</glyph>
<glyph name="Idieresis" format="1">
  <advance width="318"/>
  <unicode hex="00CF"/>
  <outline>
    <contour>
      <point x="159" y="722" type="curve"/>
      <point x="115" y="722"/>
      <point x="85" y="722"/>
      <point x="40" y="722" type="curve"/>
      <point x="40" y="675"/>
      <point x="40" y="722"/>
      <point x="40" y="675" type="curve"/>
      <point x="174" y="675"/>
      <point x="26" y="675"/>
      <point x="159" y="675" type="curve"/>
      <point x="159" y="722"/>
      <point x="159" y="675"/>
    </contour>
    <contour>
      <point x="159" y="675" type="curve"/>
      <point x="293" y="675"/>
      <point x="145" y="675"/>
      <point x="279" y="675" type="curve"/>
      <point x="279" y="722"/>
      <point x="279" y="675"/>
      <point x="279" y="722" type="curve"/>
      <point x="234" y="722"/>
      <point x="204" y="722"/>
      <point x="159" y="722" type="curve"/>
      <point x="159" y="675"/>
      <point x="159" y="722"/>
    </contour>
    <contour>
      <point x="159" y="0" type="curve"/>
      <point x="204" y="0"/>
      <point x="234" y="0"/>
      <point x="279" y="0" type="curve"/>
      <point x="279" y="47"/>
      <point x="279" y="0"/>
      <point x="279" y="47" type="curve"/>
      <point x="145" y="47"/>
      <point x="293" y="47"/>
      <point x="159" y="47" type="curve"/>
      <point x="159" y="0"/>
      <point x="159" y="47"/>
    </contour>
    <contour>
      <point x="159" y="47" type="curve"/>
      <point x="26" y="47"/>
      <point x="174" y="47"/>
      <point x="40" y="47" type="curve"/>
      <point x="40" y="0"/>
      <point x="40" y="47"/>
      <point x="40" y="0" type="curve"/>
      <point x="85" y="0"/>
      <point x="115" y="0"/>
      <point x="159" y="0" type="curve"/>
      <point x="159" y="47"/>
      <point x="159" y="0"/>
    </contour>
    <contour>
      <point x="188" y="0" type="curve"/>
      <point x="188" y="241"/>
      <point x="188" y="481"/>
      <point x="188" y="722" type="curve"/>
      <point x="130" y="722"/>
      <point x="188" y="722"/>
      <point x="130" y="722" type="curve"/>
      <point x="130" y="481"/>
      <point x="130" y="241"/>
      <point x="130" y="0" type="curve"/>
      <point x="188" y="0"/>
      <point x="130" y="0"/>
    </contour>
    <contour>
      <point x="135" y="841" type="curve"/>
      <point x="135" y="862"/>
      <point x="121" y="873"/>
      <point x="101" y="873" type="curve"/>
      <point x="81" y="873"/>
      <point x="68" y="861"/>
      <point x="68" y="841" type="curve"/>
      <point x="135" y="841"/>
      <point x="68" y="841"/>
      <point x="135" y="841" type="curve"/>
      <point x="135" y="819"/>
      <point x="122" y="808"/>
      <point x="101" y="808" type="curve"/>
      <point x="81" y="808"/>
      <point x="68" y="820"/>
      <point x="68" y="841" type="curve"/>
      <point x="135" y="841"/>
      <point x="68" y="841"/>
    </contour>
    <contour>
      <point x="252" y="841" type="curve"/>
      <point x="252" y="862"/>
      <point x="238" y="873"/>
      <point x="218" y="873" type="curve"/>
      <point x="198" y="873"/>
      <point x="185" y="861"/>
      <point x="185" y="841" type="curve"/>
      <point x="252" y="841"/>
      <point x="185" y="841"/>
      <point x="252" y="841" type="curve"/>
      <point x="252" y="819"/>
      <point x="238" y="808"/>
      <point x="218" y="808" type="curve"/>
      <point x="197" y="808"/>
      <point x="185" y="820"/>
      <point x="185" y="841" type="curve"/>
      <point x="252" y="841"/>
      <point x="185" y="841"/>
    </contour>
  </outline>
</glyph>
<glyph name="Ntilde" format="1">
  <advance width="688"/>
  <unicode hex="00D1"/>
  <outline>
    <contour>
      <point x="159" y="722" type="curve"/>
      <point x="114" y="722"/>
      <point x="85" y="722"/>
      <point x="40" y="722" type="curve"/>
      <point x="40" y="675"/>
      <point x="40" y="722"/>
      <point x="40" y="675" type="curve"/>
      <point x="173" y="675"/>
      <point x="26" y="675"/>
      <point x="159" y="675" type="curve"/>
      <point x="159" y="722"/>
      <point x="159" y="675"/>
    </contour>
    <contour>
      <point x="544" y="675" type="curve"/>
      <point x="676" y="675"/>
      <point x="530" y="675"/>
      <point x="662" y="675" type="curve"/>
      <point x="662" y="722"/>
      <point x="662" y="675"/>
      <point x="662" y="722" type="curve"/>
      <point x="618" y="722"/>
      <point x="588" y="722"/>
      <point x="544" y="722" type="curve"/>
      <point x="544" y="675"/>
      <point x="544" y="722"/>
    </contour>
    <contour>
      <point x="544" y="722" type="curve"/>
      <point x="500" y="722"/>
      <point x="471" y="722"/>
      <point x="428" y="722" type="curve"/>
      <point x="428" y="675"/>
      <point x="428" y="722"/>
      <point x="428" y="675" type="curve"/>
      <point x="559" y="675"/>
      <point x="413" y="675"/>
      <point x="544" y="675" type="curve"/>
      <point x="544" y="722"/>
      <point x="544" y="675"/>
    </contour>
    <contour>
      <point x="158" y="47" type="curve"/>
      <point x="25" y="47"/>
      <point x="172" y="47"/>
      <point x="40" y="47" type="curve"/>
      <point x="39" y="0"/>
      <point x="40" y="47"/>
      <point x="39" y="0" type="curve"/>
      <point x="84" y="0"/>
      <point x="113" y="0"/>
      <point x="158" y="0" type="curve"/>
      <point x="158" y="47"/>
      <point x="158" y="0"/>
    </contour>
    <contour>
      <point x="158" y="0" type="curve"/>
      <point x="201" y="0"/>
      <point x="143" y="0"/>
      <point x="274" y="0" type="curve"/>
      <point x="274" y="47"/>
      <point x="274" y="0"/>
      <point x="274" y="47" type="curve"/>
      <point x="143" y="47"/>
      <point x="288" y="47"/>
      <point x="158" y="47" type="curve"/>
      <point x="158" y="0"/>
      <point x="158" y="47"/>
    </contour>
    <contour>
      <point x="572" y="0" type="curve"/>
      <point x="445" y="241"/>
      <point x="317" y="481"/>
      <point x="190" y="722" type="curve"/>
      <point x="127" y="722"/>
      <point x="191" y="722"/>
      <point x="128" y="722" type="curve"/>
      <point x="255" y="481"/>
      <point x="383" y="241"/>
      <point x="510" y="0" type="curve"/>
      <point x="573" y="0"/>
      <point x="509" y="0"/>
    </contour>
    <contour>
      <point x="514" y="722" type="curve"/>
      <point x="514" y="481"/>
      <point x="514" y="241"/>
      <point x="514" y="0" type="curve"/>
      <point x="572" y="0"/>
      <point x="514" y="0"/>
      <point x="572" y="0" type="curve"/>
      <point x="572" y="241"/>
      <point x="572" y="481"/>
      <point x="572" y="722" type="curve"/>
      <point x="514" y="722"/>
      <point x="572" y="722"/>
    </contour>
    <contour>
      <point x="186" y="0" type="curve"/>
      <point x="186" y="241"/>
      <point x="186" y="481"/>
      <point x="186" y="722" type="curve"/>
      <point x="129" y="722"/>
      <point x="186" y="722"/>
      <point x="129" y="722" type="curve"/>
      <point x="129" y="481"/>
      <point x="129" y="241"/>
      <point x="129" y="0" type="curve"/>
      <point x="186" y="0"/>
      <point x="129" y="0"/>
    </contour>
    <contour>
      <point x="466" y="956" type="curve"/>
      <point x="455" y="910"/>
      <point x="448" y="870"/>
      <point x="419" y="870" type="curve"/>
      <point x="391" y="870"/>
      <point x="378" y="888"/>
      <point x="362" y="911" type="curve" smooth="yes"/>
      <point x="341" y="938"/>
      <point x="326" y="958"/>
      <point x="293" y="958" type="curve"/>
      <point x="232" y="958"/>
      <point x="217" y="899"/>
      <point x="204" y="835" type="curve"/>
      <point x="248" y="814"/>
      <point x="204" y="836"/>
      <point x="248" y="814" type="curve"/>
      <point x="260" y="863"/>
      <point x="267" y="901"/>
      <point x="302" y="901" type="curve"/>
      <point x="328" y="901"/>
      <point x="337" y="882"/>
      <point x="351" y="862" type="curve" smooth="yes"/>
      <point x="374" y="832"/>
      <point x="391" y="812"/>
      <point x="428" y="812" type="curve"/>
      <point x="488" y="812"/>
      <point x="498" y="872"/>
      <point x="513" y="936" type="curve"/>
      <point x="466" y="956"/>
      <point x="513" y="936"/>
    </contour>
  </outline>
</glyph>
<glyph name="Otilde" format="1">
  <advance width="593"/>
  <unicode hex="00D5"/>
  <outline>
    <contour>
      <point x="120" y="360" type="curve"/>
      <point x="120" y="529"/>
      <point x="147" y="678"/>
      <point x="295" y="678" type="curve"/>
      <point x="441" y="678"/>
      <point x="474" y="532"/>
      <point x="474" y="363" type="curve"/>
      <point x="474" y="195"/>
      <point x="445" y="44"/>
      <point x="298" y="44" type="curve"/>
      <point x="151" y="44"/>
      <point x="120" y="190"/>
      <point x="120" y="360" type="curve"/>
      <point x="61" y="360"/>
      <point x="120" y="360"/>
      <point x="61" y="360" type="curve"/>
      <point x="61" y="159"/>
      <point x="118" y="-5"/>
      <point x="296" y="-5" type="curve"/>
      <point x="475" y="-5"/>
      <point x="532" y="161"/>
      <point x="532" y="363" type="curve"/>
      <point x="532" y="563"/>
      <point x="476" y="727"/>
      <point x="298" y="727" type="curve"/>
      <point x="119" y="727"/>
      <point x="61" y="561"/>
      <point x="61" y="360" type="curve"/>
      <point x="120" y="360"/>
      <point x="61" y="360"/>
    </contour>
    <contour>
      <point x="407" y="956" type="curve"/>
      <point x="396" y="910"/>
      <point x="388" y="870"/>
      <point x="360" y="870" type="curve"/>
      <point x="331" y="870"/>
      <point x="319" y="888"/>
      <point x="302" y="911" type="curve"/>
      <point x="281" y="938"/>
      <point x="267" y="958"/>
      <point x="233" y="958" type="curve"/>
      <point x="173" y="958"/>
      <point x="157" y="899"/>
      <point x="145" y="835" type="curve"/>
      <point x="189" y="814"/>
      <point x="145" y="836"/>
      <point x="189" y="814" type="curve"/>
      <point x="200" y="863"/>
      <point x="208" y="901"/>
      <point x="243" y="901" type="curve"/>
      <point x="269" y="901"/>
      <point x="278" y="882"/>
      <point x="292" y="862" type="curve"/>
      <point x="315" y="832"/>
      <point x="332" y="812"/>
      <point x="369" y="812" type="curve"/>
      <point x="429" y="812"/>
      <point x="438" y="872"/>
      <point x="454" y="936" type="curve"/>
      <point x="407" y="956"/>
      <point x="454" y="936"/>
    </contour>
  </outline>
</glyph>
<glyph name="Thorn" format="1">
  <advance width="491"/>
  <unicode hex="00DE"/>
  <outline>
    <contour>
      <point x="158" y="722" type="curve"/>
      <point x="121" y="722"/>
      <point x="84" y="722"/>
      <point x="47" y="722" type="curve"/>
      <point x="47" y="675"/>
      <point x="47" y="722"/>
      <point x="47" y="675" type="curve"/>
      <point x="158" y="675"/>
      <point x="47" y="675"/>
      <point x="158" y="675" type="curve"/>
      <point x="158" y="722"/>
      <point x="158" y="675"/>
    </contour>
    <contour>
      <point x="158" y="47" type="curve"/>
      <point x="47" y="47"/>
      <point x="158" y="47"/>
      <point x="47" y="47" type="curve"/>
      <point x="47" y="0"/>
      <point x="47" y="47"/>
      <point x="47" y="0" type="curve"/>
      <point x="84" y="0"/>
      <point x="121" y="0"/>
      <point x="158" y="0" type="curve"/>
      <point x="158" y="47"/>
      <point x="158" y="0"/>
    </contour>
    <contour>
      <point x="158" y="0" type="curve"/>
      <point x="194" y="0"/>
      <point x="158" y="0"/>
      <point x="267" y="0" type="curve"/>
      <point x="267" y="47"/>
      <point x="267" y="0"/>
      <point x="267" y="47" type="curve"/>
      <point x="158" y="47"/>
      <point x="267" y="47"/>
      <point x="158" y="47" type="curve"/>
      <point x="158" y="0"/>
      <point x="158" y="47"/>
    </contour>
    <contour>
      <point x="150" y="217" type="curve"/>
      <point x="187" y="191"/>
      <point x="227" y="172"/>
      <point x="275" y="172" type="curve"/>
      <point x="387" y="174"/>
      <point x="445" y="259"/>
      <point x="445" y="387" type="curve"/>
      <point x="445" y="512"/>
      <point x="379" y="608"/>
      <point x="254" y="608" type="curve"/>
      <point x="223" y="608"/>
      <point x="191" y="608"/>
      <point x="160" y="608" type="curve"/>
      <point x="160" y="561"/>
      <point x="160" y="608"/>
      <point x="160" y="561" type="curve"/>
      <point x="189" y="561"/>
      <point x="217" y="561"/>
      <point x="246" y="561" type="curve"/>
      <point x="342" y="561"/>
      <point x="387" y="483"/>
      <point x="387" y="385" type="curve"/>
      <point x="387" y="293"/>
      <point x="353" y="218"/>
      <point x="271" y="218" type="curve"/>
      <point x="229" y="218"/>
      <point x="202" y="234"/>
      <point x="168" y="258" type="curve"/>
      <point x="150" y="219"/>
      <point x="168" y="257"/>
    </contour>
    <contour>
      <point x="186" y="0" type="curve"/>
      <point x="186" y="241"/>
      <point x="186" y="481"/>
      <point x="186" y="722" type="curve"/>
      <point x="128" y="722"/>
      <point x="186" y="722"/>
      <point x="128" y="722" type="curve"/>
      <point x="128" y="481"/>
      <point x="128" y="241"/>
      <point x="128" y="0" type="curve"/>
      <point x="186" y="0"/>
      <point x="128" y="0"/>
    </contour>
    <contour>
      <point x="158" y="675" type="curve"/>
      <point x="194" y="675"/>
      <point x="158" y="675"/>
      <point x="267" y="675" type="curve"/>
      <point x="267" y="722"/>
      <point x="267" y="675"/>
      <point x="267" y="722" type="curve"/>
      <point x="158" y="722"/>
      <point x="267" y="722"/>
      <point x="158" y="722" type="curve"/>
      <point x="158" y="675"/>
      <point x="158" y="722"/>
    </contour>
  </outline>
</glyph>
